<svg xmlns="http://www.w3.org/2000/svg" xmlns:xlink="http://www.w3.org/1999/xlink" width="990px" height="650px" viewBox="0 0 990 650" preserveAspectRatio="xMidYMid meet" zoomAndPan="disable"  ><rect id="svgEditorBackground" x="0" y="0" width="990" height="650" style="fill: none; stroke: none;"/><polygon stroke="black" id="e1_polygon" style="stroke-width: 1px; vector-effect: non-scaling-stroke;" points="116 317 178 226 294 241 273 455" fill="white"/><polygon stroke="black" id="e2_polygon" style="stroke-width: 1px; vector-effect: non-scaling-stroke;" points="249 180 342 380 397 109 300 76" fill="white"/><polygon stroke="black" id="e3_polygon" style="stroke-width: 1px; vector-effect: non-scaling-stroke;" points="494 175 664 395 635 50 585.5 98.5 544 15" fill="white" /><polygon stroke="black" id="e4_polygon" style="stroke-width: 1px; vector-effect: non-scaling-stroke;" points="346 245 586 240 491 400" fill="white" /><polygon stroke="black" id="e6_polygon" style="stroke-width: 1px; vector-effect: non-scaling-stroke;" points="353.5 451.5 403.5 451.5 381.5 498.5" fill="white" /><polygon stroke="black" id="e7_polygon" style="stroke-width: 1px; vector-effect: non-scaling-stroke;" points="403.75 451.5 453.75 451.5 431.75 498.5" fill="white" /><polygon stroke="black" id="e8_polygon" style="stroke-width: 1px; vector-effect: non-scaling-stroke;" points="481 457 531 457 509 504" fill="white" /><polygon stroke="black" id="e9_polygon" style="stroke-width: 1px; vector-effect: non-scaling-stroke;" points="532 456 582 456 560 503" fill="white" /><polygon stroke="black" id="e10_polygon" style="stroke-width: 1px; vector-effect: non-scaling-stroke;" points="582 456 632 456 610 503" fill="white" /><polygon stroke="black" id="e11_polygon" style="stroke-width: 1px; vector-effect: non-scaling-stroke;" points="381.75 498.25 429.75 498.25 402.75 453.25" fill="white" transform="matrix(1.03588 0 0 1.03588 -13.6084 -17.7181)"/><polygon stroke="black" id="e12_polygon" style="stroke-width: 1px; vector-effect: non-scaling-stroke;" points="431.75 498 479.75 498 452.75 453" fill="white" transform="matrix(1.03423 0 0 1.03423 -14.6951 -17.1343)"/><polygon stroke="black" id="e13_polygon" style="stroke-width: 1px; vector-effect: non-scaling-stroke;" points="511 501 559 501 532 456" fill="white"/><polygon stroke="black" id="e14_polygon" style="stroke-width: 1px; vector-effect: non-scaling-stroke;" points="561 502 609 502 582 457" fill="white" /></svg>
