<svg xmlns="http://www.w3.org/2000/svg" xmlns:xlink="http://www.w3.org/1999/xlink" width="500px" height="500px" viewBox="0 0 500 500" preserveAspectRatio="xMidYMid meet"  ><rect id="svgEditorBackground" x="0" y="0" width="500" height="500" style="fill: none; stroke: none;"/><circle id="e2_circle" cx="268" cy="250" stroke="black" style="stroke-width: 1px; vector-effect: non-scaling-stroke;" r="0" fill="khaki"/><circle id="e3_circle" cx="255" cy="245" stroke="black" style="stroke-width: 1px; vector-effect: non-scaling-stroke;" r="58.6003412959" fill="white"/><path d="M251.53846740722656,185.6923065185547c-7.300000000000011,-9.969999999999999,-14.72999999999999,-16.22,-20.5,-28c-3.0200000000000102,-11.180000000000007,-3.740000000000009,-19.930000000000007,-2,-31.5c9.069999999999993,-18.680000000000007,12.77000000000001,-25.950000000000003,27,-42c7.680000000000007,6.590000000000003,10.850000000000023,14.36,13.5,23c2.410000000000025,8.379999999999995,2.1899999999999977,17.409999999999997,1,26c-5.759999999999991,22.99000000000001,-10.29000000000002,31.75999999999999,-17.5,54Z" stroke="black" id="e12_freepath" style="fill: none; stroke-width: 1px; vector-effect: non-scaling-stroke;"/><path d="M316.03846740722656,198.6923065185547c-7.300000000000011,-9.969999999999999,-14.72999999999999,-16.22,-20.5,-28c-3.0200000000000102,-11.180000000000007,-3.740000000000009,-19.930000000000007,-2,-31.5c9.069999999999993,-18.680000000000007,12.77000000000001,-25.950000000000003,27,-42c7.680000000000007,6.590000000000003,10.850000000000023,14.36,13.5,23c2.410000000000025,8.379999999999995,2.1899999999999977,17.409999999999997,1,26c-5.759999999999991,22.99000000000001,-10.29000000000002,31.75999999999999,-17.5,54Z" stroke="black" id="e15_freepath" style="fill: none; stroke-width: 1px; vector-effect: non-scaling-stroke;" transform="matrix(0.861311 0.504888 -0.504888 0.861311 115.094 -136.884)"/><path d="M178.53846740722656,200.6923065185547c-7.300000000000011,-9.969999999999999,-14.72999999999999,-16.22,-20.5,-28c-3.0200000000000102,-11.180000000000007,-3.740000000000009,-19.930000000000007,-2,-31.5c9.069999999999993,-18.680000000000007,12.77000000000001,-25.950000000000003,27,-42c7.680000000000007,6.590000000000003,10.850000000000023,14.36,13.5,23c2.410000000000025,8.379999999999995,2.1899999999999977,17.409999999999997,1,26c-5.759999999999991,22.99000000000001,-10.29000000000002,31.75999999999999,-17.5,54Z" stroke="black" id="e16_freepath" style="fill: none; stroke-width: 1px; vector-effect: non-scaling-stroke;" transform="matrix(0.724717 -0.689046 0.689046 0.724717 -53.2126 177.685)"/><path d="M281.53846740722656,391.1923065185547c-7.300000000000011,-9.969999999999999,-14.72999999999999,-16.22,-20.5,-28c-3.0200000000000102,-11.180000000000007,-3.740000000000009,-19.930000000000007,-2,-31.5c9.069999999999993,-18.680000000000007,12.77000000000001,-25.950000000000003,27,-42c7.680000000000007,6.590000000000003,10.850000000000023,14.36,13.5,23c2.410000000000025,8.379999999999995,2.1899999999999977,17.409999999999997,1,26c-5.759999999999991,22.99000000000001,-10.29000000000002,31.75999999999999,-17.5,54Z" stroke="black" id="e17_freepath" style="fill: none; stroke-width: 1px; vector-effect: non-scaling-stroke;" transform="matrix(0.695517 -0.718509 0.718509 0.695517 -113.009 292.799)"/><path d="M334.53846740722656,303.1923065185547c-7.300000000000011,-9.969999999999999,-14.72999999999999,-16.22,-20.5,-28c-3.0200000000000102,-11.180000000000007,-3.740000000000009,-19.930000000000007,-2,-31.5c9.069999999999993,-18.680000000000007,12.77000000000001,-25.950000000000003,27,-42c7.680000000000007,6.590000000000003,10.850000000000023,14.36,13.5,23c2.410000000000025,8.379999999999995,2.1899999999999977,17.409999999999997,1,26c-5.759999999999991,22.99000000000001,-10.29000000000002,31.75999999999999,-17.5,54Z" stroke="black" id="e18_freepath" style="fill: none; stroke-width: 1px; vector-effect: non-scaling-stroke;" transform="matrix(0.51552 0.856877 -0.856877 0.51552 400.104 -218.851)"/><path d="M252.53846740722656,323.6923065185547c-7.300000000000011,-9.969999999999999,-14.72999999999999,-16.22,-20.5,-28c-3.0200000000000102,-11.180000000000007,-3.740000000000009,-19.930000000000007,-2,-31.5c9.069999999999993,-18.680000000000007,12.77000000000001,-25.950000000000003,27,-42c7.680000000000007,6.590000000000003,10.850000000000023,14.36,13.5,23c2.410000000000025,8.379999999999995,2.1899999999999977,17.409999999999997,1,26c-5.759999999999991,22.99000000000001,-10.29000000000002,31.75999999999999,-17.5,54Z" stroke="black" id="e19_freepath" style="fill: none; stroke-width: 1px; vector-effect: non-scaling-stroke;" transform="matrix(-0.29344 0.955977 -0.955977 -0.29344 696.81 113.914)"/><path d="M222.18297448654357,352.713859114417c-7.300000000000011,-9.969999999999999,-14.72999999999999,-16.22,-20.5,-28c-3.0200000000000102,-11.180000000000007,-3.740000000000009,-19.930000000000007,-2,-31.5c9.069999999999993,-18.680000000000007,12.77000000000001,-25.950000000000003,27,-42c7.680000000000007,6.590000000000003,10.850000000000023,14.36,13.5,23c2.410000000000025,8.379999999999995,2.1899999999999977,17.409999999999997,1,26c-5.759999999999991,22.99000000000001,-10.29000000000002,31.75999999999999,-17.5,54Z" stroke="black" id="e20_freepath" style="fill: none; stroke-width: 1px; vector-effect: non-scaling-stroke;" transform="matrix(0.982688 -0.185264 0.185264 0.982688 -10.843 98.9115)"/><path d="M240.23394464354823,185.7227368508672c-7.300000000000011,-9.969999999999999,-14.72999999999999,-16.22,-20.5,-28c-3.0200000000000102,-11.180000000000007,-3.740000000000009,-19.930000000000007,-2,-31.5c9.069999999999993,-18.680000000000007,12.77000000000001,-25.950000000000003,27,-42c7.680000000000007,6.590000000000003,10.850000000000023,14.36,13.5,23c2.410000000000025,8.379999999999995,2.1899999999999977,17.409999999999997,1,26c-5.759999999999991,22.99000000000001,-10.29000000000002,31.75999999999999,-17.5,54Z" stroke="black" id="e21_freepath" style="fill: none; stroke-width: 1px; vector-effect: non-scaling-stroke;" transform="matrix(0.325466 -0.945553 0.945553 0.325466 -57.6338 396.632)"/><path d="M217.07411851556282,226.3320874799171c-7.300000000000011,-9.969999999999999,-14.72999999999999,-16.22,-20.5,-28c-3.0200000000000102,-11.180000000000007,-3.740000000000009,-19.930000000000007,-2,-31.5c9.069999999999993,-18.680000000000007,12.77000000000001,-25.950000000000003,27,-42c7.680000000000007,6.590000000000003,10.850000000000023,14.36,13.5,23c2.410000000000025,8.379999999999995,2.1899999999999977,17.409999999999997,1,26c-5.759999999999991,22.99000000000001,-10.29000000000002,31.75999999999999,-17.5,54Z" stroke="black" id="e22_freepath" style="fill: none; stroke-width: 1px; vector-effect: non-scaling-stroke;" transform="matrix(-0.127531 -0.991834 0.991834 -0.127531 -2.1187 501.737)"/><path d="M184.74898663399904,286.94762616225444c-7.300000000000011,-9.969999999999999,-14.72999999999999,-16.22,-20.5,-28c-3.0200000000000102,-11.180000000000007,-3.740000000000009,-19.930000000000007,-2,-31.5c9.069999999999993,-18.680000000000007,12.77000000000001,-25.950000000000003,27,-42c7.680000000000007,6.590000000000003,10.850000000000023,14.36,13.5,23c2.410000000000025,8.379999999999995,2.1899999999999977,17.409999999999997,1,26c-5.759999999999991,22.99000000000001,-10.29000000000002,31.75999999999999,-17.5,54Z" stroke="black" id="e23_freepath" style="fill: none; stroke-width: 1px; vector-effect: non-scaling-stroke;" transform="matrix(-0.758641 -0.651508 0.651508 -0.758641 164.736 624.108)"/></svg>