<svg id="svg8975" xmlns:inkscape="http://www.inkscape.org/namespaces/inkscape" xmlns:rdf="http://www.w3.org/1999/02/22-rdf-syntax-ns#" xmlns="http://www.w3.org/2000/svg" sodipodi:docname="flower2.svg" height="1e3" width="1e3" version="1.1" xmlns:cc="http://creativecommons.org/ns#" xmlns:dc="http://purl.org/dc/elements/1.1/" inkscape:version="0.91 r13725" viewBox="0 0 999.99999 1000" xmlns:sodipodi="http://sodipodi.sourceforge.net/DTD/sodipodi-0.dtd">
 <sodipodi:namedview id="base" bordercolor="#666666" inkscape:pageshadow="2" inkscape:window-y="1" pagecolor="#ffffff" inkscape:window-height="795" inkscape:window-maximized="1" inkscape:zoom="0.35" inkscape:window-x="0" showgrid="false" borderopacity="1.0" inkscape:current-layer="layer1" inkscape:cx="46.428571" inkscape:cy="520" units="px" inkscape:window-width="1440" inkscape:pageopacity="0.0" inkscape:document-units="px"/>
 <g id="layer1" inkscape:label="Layer 1" inkscape:groupmode="layer" transform="translate(0 -52.362)">
  <g id="g9057" transform="matrix(2.0743 0 0 2.0114 -23.571 22.362)">
   <rect id="svgEditorBackground" style="fill:none" height="500" width="500" y="0" x="0"/>
   <circle id="e2_circle" cx="268" style="stroke:#000;stroke-width:1px;fill:#f0e68c" r="0" cy="250"/>
   <circle id="e3_circle" cx="255" style="stroke:#000;stroke-width:1px;fill:#fff" r="58.6" cy="245"/>
   <path id="e12_freepath" style="stroke:#000;stroke-width:1px;fill:none" inkscape:connector-curvature="0" d="m251.54 185.69c-7.3-9.97-14.73-16.22-20.5-28-3.02-11.18-3.74-19.93-2-31.5 9.07-18.68 12.77-25.95 27-42 7.68 6.59 10.85 14.36 13.5 23 2.41 8.38 2.19 17.41 1 26-5.76 22.99-10.29 31.76-17.5 54z"/>
   <path id="e15_freepath" d="m316.04 198.69c-7.3-9.97-14.73-16.22-20.5-28-3.02-11.18-3.74-19.93-2-31.5 9.07-18.68 12.77-25.95 27-42 7.68 6.59 10.85 14.36 13.5 23 2.41 8.38 2.19 17.41 1 26-5.76 22.99-10.29 31.76-17.5 54z" style="stroke:#000;stroke-width:1px;fill:none" inkscape:connector-curvature="0" transform="matrix(.86131 .50489 -.50489 .86131 115.09 -136.88)"/>
   <path id="e16_freepath" d="m178.54 200.69c-7.3-9.97-14.73-16.22-20.5-28-3.02-11.18-3.74-19.93-2-31.5 9.07-18.68 12.77-25.95 27-42 7.68 6.59 10.85 14.36 13.5 23 2.41 8.38 2.19 17.41 1 26-5.76 22.99-10.29 31.76-17.5 54z" style="stroke:#000;stroke-width:1px;fill:none" inkscape:connector-curvature="0" transform="matrix(.72472 -.68905 .68905 .72472 -53.213 177.68)"/>
   <path id="e17_freepath" d="m281.54 391.19c-7.3-9.97-14.73-16.22-20.5-28-3.02-11.18-3.74-19.93-2-31.5 9.07-18.68 12.77-25.95 27-42 7.68 6.59 10.85 14.36 13.5 23 2.41 8.38 2.19 17.41 1 26-5.76 22.99-10.29 31.76-17.5 54z" style="stroke:#000;stroke-width:1px;fill:none" inkscape:connector-curvature="0" transform="matrix(.69552 -.71851 .71851 .69552 -113.01 292.8)"/>
   <path id="e18_freepath" d="m334.54 303.19c-7.3-9.97-14.73-16.22-20.5-28-3.02-11.18-3.74-19.93-2-31.5 9.07-18.68 12.77-25.95 27-42 7.68 6.59 10.85 14.36 13.5 23 2.41 8.38 2.19 17.41 1 26-5.76 22.99-10.29 31.76-17.5 54z" style="stroke:#000;stroke-width:1px;fill:none" inkscape:connector-curvature="0" transform="matrix(.51552 .85688 -.85688 .51552 400.1 -218.85)"/>
   <path id="e19_freepath" d="m252.54 323.69c-7.3-9.97-14.73-16.22-20.5-28-3.02-11.18-3.74-19.93-2-31.5 9.07-18.68 12.77-25.95 27-42 7.68 6.59 10.85 14.36 13.5 23 2.41 8.38 2.19 17.41 1 26-5.76 22.99-10.29 31.76-17.5 54z" style="stroke:#000;stroke-width:1px;fill:none" inkscape:connector-curvature="0" transform="matrix(-.29344 .95598 -.95598 -.29344 696.81 113.91)"/>
   <path id="e20_freepath" d="m222.18 352.71c-7.3-9.97-14.73-16.22-20.5-28-3.02-11.18-3.74-19.93-2-31.5 9.07-18.68 12.77-25.95 27-42 7.68 6.59 10.85 14.36 13.5 23 2.41 8.38 2.19 17.41 1 26-5.76 22.99-10.29 31.76-17.5 54z" style="stroke:#000;stroke-width:1px;fill:none" inkscape:connector-curvature="0" transform="matrix(.98269 -.18526 .18526 .98269 -10.843 98.912)"/>
   <path id="e21_freepath" d="m240.23 185.72c-7.3-9.97-14.73-16.22-20.5-28-3.02-11.18-3.74-19.93-2-31.5 9.07-18.68 12.77-25.95 27-42 7.68 6.59 10.85 14.36 13.5 23 2.41 8.38 2.19 17.41 1 26-5.76 22.99-10.29 31.76-17.5 54z" style="stroke:#000;stroke-width:1px;fill:none" inkscape:connector-curvature="0" transform="matrix(.32547 -.94555 .94555 .32547 -57.634 396.63)"/>
   <path id="e22_freepath" d="m217.07 226.33c-7.3-9.97-14.73-16.22-20.5-28-3.02-11.18-3.74-19.93-2-31.5 9.07-18.68 12.77-25.95 27-42 7.68 6.59 10.85 14.36 13.5 23 2.41 8.38 2.19 17.41 1 26-5.76 22.99-10.29 31.76-17.5 54z" style="stroke:#000;stroke-width:1px;fill:none" inkscape:connector-curvature="0" transform="matrix(-.12753 -.99183 .99183 -.12753 -2.1187 501.74)"/>
   <path id="e23_freepath" d="m184.75 286.95c-7.3-9.97-14.73-16.22-20.5-28-3.02-11.18-3.74-19.93-2-31.5 9.07-18.68 12.77-25.95 27-42 7.68 6.59 10.85 14.36 13.5 23 2.41 8.38 2.19 17.41 1 26-5.76 22.99-10.29 31.76-17.5 54z" style="stroke:#000;stroke-width:1px;fill:none" inkscape:connector-curvature="0" transform="matrix(-.75864 -.65151 .65151 -.75864 164.74 624.11)"/>
  </g>
 </g>
</svg>
