<svg id="svg6888" xmlns:inkscape="http://www.inkscape.org/namespaces/inkscape" xmlns:rdf="http://www.w3.org/1999/02/22-rdf-syntax-ns#" xmlns="http://www.w3.org/2000/svg" sodipodi:docname="stars.svg" version="1.1" xmlns:cc="http://creativecommons.org/ns#" xmlns:dc="http://purl.org/dc/elements/1.1/" inkscape:version="0.91 r13725" viewBox="0 0 1000 1000" xmlns:sodipodi="http://sodipodi.sourceforge.net/DTD/sodipodi-0.dtd">
 <sodipodi:namedview id="base" bordercolor="#666666" inkscape:pageshadow="2" inkscape:window-y="1" pagecolor="#ffffff" inkscape:window-height="795" inkscape:window-maximized="1" inkscape:zoom="0.35" inkscape:window-x="0" showgrid="false" borderopacity="1.0" inkscape:current-layer="layer1" inkscape:cx="46.428571" inkscape:cy="520" units="px" inkscape:window-width="1440" inkscape:pageopacity="0.0" inkscape:document-units="px"/>
 <g id="layer1" inkscape:label="Layer 1" inkscape:groupmode="layer" transform="translate(0 -52.362)">
  <path id="path7599" style="fill-opacity:0;stroke:#000;stroke-width:3" sodipodi:type="star" sodipodi:sides="5" inkscape:transform-center-x="0.50327649" sodipodi:r1="23.560604" sodipodi:r2="11.780302" inkscape:transform-center-y="-1.7658114" sodipodi:arg1="-2.896614" sodipodi:arg2="-2.2682955" inkscape:randomized="0" sodipodi:cy="1009.505" sodipodi:cx="965.71428" inkscape:rounded="0" inkscape:flatsided="false" d="m942.86 1003.8 15.291-3.3147 5.9379-14.475 7.8776 13.518 15.602 1.1742-10.422 11.669 3.7045 15.201-14.319-6.306-13.312 8.2205 1.5726-15.566z"/>
  <path id="path7601" style="fill-opacity:0;stroke:#000;stroke-width:3" sodipodi:type="star" sodipodi:sides="5" inkscape:transform-center-x="1.0489422" sodipodi:r1="29.137255" sodipodi:r2="14.568627" inkscape:transform-center-y="-1.7658114" sodipodi:arg1="-2.9441971" sodipodi:arg2="-2.3158786" inkscape:randomized="0" sodipodi:cy="926.64788" sodipodi:cx="905.71429" inkscape:rounded="0" inkscape:flatsided="false" d="m877.14 920.93 18.693-4.9941 6.4836-18.23 10.526 16.235 19.342 0.53271-12.188 15.028 5.4703 18.56-18.059-6.9474-15.961 10.938 1.0269-19.322z"/>
  <path id="path7603" style="fill-opacity:0;stroke:#000;stroke-width:3" sodipodi:type="star" sodipodi:sides="5" inkscape:transform-center-x="1.3641643" sodipodi:r1="14.285714" sodipodi:r2="7.1428571" sodipodi:arg1="3.1415927" sodipodi:arg2="3.7699112" inkscape:randomized="0" sodipodi:cy="995.21929" sodipodi:cx="588.57143" inkscape:rounded="0" inkscape:flatsided="false" d="m574.29 995.22 8.507-4.1985 1.3642-9.388 6.6218 6.7933 9.3501-1.6037-4.4145 8.3969 4.4145 8.3969-9.3501-1.6036-6.6218 6.7932-1.3642-9.388z"/>
  <path id="path7607" style="fill-opacity:0;stroke:#000;stroke-width:3" sodipodi:type="star" sodipodi:sides="5" inkscape:transform-center-x="2.6647448" sodipodi:r1="54.958241" sodipodi:r2="27.47912" inkscape:transform-center-y="-2.6487171" sodipodi:arg1="-2.9849908" sodipodi:arg2="-2.3566722" inkscape:randomized="0" sodipodi:cy="995.21929" sodipodi:cx="588.57144" inkscape:rounded="0" inkscape:flatsided="false" d="m534.29 986.65 34.846-10.85 10.817-34.856 21.087 29.787 36.493-0.48388-21.813 29.26 11.737 34.557-34.568-11.704-29.239 21.841 0.44901-36.493z"/>
  <path id="path7609" style="fill-opacity:0;stroke:#000;stroke-width:3" sodipodi:type="star" sodipodi:sides="5" inkscape:transform-center-x="3.8196601" sodipodi:r1="40" sodipodi:r2="20" sodipodi:arg1="3.1415927" sodipodi:arg2="3.7699112" inkscape:randomized="0" sodipodi:cy="843.79073" sodipodi:cx="825.71428" inkscape:rounded="0" inkscape:flatsided="false" d="m785.71 843.79 23.82-11.756 3.8197-26.287 18.541 19.021 26.18-4.4903-12.361 23.511 12.361 23.511-26.18-4.4903-18.541 19.021-3.8197-26.287z"/>
  <path id="path7611" style="fill-opacity:0;stroke:#000;stroke-width:3" sodipodi:type="star" sodipodi:sides="5" inkscape:transform-center-x="3.8196601" sodipodi:r1="40" sodipodi:r2="20" sodipodi:arg1="3.1415927" sodipodi:arg2="3.7699112" inkscape:randomized="0" sodipodi:cy="980.93358" sodipodi:cx="848.57143" inkscape:rounded="0" inkscape:flatsided="false" d="m808.57 980.93 23.82-11.756 3.8197-26.287 18.541 19.021 26.18-4.4903-12.361 23.511 12.361 23.511-26.18-4.4903-18.541 19.021-3.8197-26.287z"/>
  <path id="path7613" style="fill-opacity:0;stroke:#000;stroke-width:3" sodipodi:type="star" sodipodi:sides="5" inkscape:transform-center-x="-1.581505" sodipodi:r1="317.14285" sodipodi:r2="158.57143" inkscape:transform-center-y="-28.776404" sodipodi:arg1="-2.8112953" sodipodi:arg2="-2.1829768" inkscape:randomized="0" sodipodi:cy="755.21928" sodipodi:cx="591.42859" inkscape:rounded="0" inkscape:flatsided="false" d="m291.43 652.36 208.88-26.917 96.241-187.33 90.146 190.34 207.9 33.644-153.16 144.55 32.247 208.12-184.81-101-187.97 94.982 38.947-206.97z"/>
  <path id="path7615" style="fill-opacity:0;stroke:#000;stroke-width:3" sodipodi:type="star" sodipodi:sides="5" inkscape:transform-center-x="1.7658114" sodipodi:r1="174.37936" sodipodi:r2="87.189682" inkscape:transform-center-y="-14.963418" sodipodi:arg1="-1.6035715" sodipodi:arg2="-0.97525294" inkscape:randomized="0" sodipodi:cy="738.07649" sodipodi:cx="599.99998" inkscape:rounded="0" inkscape:flatsided="false" d="m594.29 563.79 54.624 102.11 115.08 12.888-80.229 83.503 23.305 113.43-104.21-50.498-100.68 57.216 15.825-114.71-85.526-78.069 113.99-20.398z"/>
  <path id="path7617" style="fill-opacity:0;stroke:#000;stroke-width:3" sodipodi:type="star" sodipodi:sides="5" inkscape:transform-center-x="0.8829057" sodipodi:r1="82.906387" sodipodi:r2="41.453194" inkscape:transform-center-y="-7.0724599" sodipodi:arg1="-1.6052654" sodipodi:arg2="-0.9769469" inkscape:randomized="0" sodipodi:cy="738.07647" sodipodi:cx="599.99999" inkscape:rounded="0" inkscape:flatsided="false" d="m597.14 655.22 26.052 48.501 54.724 6.0345-38.077 39.765 11.171 53.91-49.585-23.925-47.819 27.284 7.4313-54.551-40.725-37.048 54.178-9.7898z"/>
  <path id="path7619" style="fill-opacity:0;stroke:#000;stroke-width:3" sodipodi:type="star" sodipodi:sides="5" sodipodi:r1="34.285713" sodipodi:r2="17.142857" inkscape:transform-center-y="-3.2739944" sodipodi:arg1="-1.5707963" sodipodi:arg2="-0.9424778" inkscape:randomized="0" sodipodi:cy="738.07649" sodipodi:cx="602.85712" inkscape:rounded="0" inkscape:flatsided="false" d="m602.86 703.79 10.076 20.417 22.531 3.274-16.304 15.892 3.8488 22.44-20.153-10.595-20.153 10.595 3.8488-22.44-16.304-15.892 22.531-3.274z"/>
  <path id="path7621" style="fill-opacity:0;stroke:#000;stroke-width:3" sodipodi:type="star" sodipodi:sides="5" inkscape:transform-center-x="2.2156158" sodipodi:r1="58.623669" sodipodi:r2="29.311834" inkscape:transform-center-y="-3.4488604" sodipodi:arg1="0.81986726" sodipodi:arg2="1.4481858" inkscape:randomized="0" sodipodi:cy="772.36216" sodipodi:cx="914.28571" inkscape:rounded="0" inkscape:flatsided="false" d="m954.29 815.22-36.415-13.765-31.984 22.194 1.8388-38.887-30.991-23.56 37.551-10.268 12.83-36.755 21.369 32.541 38.921 0.84425-24.345 30.379z"/>
  <path id="path7623" style="fill-opacity:0;stroke:#000;stroke-width:3" sodipodi:type="star" sodipodi:sides="5" inkscape:transform-center-x="5.7257603" sodipodi:r1="93.021835" sodipodi:r2="46.510918" inkscape:transform-center-y="-3.2592709" sodipodi:arg1="0.74194727" sodipodi:arg2="1.3702658" inkscape:randomized="0" sodipodi:cy="489.50501" sodipodi:cx="754.28571" inkscape:rounded="0" inkscape:flatsided="false" d="m822.86 552.36-59.307-17.278-47.855 39.06-1.8943-61.744-51.937-33.443 58.136-20.881 15.757-59.729 37.824 48.838 61.675-3.4718-34.759 51.065z"/>
  <path id="path7625" style="fill-opacity:0;stroke:#000;stroke-width:3" sodipodi:type="star" sodipodi:sides="5" inkscape:transform-center-x="-3.4986699" sodipodi:r1="46.158554" sodipodi:r2="23.079279" inkscape:transform-center-y="-0.94566633" sodipodi:arg1="1.1902899" sodipodi:arg2="1.8186085" inkscape:randomized="0" sodipodi:cy="523.79072" sodipodi:cx="877.14288" inkscape:rounded="0" inkscape:flatsided="false" d="m894.29 566.65-22.804-20.483-29.801 7.1732 12.434-28.017-16.031-26.126 30.488 3.1673 19.893-23.32 6.4091 29.975 28.326 11.713-26.527 15.358z"/>
  <path id="path7627" style="fill-opacity:0;stroke:#000;stroke-width:3" sodipodi:type="star" sodipodi:sides="5" inkscape:transform-center-x="1.4898555" sodipodi:r1="21.759352" sodipodi:r2="10.879676" inkscape:transform-center-y="0.6092496" sodipodi:arg1="-1.9756881" sodipodi:arg2="-1.3473696" inkscape:randomized="0" sodipodi:cy="626.64787" sodipodi:cx="865.71429" inkscape:rounded="0" inkscape:flatsided="false" d="m857.14 606.65 10.982 9.3908 13.962-3.723-5.5375 13.346 7.8552 12.128-14.404-1.1422-9.107 11.218-3.3649-14.052-13.484-5.1946 12.325-7.5427z"/>
  <path id="path7629" style="fill-opacity:0;stroke:#000;stroke-width:3" sodipodi:type="star" sodipodi:sides="5" inkscape:transform-center-x="2.288636" sodipodi:r1="24.578072" sodipodi:r2="12.289036" inkscape:transform-center-y="0.061284069" sodipodi:arg1="0.62024949" sodipodi:arg2="1.248568" inkscape:randomized="0" sodipodi:cy="598.07646" sodipodi:cx="768.57141" inkscape:rounded="0" inkscape:flatsided="false" d="m788.57 612.36-16.108-2.6292-11.298 11.779-2.4772-16.132-14.694-7.105 14.577-7.3412 2.2166-16.17 11.486 11.595 16.064-2.8888-7.4782 14.507z"/>
  <path id="path7631" style="fill-opacity:0;stroke:#000;stroke-width:3" sodipodi:type="star" sodipodi:sides="5" inkscape:transform-center-x="0.8829057" sodipodi:r1="40.10191" sodipodi:r2="20.050955" inkscape:transform-center-y="-2.9799669" sodipodi:arg1="-1.6421038" sodipodi:arg2="-1.0137853" inkscape:randomized="0" sodipodi:cy="640.93357" sodipodi:cx="960" inkscape:rounded="0" inkscape:flatsided="false" d="m957.14 600.93 13.457 22.98 26.559 1.942-17.697 19.9 6.3603 25.86-24.394-10.681-22.628 14.04 2.6202-26.501-20.345-17.182 26.014-5.6973z"/>
  <path id="path7633" style="fill-opacity:0;stroke:#000;stroke-width:3" sodipodi:type="star" sodipodi:sides="5" inkscape:transform-center-x="-1.7658114" sodipodi:r1="54.585636" sodipodi:r2="27.292818" inkscape:transform-center-y="3.504438" sodipodi:arg1="1.4659194" sodipodi:arg2="2.0942379" inkscape:randomized="0" sodipodi:cy="338.07646" sodipodi:cx="922.85712" inkscape:rounded="0" inkscape:flatsided="false" d="m928.57 392.36-19.357-30.647-36.22-1.4286 23.166-27.88-9.834-34.889 33.674 13.416 30.143-20.134-2.3539 36.172 28.463 22.446-35.129 8.939z"/>
  <path id="path7635" style="fill-opacity:0;stroke:#000;stroke-width:3" sodipodi:type="star" sodipodi:sides="5" inkscape:transform-center-x="-3.3703645" sodipodi:r1="36.140316" sodipodi:r2="18.070158" inkscape:transform-center-y="-0.084778488" sodipodi:arg1="1.2490458" sodipodi:arg2="1.8773643" inkscape:randomized="0" sodipodi:cy="449.50501" sodipodi:cx="940" inkscape:rounded="0" inkscape:flatsided="false" d="m951.43 483.79-16.882-17.058-23.623 4.2364 11.006-21.327-11.329-21.157 23.684 3.8773 16.621-17.312 3.6313 23.723 21.601 10.458-21.44 10.784z"/>
  <path id="path7637" style="fill-opacity:0;stroke:#000;stroke-width:3" sodipodi:type="star" sodipodi:sides="5" inkscape:transform-center-x="-1.1624242" sodipodi:r1="381.29745" sodipodi:r2="190.64873" inkscape:transform-center-y="-27.93179" sodipodi:arg1="0.95577327" sodipodi:arg2="1.5840918" transform="matrix(.74204 0 0 .79993 83.883 75.162)" inkscape:randomized="0" sodipodi:cy="360.93359" sodipodi:cx="257.14285" inkscape:rounded="0" inkscape:flatsided="false" d="m477.14 672.36-222.53-120.79-225.67 114.83 46.118-248.97-178.95-179.13 251.03-33.08 115.07-225.55 109.03 228.53 250.07 39.74-183.65 174.31z"/>
  <path id="path7639" style="fill-opacity:0;stroke:#000;stroke-width:3" sodipodi:type="star" sodipodi:sides="5" inkscape:transform-center-x="-0.16664037" sodipodi:r1="190.3166" sodipodi:r2="95.158302" inkscape:transform-center-y="-18.015061" sodipodi:arg1="0.94531129" sodipodi:arg2="1.5736298" inkscape:randomized="0" sodipodi:cy="363.79072" sodipodi:cx="280" inkscape:rounded="0" inkscape:flatsided="false" d="m391.43 518.08-111.7-59.128-112.03 58.494 21.717-124.5-90.251-88.473 125.12-17.819 56.254-113.17 55.611 113.49 125.02 18.528-90.751 87.96z"/>
  <path id="path7641" style="fill-opacity:0;stroke:#000;stroke-width:3" sodipodi:type="star" sodipodi:sides="5" sodipodi:r1="100" sodipodi:r2="50" inkscape:transform-center-y="-9.5491503" sodipodi:arg1="-1.5707963" sodipodi:arg2="-0.9424778" inkscape:randomized="0" sodipodi:cy="358.07645" sodipodi:cx="282.85715" inkscape:rounded="0" inkscape:flatsided="false" d="m282.86 258.08 29.389 59.549 65.716 9.5492-47.553 46.353 11.226 65.451-58.779-30.902-58.779 30.902 11.226-65.451-47.553-46.353 65.716-9.5491z"/>
  <path id="path7643" style="fill-opacity:0;stroke:#000;stroke-width:3" sodipodi:type="star" sodipodi:sides="5" inkscape:transform-center-x="-0.69402808" sodipodi:r1="57.852734" sodipodi:r2="28.926367" inkscape:transform-center-y="-4.86022" sodipodi:arg1="-2.7886023" sodipodi:arg2="-2.1602837" inkscape:randomized="0" sodipodi:cy="360.93359" sodipodi:cx="282.85714" inkscape:rounded="0" inkscape:flatsided="false" d="m228.57 340.93 38.205-4.0444 18.327-33.765 15.652 35.085 37.776 6.9962-28.531 25.728 5.0195 38.089-33.285-19.184-34.673 16.544 7.9594-37.584z"/>
  <path id="path7645" style="fill-opacity:0;stroke:#000;stroke-width:3" sodipodi:type="star" sodipodi:sides="5" sodipodi:r1="17.142857" sodipodi:r2="8.5714283" inkscape:transform-center-y="-1.6369972" sodipodi:arg1="-1.5707963" sodipodi:arg2="-0.9424778" inkscape:randomized="0" sodipodi:cy="358.07646" sodipodi:cx="280" inkscape:rounded="0" inkscape:flatsided="false" d="m280 340.93 5.0382 10.208 11.266 1.637-8.1519 7.9462 1.9244 11.22l-10.08-5.3-10.076 5.2974 1.9244-11.22-8.1519-7.9462 11.266-1.637z"/>
  <path id="path7647" style="fill-opacity:0;stroke:#000;stroke-width:3" sodipodi:type="star" sodipodi:sides="5" inkscape:transform-center-x="3.559954" sodipodi:r1="70.276421" sodipodi:r2="35.13821" inkscape:transform-center-y="3.2343024" sodipodi:arg1="-2.0344439" sodipodi:arg2="-1.4061254" inkscape:randomized="0" sodipodi:cy="355.21931" sodipodi:cx="637.14288" inkscape:rounded="0" inkscape:flatsided="false" d="m605.71 292.36 37.189 28.194 44.309-14.651-15.322 44.081 27.626 37.612-46.658-0.95068-27.235 37.897-13.514-44.669-44.458-14.191 38.306-26.656z"/>
  <path id="path7649" style="fill-opacity:0;stroke:#000;stroke-width:3" sodipodi:type="star" sodipodi:sides="5" inkscape:transform-center-x="-5.165327" sodipodi:r1="61.809448" sodipodi:r2="30.904724" inkscape:transform-center-y="-0.7698325" sodipodi:arg1="-2.5535901" sodipodi:arg2="-1.9252715" inkscape:randomized="0" sodipodi:cy="306.64787" sodipodi:cx="791.42859" inkscape:rounded="0" inkscape:flatsided="false" d="m740 272.36 40.702 5.3024 27.442-30.523 7.5346 40.348 37.509 16.667-36.045 19.634-4.2603 40.824-29.812-28.214-40.142 8.5634 17.62-37.071z"/>
  <path id="path7653" style="fill-opacity:0;stroke:#000;stroke-width:3" sodipodi:type="star" sodipodi:sides="5" inkscape:transform-center-x="-0.18958949" sodipodi:r1="34.875874" sodipodi:r2="17.437937" inkscape:transform-center-y="-3.1495239" sodipodi:arg1="0.96007036" sodipodi:arg2="1.5883889" inkscape:randomized="0" sodipodi:cy="106.64787" sodipodi:cx="634.28571" inkscape:rounded="0" inkscape:flatsided="false" d="m654.29 135.22-20.307-11.136-20.686 10.415 4.316-22.754-16.298-16.455 22.974-2.9266 10.614-20.585 9.8828 20.945 22.857 3.733-16.866 15.872z"/>
  <path id="path7655" style="fill-opacity:0;stroke:#000;stroke-width:3" sodipodi:type="star" sodipodi:sides="5" inkscape:transform-center-x="1.4913321" sodipodi:r1="40.908058" sodipodi:r2="20.454029" inkscape:transform-center-y="2.460752" sodipodi:arg1="0.43240778" sodipodi:arg2="1.0607263" inkscape:randomized="0" sodipodi:cy="243.79073" sodipodi:cx="637.14288" inkscape:rounded="0" inkscape:flatsided="false" d="m674.29 260.93-27.156 0.70759-14.812 22.772-9.0648-25.609-26.235-7.0506 21.554-16.535-1.4015-27.129 22.386 15.39 25.369-9.7163-7.7188 26.046z"/>
  <path id="path7657" style="fill-opacity:0;stroke:#000;stroke-width:3" sodipodi:type="star" sodipodi:sides="5" inkscape:transform-center-x="-1.4228341" sodipodi:r1="35.799896" sodipodi:r2="17.899948" inkscape:transform-center-y="-2.0369978" sodipodi:arg1="1.0714496" sodipodi:arg2="1.6997681" inkscape:randomized="0" sodipodi:cy="140.93359" sodipodi:cx="728.57141" inkscape:rounded="0" inkscape:flatsided="false" d="m745.71 172.36-19.445-13.677-22.291 8.2645 6.999-22.72-14.748-18.646 23.771-0.36435 13.176-19.788 7.6921 22.495 22.891 6.416-19.017 14.267z"/>
  <path id="path7659" style="fill-opacity:0;stroke:#000;stroke-width:3" sodipodi:type="star" sodipodi:sides="5" inkscape:transform-center-x="0.26234811" sodipodi:r1="18.294641" sodipodi:r2="9.1473207" inkscape:transform-center-y="-1.4955928" sodipodi:arg1="0.89605538" sodipodi:arg2="1.5243739" inkscape:randomized="0" sodipodi:cy="83.790733" sodipodi:cx="814.28571" inkscape:rounded="0" inkscape:flatsided="false" d="m825.71 98.076-11.004-5.1482-10.479 6.1463 1.4958-12.056-9.0838-8.0672 11.929-2.303 4.8653-11.132 5.8764 10.633 12.091 1.1872-8.2967 8.8746z"/>
  <path id="path7661" style="fill-opacity:0;stroke:#000;stroke-width:3" sodipodi:type="star" sodipodi:sides="5" inkscape:transform-center-x="-4.4145285" sodipodi:r1="47.894444" sodipodi:r2="23.947222" inkscape:transform-center-y="0.16685976" sodipodi:arg1="1.2679115" sodipodi:arg2="1.89623" inkscape:randomized="0" sodipodi:cy="118.07645" sodipodi:cx="397.14285" inkscape:rounded="0" inkscape:flatsided="false" d="m411.43 163.79-21.942-23.024-31.406 5.0227 15.117-27.983l-14.48-28.32 31.28 5.729 22.456-22.523 4.2184 31.524 28.36 14.396-28.678 13.753z"/>
  <path id="path7663" style="fill-opacity:0;stroke:#000;stroke-width:3" sodipodi:type="star" sodipodi:sides="5" inkscape:transform-center-x="-4.4145285" sodipodi:r1="56.133949" sodipodi:r2="28.066975" inkscape:transform-center-y="0.98535835" sodipodi:arg1="1.3134726" sodipodi:arg2="1.9417911" inkscape:randomized="0" sodipodi:cy="140.93359" sodipodi:cx="528.57141" inkscape:rounded="0" inkscape:flatsided="false" d="m542.86 195.22-24.461-28.128-37.039 4.2042 19.193-31.956-15.444-33.927 36.323 8.3783 27.494-25.172 3.2562 37.134 32.436 18.37-34.31 14.572z"/>
  <path id="path7665" style="fill-opacity:0;stroke:#000;stroke-width:3" sodipodi:type="star" sodipodi:sides="5" inkscape:transform-center-x="1.1761099" sodipodi:r1="25.555063" sodipodi:r2="12.777531" inkscape:transform-center-y="1.2945287" sodipodi:arg1="0.46364761" sodipodi:arg2="1.0919661" inkscape:randomized="0" sodipodi:cy="200.93359" sodipodi:cx="428.57144" inkscape:rounded="0" inkscape:flatsided="false" d="m451.43 212.36-16.97-0.0881-9.6931 13.93-5.1603-16.167-16.243-4.9142 13.781-9.9035-0.3457-16.967 13.677 10.046 16.029-5.5718-5.3278 16.112z"/>
  <path id="path7667" style="fill-opacity:0;stroke:#000;stroke-width:3" sodipodi:type="star" sodipodi:sides="5" inkscape:transform-center-x="2.7283287" sodipodi:r1="28.571428" sodipodi:r2="14.285714" sodipodi:arg1="3.1415927" sodipodi:arg2="3.7699112" inkscape:randomized="0" sodipodi:cy="235.21931" sodipodi:cx="548.57141" inkscape:rounded="0" inkscape:flatsided="false" d="m520 235.22 17.014-8.3969 2.7283-18.776 13.244 13.587 18.7-3.2073-8.829 16.794 8.829 16.794-18.7-3.2073-13.244 13.587-2.7283-18.776z"/>
  <path id="path7669" style="fill-opacity:0;stroke:#000;stroke-width:3" sodipodi:type="star" sodipodi:sides="5" inkscape:transform-center-x="-2.6675534" sodipodi:r1="42.474483" sodipodi:r2="21.237242" inkscape:transform-center-y="1.4343087" sodipodi:arg1="-2.4037776" sodipodi:arg2="-1.7754591" inkscape:randomized="0" sodipodi:cy="458.07646" sodipodi:cx="528.57141" inkscape:rounded="0" inkscape:flatsided="false" d="m497.14 429.51 27.112 7.7774 21.777-17.925 0.98142 28.189 23.778 15.172-26.506 9.6442-7.0819 27.302-17.363-22.228-28.154 1.7016 15.775-23.382z"/>
  <path id="path7671" style="fill-opacity:0;stroke:#000;stroke-width:3" sodipodi:type="star" sodipodi:sides="5" inkscape:transform-center-x="-0.6092496" sodipodi:r1="21.759352" sodipodi:r2="10.879676" inkscape:transform-center-y="-1.4898555" sodipodi:arg1="-2.7367009" sodipodi:arg2="-2.1083823" inkscape:randomized="0" sodipodi:cy="358.07646" sodipodi:cx="545.71429" inkscape:rounded="0" inkscape:flatsided="false" d="m525.71 349.51 14.429-0.77364 7.5427-12.325 5.1946 13.484 14.052 3.3649-11.218 9.107 1.1422 14.404-12.128-7.8552-13.346 5.5375 3.723-13.962z"/>
  <path id="path7673" style="fill-opacity:0;stroke:#000;stroke-width:3" sodipodi:type="star" sodipodi:sides="5" inkscape:transform-center-x="-1.099202" sodipodi:r1="29.416086" sodipodi:r2="14.708043" inkscape:transform-center-y="-1.7429703" sodipodi:arg1="1.0636978" sodipodi:arg2="1.6920164" inkscape:randomized="0" sodipodi:cy="426.64787" sodipodi:cx="445.71429" inkscape:rounded="0" inkscape:flatsided="false" d="m460 452.36-16.064-11.114-18.263 6.9326 5.6061-18.712-12.237-15.227 19.529-0.45079 10.7-16.343 6.4635 18.434 18.85 5.126-15.534 11.844z"/>
  <path id="path7675" style="fill-opacity:0;stroke:#000;stroke-width:3" sodipodi:type="star" sodipodi:sides="5" inkscape:transform-center-x="0.061284069" sodipodi:r1="24.578072" sodipodi:r2="12.289036" inkscape:transform-center-y="2.288636" sodipodi:arg1="-2.1910458" sodipodi:arg2="-1.5627273" inkscape:randomized="0" sodipodi:cy="569.50504" sodipodi:cx="488.57144" inkscape:rounded="0" inkscape:flatsided="false" d="m474.29 549.51 14.385 7.7114 14.507-7.4782-2.8888 16.064 11.595 11.486-16.17 2.2166-7.3412 14.577-7.105-14.694-16.132-2.4772 11.779-11.298z"/>
  <path id="path7677" style="fill-opacity:0;stroke:#000;stroke-width:3" sodipodi:type="star" sodipodi:sides="5" inkscape:transform-center-x="2.1614683" sodipodi:r1="31.558174" sodipodi:r2="15.779087" inkscape:transform-center-y="-0.8829057" sodipodi:arg1="-3.0509328" sodipodi:arg2="-2.4226142" inkscape:randomized="0" sodipodi:cy="612.36216" sodipodi:cx="302.85715" inkscape:rounded="0" inkscape:flatsided="false" d="m271.43 609.51 19.555-7.5352 4.8788-20.381 13.209 16.27 20.891-1.658-11.391 17.59 8.0326 19.356-20.25-5.3981-15.927 13.621-1.1236-20.927z"/>
  <path id="path7679" style="fill-opacity:0;stroke:#000;stroke-width:3" sodipodi:type="star" sodipodi:sides="5" inkscape:transform-center-x="6.7349918" sodipodi:r1="109.95361" sodipodi:r2="54.976803" inkscape:transform-center-y="3.8859412" sodipodi:arg1="-1.9995744" sodipodi:arg2="-1.3712558" inkscape:randomized="0" sodipodi:cy="809.50504" sodipodi:cx="260" inkscape:rounded="0" inkscape:flatsided="false" d="m214.29 709.51 56.612 46.114 70.082-20.493-26.363 68.091 41.146 60.319-72.905-4.0315-44.652 57.772-18.695-70.583-68.743-24.614 61.351-39.591z"/>
  <path id="path7681" style="fill-opacity:0;stroke:#000;stroke-width:3" sodipodi:type="star" sodipodi:sides="5" inkscape:transform-center-x="-1.5337213" sodipodi:r1="58.901508" sodipodi:r2="29.450754" inkscape:transform-center-y="-4.1459343" sodipodi:arg1="-2.7430702" sodipodi:arg2="-2.1147517" inkscape:randomized="0" sodipodi:cy="709.50504" sodipodi:cx="151.42857" inkscape:rounded="0" inkscape:flatsided="false" d="m97.143 686.65 39.044-2.3429 20.205-33.492 14.294 36.409 38.096 8.8662-30.21 24.845 3.3401 38.972-32.965-21.054-36.032 15.22 9.8371-37.857z"/>
  <path id="path7683" style="fill-opacity:0;stroke:#000;stroke-width:3" sodipodi:type="star" sodipodi:sides="5" inkscape:transform-center-x="-4.0739956" sodipodi:r1="71.599792" sodipodi:r2="35.799896" inkscape:transform-center-y="-2.8456683" sodipodi:arg1="-2.6422459" sodipodi:arg2="-2.0139274" inkscape:randomized="0" sodipodi:cy="912.36216" sodipodi:cx="120" inkscape:rounded="0" inkscape:flatsided="false" d="m57.143 878.08 47.507 1.9436 28.534-38.033 12.832 45.783 44.989 15.384-39.577 26.352-0.72871 47.541-37.292-29.496-45.44 13.998 16.529-44.581z"/>
  <path id="path7685" style="fill-opacity:0;stroke:#000;stroke-width:3" sodipodi:type="star" sodipodi:sides="5" inkscape:transform-center-x="2.8514056" sodipodi:r1="33.442001" sodipodi:r2="16.721001" inkscape:transform-center-y="-0.35761135" sodipodi:arg1="1.9195673" sodipodi:arg2="2.5478859" inkscape:randomized="0" sodipodi:cy="986.64787" sodipodi:cx="348.57144" inkscape:rounded="0" inkscape:flatsided="false" d="m337.14 1018.1-2.431-22.074-19.562-10.512 20.243-9.1333 3.952-21.853 14.942 16.43 22.005-2.9944-11.008 19.287 9.6477 20.003-21.745-4.5093z"/>
  <path id="path7687" style="fill-opacity:0;stroke:#000;stroke-width:3" sodipodi:type="star" sodipodi:sides="5" inkscape:transform-center-x="-2.6038581" sodipodi:r1="39.692696" sodipodi:r2="19.84635" inkscape:transform-center-y="-1.2275074" sodipodi:arg1="-2.6135182" sodipodi:arg2="-1.9851997" inkscape:randomized="0" sodipodi:cy="1003.7907" sodipodi:cx="237.14285" inkscape:rounded="0" inkscape:flatsided="false" d="m202.86 983.79 26.295 1.8335 16.417-20.622 6.3817 25.574 24.685 9.2414-22.351 13.972-1.1608 26.333-20.195-16.939-25.403 7.0333 9.8693-24.441z"/>
  <path id="path7689" style="fill-opacity:0;stroke:#000;stroke-width:3" sodipodi:type="star" sodipodi:sides="5" inkscape:transform-center-x="-2.6675534" sodipodi:r1="42.474483" sodipodi:r2="21.237242" inkscape:transform-center-y="1.4343087" sodipodi:arg1="-2.4037776" sodipodi:arg2="-1.7754591" inkscape:randomized="0" sodipodi:cy="795.21928" sodipodi:cx="65.714287" inkscape:rounded="0" inkscape:flatsided="false" d="m34.286 766.65 27.112 7.7774 21.777-17.925 0.98142 28.189 23.778 15.172-26.506 9.6442-7.0819 27.302l-17.358-22.22-28.155 1.7 15.775-23.38z"/>
  <path id="path7691" style="fill-opacity:0;stroke:#000;stroke-width:3" sodipodi:type="star" sodipodi:sides="5" inkscape:transform-center-x="1.7658114" sodipodi:r1="31.943829" sodipodi:r2="15.971914" inkscape:transform-center-y="-1.3217751" sodipodi:arg1="-1.7506498" sodipodi:arg2="-1.1223313" inkscape:randomized="0" sodipodi:cy="652.36216" sodipodi:cx="48.57143" inkscape:rounded="0" inkscape:flatsided="false" d="m42.857 620.93 12.639 17.036 21.199-0.75406-12.296 17.285 7.2681 19.929-20.239-6.3532-16.707 13.071-0.21197-21.212-17.594-11.851 20.108-6.7564z"/>
  <path id="path7693" style="fill-opacity:0;stroke:#000;stroke-width:3" sodipodi:type="star" sodipodi:sides="5" inkscape:transform-center-x="1.7658114" sodipodi:r1="26.341557" sodipodi:r2="13.170778" inkscape:transform-center-y="-0.77610935" sodipodi:arg1="-1.7894653" sodipodi:arg2="-1.1611467" inkscape:randomized="0" sodipodi:cy="495.21931" sodipodi:cx="42.857143" inkscape:rounded="0" inkscape:flatsided="false" d="m37.143 469.51 10.96 13.633 17.444-1.2997-9.5792 14.637 6.6267 16.189-16.88-4.5874-13.349 11.305-0.85344-17.472-14.877-9.2019 16.353-6.2107z"/>
  <path id="path7695" style="fill-opacity:0;stroke:#000;stroke-width:3" sodipodi:type="star" sodipodi:sides="5" inkscape:transform-center-x="0.25661083" sodipodi:r1="20.603149" sodipodi:r2="10.301575" inkscape:transform-center-y="1.7217757" sodipodi:arg1="-2.1587989" sodipodi:arg2="-1.5304804" inkscape:randomized="0" sodipodi:cy="572.36216" sodipodi:cx="62.857143" inkscape:rounded="0" inkscape:flatsided="false" d="m51.429 555.22 11.844 6.8496 12.357-5.8734-2.8545 13.381 9.4045 9.9372-13.608 1.4201-6.5447 12.015-5.5557-12.503-13.449-2.5116 10.174-9.1474z"/>
  <path id="path7697" style="fill-opacity:0;stroke:#000;stroke-width:3" sodipodi:type="star" sodipodi:sides="5" inkscape:transform-center-x="1.3429697" sodipodi:r1="23.035023" sodipodi:r2="11.517511" inkscape:transform-center-y="-0.8829057" sodipodi:arg1="-3.0172377" sodipodi:arg2="-2.3889191" inkscape:randomized="0" sodipodi:cy="426.64787" sodipodi:cx="105.71429" inkscape:rounded="0" inkscape:flatsided="false" d="m82.857 423.79 14.451-5.0162 4.0603-14.748 9.2362 12.194 15.281-0.69585-8.7426 12.552 5.3839 14.318-14.639-4.4359-11.954 9.5449-0.30505-15.294z"/>
  <path id="path7699" style="fill-opacity:0;stroke:#000;stroke-width:3" sodipodi:type="star" sodipodi:sides="5" inkscape:transform-center-x="-2.7958588" sodipodi:r1="32.576443" sodipodi:r2="16.288219" inkscape:transform-center-y="0.32936946" sodipodi:arg1="-2.4805495" sodipodi:arg2="-1.852231" inkscape:randomized="0" sodipodi:cy="375.21931" sodipodi:cx="45.714287" inkscape:rounded="0" inkscape:flatsided="false" d="m20 355.22 21.19 4.3526 15.599-14.989 2.4087 21.498 19.075 10.204-19.702 8.9341-3.8096 21.295-14.585-15.977-21.43 2.9574 10.688-18.808z"/>
  <path id="path7701" style="fill-opacity:0;stroke:#000;stroke-width:3" sodipodi:type="star" sodipodi:sides="5" inkscape:transform-center-x="-3.5771659" sodipodi:r1="48.655392" sodipodi:r2="24.327696" inkscape:transform-center-y="1.1106765" sodipodi:arg1="-2.4393357" sodipodi:arg2="-1.8110172" inkscape:randomized="0" sodipodi:cy="192.36216" sodipodi:cx="68.571426" inkscape:rounded="0" inkscape:flatsided="false" d="m31.429 160.93 31.355 7.7994 24.201-21.408 2.2715 32.23 27.838 16.401-29.951 12.12-6.9955 31.544-20.782-24.74-32.162 3.0945 17.107-27.41z"/>
  <path id="path7703" style="fill-opacity:0;stroke:#000;stroke-width:3" sodipodi:type="star" sodipodi:sides="5" inkscape:transform-center-x="3.4986699" sodipodi:r1="46.158554" sodipodi:r2="23.079279" inkscape:transform-center-y="0.94566633" sodipodi:arg1="-1.9513027" sodipodi:arg2="-1.3229842" inkscape:randomized="0" sodipodi:cy="120.93359" sodipodi:cx="171.42857" inkscape:rounded="0" inkscape:flatsided="false" d="m154.29 78.076 22.804 20.483 29.801-7.1732-12.434 28.017 16.031 26.126l-30.49-3.17-19.893 23.32-6.4091-29.975-28.326-11.713 26.527-15.358z"/>
  <path id="path7705" style="fill-opacity:0;stroke:#000;stroke-width:3" sodipodi:type="star" sodipodi:sides="5" inkscape:transform-center-x="-1.1761099" sodipodi:r1="25.555063" sodipodi:r2="12.777531" inkscape:transform-center-y="-1.2945287" sodipodi:arg1="-2.677945" sodipodi:arg2="-2.0496265" inkscape:randomized="0" sodipodi:cy="92.362161" sodipodi:cx="48.57143" inkscape:rounded="0" inkscape:flatsided="false" d="m25.714 80.934 16.97 0.08807 9.6931-13.93 5.1603 16.167 16.243 4.9142-13.781 9.9035 0.3457 16.967-13.677-10.046-16.029 5.5718 5.3278-16.112z"/>
  <path id="path7707" style="fill-opacity:0;stroke:#000;stroke-width:3" sodipodi:type="star" sodipodi:sides="5" inkscape:transform-center-x="2.1371199" sodipodi:r1="34.522987" sodipodi:r2="17.261494" inkscape:transform-center-y="1.1973046" sodipodi:arg1="-1.9974238" sodipodi:arg2="-1.3691053" inkscape:randomized="0" sodipodi:cy="615.21928" sodipodi:cx="220" inkscape:rounded="0" inkscape:flatsided="false" d="m205.71 583.79 17.744 14.517 22.018-6.3869-8.3234 21.361 12.878 18.967-22.888-1.315-14.059 18.109-5.822-22.174-21.567-7.7747 19.29-12.389z"/>
  <path id="path7709" style="fill-opacity:0;stroke:#000;stroke-width:3" sodipodi:type="star" sodipodi:sides="5" inkscape:transform-center-x="2.9126896" sodipodi:r1="57.49889" sodipodi:r2="28.749445" inkscape:transform-center-y="2.6462474" sodipodi:arg1="-2.0344439" sodipodi:arg2="-1.4061254" inkscape:randomized="0" sodipodi:cy="809.50502" sodipodi:cx="262.85715" inkscape:rounded="0" inkscape:flatsided="false" d="m237.14 758.08 30.427 23.068 36.252-11.988-12.537 36.066 22.603 30.774-38.175-0.77783-22.283 31.007-11.057-36.547-36.375-11.611 31.342-21.809z"/>
  <path id="path7711" style="fill-opacity:0;stroke:#000;stroke-width:3" sodipodi:type="star" sodipodi:sides="5" inkscape:transform-center-x="1.6181609" sodipodi:r1="31.943829" sodipodi:r2="15.971914" inkscape:transform-center-y="1.4701374" sodipodi:arg1="-2.0344439" sodipodi:arg2="-1.4061254" inkscape:randomized="0" sodipodi:cy="809.50504" sodipodi:cx="265.71429" inkscape:rounded="0" inkscape:flatsided="false" d="m251.43 780.93 16.904 12.816 20.14-6.6597-6.9647 20.037 12.557 17.097-21.208-0.43213-12.379 17.226-6.1428-20.304-20.208-6.4503 17.412-12.116z"/>
  <path id="path7713" style="fill-opacity:0;stroke:#000;stroke-width:3" sodipodi:type="star" sodipodi:sides="5" inkscape:transform-center-x="10.594868" sodipodi:r1="122.0572" sodipodi:r2="61.028599" inkscape:transform-center-y="-1.1098289" sodipodi:arg1="-1.8555268" sodipodi:arg2="-1.2272082" inkscape:randomized="0" sodipodi:cy="178.07644" sodipodi:cx="891.42858" inkscape:rounded="0" inkscape:flatsided="false" d="m857.14 60.934 54.844 59.681 80.256-11.345-39.812 70.603 35.59 72.822-79.45-16.046-58.26 56.352-9.2902-80.52-71.597-37.995 73.708-33.717z"/>
  <path id="path7719" style="fill-opacity:0;stroke:#000;stroke-width:3" sodipodi:type="star" sodipodi:sides="5" inkscape:transform-center-x="6.5454023" sodipodi:r1="75.916176" sodipodi:r2="37.958084" inkscape:transform-center-y="0.73641733" sodipodi:arg1="-1.9163519" sodipodi:arg2="-1.2880334" inkscape:randomized="0" sodipodi:cy="175.2193" sodipodi:cx="891.42857" inkscape:rounded="0" inkscape:flatsided="false" d="m865.71 103.79 36.305 34.978 49.396-10.078-22.047 45.337 24.849 43.864-49.931-6.9582-34.039 37.187-8.8119-49.637-45.886-20.881 44.485-23.719z"/>
  <path id="path7721" style="fill-opacity:0;stroke:#000;stroke-width:3" sodipodi:type="star" sodipodi:sides="5" inkscape:transform-center-x="4.092493" sodipodi:r1="42.857143" sodipodi:r2="21.428572" sodipodi:arg1="3.1415927" sodipodi:arg2="3.7699112" inkscape:randomized="0" sodipodi:cy="175.21931" sodipodi:cx="891.4286" inkscape:rounded="0" inkscape:flatsided="false" d="m848.57 175.22 25.521-12.595 4.0925-28.164 19.865 20.38 28.05-4.811-13.244 25.191 13.244 25.191-28.05-4.811-19.865 20.38-4.0925-28.164z"/>
 </g>
</svg>
