<?xml version="1.0" encoding="UTF-8" standalone="no"?>
<svg
   xmlns:dc="http://purl.org/dc/elements/1.1/"
   xmlns:cc="http://creativecommons.org/ns#"
   xmlns:rdf="http://www.w3.org/1999/02/22-rdf-syntax-ns#"
   xmlns:svg="http://www.w3.org/2000/svg"
   xmlns="http://www.w3.org/2000/svg"
   version="1.1"
   id="svg4200"
     viewBox="-100 50 1500 1000">
>
  <g
     id="layer1">
    <path
       d="m 234.2857,232.36221 9.52286,-36.43708 -24.61734,-28.50143 37.59644,-2.20291 19.4993,-32.2199 13.71303,35.07561 36.66857,8.58843 -29.12133,23.88082 3.16312,37.52786 -31.711,-20.31645 z"
       id="path4208"
       style="fill:#000000;fill-opacity:0;stroke:#000000;stroke-opacity:1" />
    <path
       d="m 474.28571,172.36221 -50.82195,-17.23422 -43.00888,32.09556 0.68587,-53.66021 -43.81517,-30.9858 51.24584,-15.929616 15.92962,-51.245841 30.9858,43.81517 53.66021,-0.685873 -32.09556,43.00888 z"
       id="path4210"
       style="fill:#000000;fill-opacity:0;stroke:#000000;stroke-opacity:1" />
    <path
       d="m 382.85715,418.07649 -30.51519,-6.09803 -22.32293,21.68062 -3.63014,-30.90607 -27.51766,-14.53069 28.27164,-13.00297 5.31609,-30.66108 21.10297,22.86979 30.80318,-4.41889 -15.22928,27.13727 z"
       id="path4212"
       style="fill:#000000;fill-opacity:0;stroke:#000000;stroke-opacity:1" />
    <path
       d="m 471.42859,255.21934 51.88183,-23.4894 10.06259,-56.0555 38.37211,42.08392 56.42146,-7.752 -28.16655,49.49869 24.80779,51.2645 -55.78,-11.49205 -41.08941,39.43521 -6.30738,-56.60118 z"
       id="path4214"
       style="fill:#000000;fill-opacity:0;stroke:#000000;stroke-opacity:1" />
    <path
       d="m 422.85715,535.21933 -15.24658,-5.17026 -12.90267,9.62867 0.20576,-16.09807 -13.14455,-9.29574 15.37376,-4.77888 4.77888,-15.37376 9.29574,13.14456 16.09807,-0.20577 -9.62867,12.90267 z"
       id="path4216"
       style="fill:#000000;fill-opacity:0;stroke:#000000;stroke-opacity:1" />
    <path
       d="m 522.85714,480.93364 -23.70957,-9.4568 -21.23161,14.17017 1.66729,-25.47146 -20.03756,-15.81363 24.74002,-6.28542 8.84771,-23.94354 13.62288,21.58686 25.50575,1.01571 -16.32062,19.62683 z"
       id="path4218"
       style="fill:#000000;fill-opacity:0;stroke:#000000;stroke-opacity:1" />
    <path
       d="m 408.57142,286.64792 -17.74365,-14.51699 -22.01788,6.3869 8.32338,-21.36121 -12.8782,-18.96659 22.88778,1.31503 14.05872,-18.10889 5.82205,22.17393 21.56696,7.77469 -19.28956,12.38921 z"
       id="path4220"
       style="fill:#000000;fill-opacity:0;stroke:#000000;stroke-opacity:1" />
    <path
       d="m 162.85714,338.07649 -31.26681,-24.76945 -38.130109,11.71468 13.895169,-37.39068 -22.924174,-32.64386 39.854494,1.66073 23.96219,-31.88968 10.73627,38.41707 37.73362,12.93494 -33.21912,22.08232 z"
       id="path4222"
       style="fill:#000000;fill-opacity:0;stroke:#000000;stroke-opacity:1" />
    <path
       d="M 74.285716,40.933633 64.143344,33.244287 52.059177,37.240123 56.238015,25.218015 48.703536,14.960072 61.428572,15.219347 68.856174,4.8837522 72.541841,17.066101 84.666831,20.936296 74.219662,28.206127 Z"
       id="path4224"
       style="fill:#000000;fill-opacity:0;stroke:#000000;stroke-opacity:1" />
    <path
       d="M 128.57143,146.64791 87.759744,162.55805 77.729366,205.19744 49.986424,171.29972 6.3343966,174.93656 30.000001,138.07648 13.051942,97.684782 55.421032,108.80172 88.598583,80.201436 91.118517,123.93216 Z"
       id="path4226"
       style="fill:#000000;fill-opacity:0;stroke:#000000;stroke-opacity:1" />
    <path
       d="m 165.71428,478.07649 -48.45699,17.56751 -12.99932,49.877 -31.681726,-40.65669 -51.452857,3.04976 28.876612,-42.69472 -18.800294,-47.99215 49.528451,14.2699 39.833634,-32.71053 1.73366,51.514 z"
       id="path4228"
       style="fill:#000000;fill-opacity:0;stroke:#000000;stroke-opacity:1" />
    <path
       d="m 305.71428,626.64795 -34.02808,16.79386 -5.45666,37.55223 -26.48717,-27.17305 -37.40049,6.41469 L 220,626.64795 l -17.65812,-33.58773 37.40049,6.41469 26.48717,-27.17305 5.45666,37.55223 z"
       id="path4230"
       style="fill:#000000;fill-opacity:0;stroke:#000000;stroke-opacity:1" />
    <path
       d="m 360.00001,786.64794 53.53919,-15.84408 17.30021,-53.08656 31.61313,46.02271 55.83438,0.0488 -34.0012,44.28767 17.20733,53.11674 -52.62703,-18.65142 -45.19966,32.77912 1.4759,-55.81489 z"
       id="path4232"
       style="fill:#000000;fill-opacity:0;stroke:#000000;stroke-opacity:1" />
    <path
       d="m 562.85713,629.50506 -36.48111,-1.03786 -21.53666,29.4639 -10.28622,-35.01632 -34.67702,-11.37773 30.12387,-20.60342 0.10508,-36.49572 28.90381,22.2827 34.74196,-11.17786 -12.26034,34.37488 z"
       id="path4234"
       style="fill:#000000;fill-opacity:0;stroke:#000000;stroke-opacity:1" />
    <path
       d="m 639.99999,452.36221 -33.78589,-29.87366 -43.76294,10.89618 17.97112,-41.36376 -23.88637,-38.25392 44.89265,4.30944 29.00035,-34.5384 9.77407,44.02714 41.80957,16.90802 -38.85194,22.90082 z"
       id="path4236"
       style="fill:#000000;fill-opacity:0;stroke:#000000;stroke-opacity:1" />
    <path
       d="m 102.85714,726.64793 -22.847857,-11.9979 -22.836385,12.01973 4.350306,-25.43716 -18.488271,-18.0044 25.536496,-3.72313 11.410005,-23.14705 11.432117,23.13614 25.540039,3.69873 -18.471057,18.02205 z"
       id="path4238"
       style="fill:#000000;fill-opacity:0;stroke:#000000;stroke-opacity:1" />
    <path
       d="m 245.71429,823.79077 -31.39892,0.68557 -17.23577,26.25434 -10.35481,-29.6503 -30.2955,-8.27915 24.99929,-19.01046 -1.48788,-31.37113 25.80522,17.90118 29.37594,-11.10927 -9.05078,30.07399 z"
       id="path4240"
       style="fill:#000000;fill-opacity:0;stroke:#000000;stroke-opacity:1" />
    <path
       d="m 68.57143,883.79075 -16.970007,-0.0881 -9.693108,13.92956 -5.160259,-16.16665 -16.243133,-4.91422 13.780793,-9.90347 -0.345701,-16.96672 13.677257,10.04597 16.029478,-5.57178 -5.327783,16.11222 z"
       id="path4242"
       style="fill:#000000;fill-opacity:0;stroke:#000000;stroke-opacity:1" />
    <path
       d="m 208.57144,926.64793 -34.75769,-6.12005 -24.74622,25.16301 -4.9202,-34.94773 -31.57844,-15.75925 31.71683,-15.47884 5.22967,-34.90275 24.52229,25.38128 34.81055,-5.81184 -16.56123,31.16533 z"
       id="path4244"
       style="fill:#000000;fill-opacity:0;stroke:#000000;stroke-opacity:1" />
    <path
       d="m 614.28571,680.93364 -21.14646,-12.8376 -22.56355,10.14212 5.67466,-24.07851 -16.61825,-18.32513 24.65359,-2.04374 12.29292,-21.46767 9.56209,22.81541 24.21568,5.05738 -18.74389,16.14444 z"
       id="path4246"
       style="fill:#000000;fill-opacity:0;stroke:#000000;stroke-opacity:1" />
    <path
       d="m 671.42856,546.64794 -29.67549,-4.39663 -20.44533,21.95345 -4.98879,-29.5817 -27.19693,-12.66068 26.59226,-13.88587 3.6367,-29.77817 21.42371,20.99976 29.44453,-5.74325 -13.35167,26.86444 z"
       id="path4248"
       style="fill:#000000;fill-opacity:0;stroke:#000000;stroke-opacity:1" />
    <path
       d="m 637.14288,858.07647 -40.65757,-13.78738 -34.4071,25.67646 0.5487,-42.92818 -35.05214,-24.78864 40.99668,-12.74369 12.74369,-40.99668 24.78864,35.05214 42.92817,-0.5487 -25.67645,34.40711 z"
       id="path4250"
       style="fill:#000000;fill-opacity:0;stroke:#000000;stroke-opacity:1" />
    <path
       d="m 291.42859,912.36223 -15.29063,3.31474 -5.93788,14.47523 -7.87757,-13.51794 -15.60166,-1.17417 10.42202,-11.66928 -3.70447,-15.20091 14.31872,6.30593 13.31218,-8.2205 -1.57256,15.56655 z"
       id="path4252"
       style="fill:#000000;fill-opacity:0;stroke:#000000;stroke-opacity:1" />
    <path
       d="M 560,958.07649 539.69324,946.9403 519.0073,957.35525 523.32331,934.6011 507.0258,918.146 530,915.21935 l 10.61352,-20.58476 9.88283,20.94538 22.85703,3.73302 -16.86628,15.87161 z"
       id="path4254"
       style="fill:#000000;fill-opacity:0;stroke:#000000;stroke-opacity:1" />
    <ellipse
       ry="24.285715"
       rx="25.714285"
       cy="425.21936"
       cx="220"
       id="path10834"
       style="fill:#000000;fill-opacity:0;stroke:#000000;stroke-opacity:1" />
    <ellipse
       ry="21.428572"
       rx="27.142857"
       cy="313.79077"
       cx="244.28572"
       id="path10836"
       style="fill:#000000;fill-opacity:0;stroke:#000000;stroke-opacity:1" />
    <ellipse
       ry="58.57143"
       rx="25.714285"
       cy="136.64792"
       cx="174.28572"
       id="path10838"
       style="fill:#000000;fill-opacity:0;stroke:#000000;stroke-opacity:1" />
    <circle
       r="31.428572"
       cy="95.219345"
       cx="602.85712"
       id="path10840"
       style="fill:#000000;fill-opacity:0;stroke:#000000;stroke-opacity:1" />
    <circle
       r="18.571428"
       cy="73.790779"
       cx="272.85715"
       id="path10842"
       style="fill:#000000;fill-opacity:0;stroke:#000000;stroke-opacity:1" />
    <ellipse
       ry="28.571428"
       rx="22.857143"
       cy="540.93365"
       cx="320"
       id="path10844"
       style="fill:#000000;fill-opacity:0;stroke:#000000;stroke-opacity:1" />
    <ellipse
       ry="38.57143"
       rx="34.285713"
       cy="625.21936"
       cx="405.71429"
       id="path10846"
       style="fill:#000000;fill-opacity:0;stroke:#000000;stroke-opacity:1" />
    <circle
       r="28.571428"
       cy="758.07648"
       cx="305.71429"
       id="path10848"
       style="fill:#000000;fill-opacity:0;stroke:#000000;stroke-opacity:1" />
    <ellipse
       ry="38.57143"
       rx="24.285715"
       cy="950.93365"
       cx="370"
       id="path10850"
       style="fill:#000000;fill-opacity:0;stroke:#000000;stroke-opacity:1" />
    <ellipse
       ry="32.857143"
       rx="34.285713"
       cy="962.36218"
       cx="660"
       id="path10852"
       style="fill:#000000;fill-opacity:0;stroke:#000000;stroke-opacity:1" />
    <ellipse
       ry="18.571428"
       rx="54.285713"
       cy="1002.3622"
       cx="225.71428"
       id="path10854"
       style="fill:#000000;fill-opacity:0;stroke:#000000;stroke-opacity:1" />
    <ellipse
       ry="30"
       rx="20"
       cy="976.64795"
       cx="65.714287"
       id="path10856"
       style="fill:#000000;fill-opacity:0;stroke:#000000;stroke-opacity:1" />
    <ellipse
       ry="27.142857"
       rx="28.571428"
       cy="616.64795"
       cx="134.28572"
       id="path10858"
       style="fill:#000000;fill-opacity:0;stroke:#000000;stroke-opacity:1" />
    <ellipse
       ry="44.285713"
       rx="34.285713"
       cy="216.64792"
       cx="674.28571"
       id="path10860"
       style="fill:#000000;fill-opacity:0;stroke:#000000;stroke-opacity:1" />
    <ellipse
       ry="30"
       rx="17.142857"
       cy="73.790779"
       cx="685.71429"
       id="path10862"
       style="fill:#000000;fill-opacity:0;stroke:#000000;stroke-opacity:1" />
    <ellipse
       ry="37.142857"
       rx="28.571428"
       cy="989.50507"
       cx="471.42856"
       id="path10864"
       style="fill:#000000;fill-opacity:0;stroke:#000000;stroke-opacity:1" />
    <rect
       y="498.07648"
       x="197.14285"
       height="45.714287"
       width="60"
       id="rect10866"
       style="fill:#000000;fill-opacity:0;stroke:#000000;stroke-opacity:1" />
    <rect
       y="320.93362"
       x="428.57144"
       height="45.714287"
       width="45.714287"
       id="rect10868"
       style="fill:#000000;fill-opacity:0;stroke:#000000;stroke-opacity:1" />
    <rect
       y="46.647919"
       x="502.85715"
       height="37.142857"
       width="48.57143"
       id="rect10870"
       style="fill:#000000;fill-opacity:0;stroke:#000000;stroke-opacity:1" />
    <rect
       y="26.647919"
       x="142.85715"
       height="28.571428"
       width="71.428574"
       id="rect10872"
       style="fill:#000000;fill-opacity:0;stroke:#000000;stroke-opacity:1" />
    <rect
       y="623.79077"
       x="668.57141"
       height="85.714287"
       width="42.857143"
       id="rect10874"
       style="fill:#000000;fill-opacity:0;stroke:#000000;stroke-opacity:1" />
    <rect
       y="695.21936"
       x="468.57144"
       height="42.857143"
       width="77.14286"
       id="rect10876"
       style="fill:#000000;fill-opacity:0;stroke:#000000;stroke-opacity:1" />
    <rect
       y="812.36218"
       x="691.42859"
       height="97.14286"
       width="22.857143"
       id="rect10878"
       style="fill:#000000;fill-opacity:0;stroke:#000000;stroke-opacity:1" />
    <rect
       y="755.21936"
       x="54.285713"
       height="71.428574"
       width="60"
       id="rect10880"
       style="fill:#000000;fill-opacity:0;stroke:#000000;stroke-opacity:1" />
    <rect
       y="218.07649"
       x="28.571428"
       height="145.71428"
       width="40"
       id="rect10882"
       style="fill:#000000;fill-opacity:0;stroke:#000000;stroke-opacity:1" />
    <rect
       y="838.07648"
       x="308.57144"
       height="40"
       width="54.285713"
       id="rect10884"
       style="fill:#000000;fill-opacity:0;stroke:#000000;stroke-opacity:1" />
    <path
       id="path10886"
       d="M 304.52539 437.74609 C 303.0325 437.73491 301.52074 437.84218 300 438.07617 C 288.13748 439.90144 278.72675 449.32743 276.73828 460.7168 L 286.05664 462.83398 C 287.11965 455.3202 293.22696 448.99819 300.95312 447.59961 C 311.98282 445.60303 322.41955 453.65632 324.28516 464.50586 C 326.40497 476.83379 317.3842 488.45646 305.23828 490.45703 C 291.6124 492.70137 278.80059 482.70999 276.66602 469.26758 C 276.20353 466.35506 276.25611 463.47855 276.73828 460.7168 L 267.37695 458.5918 C 266.67413 462.42267 266.591 466.36289 267.14258 470.21875 C 269.80745 488.84786 287.37527 502.73022 306.19141 499.98047 C 323.52377 497.44755 336.43122 481.07146 333.80859 463.55273 C 331.63304 449.02042 318.95664 437.85422 304.52539 437.74609 z M 286.05664 462.83398 C 285.80525 464.61092 285.83277 466.4533 286.19141 468.31445 C 287.78259 476.57182 295.85351 482.69002 304.28516 480.93359 C 311.24693 479.48336 316.40368 472.58807 314.76172 465.45703 C 313.45691 459.79027 307.73233 455.59021 301.9043 457.125 C 298.31505 458.07022 295.48175 461.31665 295.37695 464.94922 L 302.85742 466.64844 C 302.71417 465.21591 304.71767 465.74839 305.23828 466.41016 C 306.64911 468.20349 305.11997 470.6385 303.33398 471.41016 C 300.13927 472.79047 296.69719 470.441 295.71484 467.36133 C 295.45657 466.55162 295.35408 465.74206 295.37695 464.94922 L 286.05664 462.83398 z "
       style="fill:none;fill-rule:evenodd;stroke:#000000;stroke-width:1px;stroke-linecap:butt;stroke-linejoin:miter;stroke-opacity:1" />
  </g>
</svg>
