<svg xmlns="http://www.w3.org/2000/svg" xmlns:xlink="http://www.w3.org/1999/xlink" viewBox="0 0 1000 1000" preserveAspectRatio="xMidYMid meet" ><defs id="svgEditorDefs"><path id="svgEditorClosePathDefs" stroke="black" fill="white" style="stroke-width: 1px; vector-effect: non-scaling-stroke;"/></defs><rect id="svgEditorBackground" x="0" y="0" width="1000" height="1000" style="fill: none; stroke: none;"/><path d="M4.35,0l-3.725,-3.725c-0.6250000000000004,-0.6250000000000004,-1.875,0.625,-1.2500000000000004,1.25l2.5000000000000004,2.5l-2.5000000000000004,2.5c-0.6249999999999999,0.625,0.6250000000000004,1.8750000000000004,1.2500000000000004,1.25l3.725,-3.725ZM0.6250000000000004,0l-3.7250000000000005,-3.725c-0.625,-0.6250000000000004,-1.8749999999999996,0.625,-1.2499999999999996,1.25l2.5,2.5l-2.5,2.5c-0.625,0.625,0.625,1.8750000000000004,1.25,1.25l3.725,-3.725Z" stroke="black" id="e40_shape" style="vector-effect: non-scaling-stroke; stroke-width: 1px;" transform="matrix(11.4764 0 0 11.4764 -190.273 228.87)" fill="white"/><path d="M 4.35 0 l -3.725 -3.725 c -0.625 -0.625 -1.875 0.625 -1.25 1.25 l 2.5 2.5 l -2.5 2.5  c -0.625 0.625 0.625 1.875  1.25 1.25 l3.725 -3.725z M 0.625 0 l -3.725 -3.725 c -0.625 -0.625 -1.875 0.625 -1.25 1.25 l 2.5 2.5 l -2.5 2.5  c -0.625 0.625 0.625 1.875  1.25 1.25 l3.725 -3.725z" stroke="black" id="e41_shape" style="vector-effect: non-scaling-stroke; stroke-width: 1px;" fill="khaki" transform="matrix(0 0 0 0 -56.1404 178.947)"/><path d="M13.180326073329532,0.11679249753626664l-3.725,-3.725c-0.6250000000000006,-0.6250000000000006,-1.875,0.6250000000000001,-1.2500000000000004,1.25l2.5000000000000004,2.5l-2.5000000000000004,2.5c-0.625,0.6250000000000001,0.6250000000000006,1.8750000000000004,1.2500000000000004,1.25l3.725,-3.725ZM9.45532607332953,0.11679249753626664l-3.7250000000000005,-3.725c-0.6250000000000001,-0.6250000000000006,-1.8749999999999996,0.6250000000000001,-1.2499999999999996,1.25l2.5,2.5l-2.5,2.5c-0.6250000000000001,0.6250000000000001,0.6250000000000001,1.8750000000000004,1.25,1.25l3.725,-3.725Z" stroke="black" id="e42_shape" style="vector-effect: non-scaling-stroke; stroke-width: 1px;" transform="matrix(11.4764 0 0 11.4764 -190.273 228.87)" fill="white"/><path d="M21.85778313350006,0.23358499507252972l-3.725,-3.725c-0.6250000000000007,-0.6250000000000007,-1.875,0.6250000000000002,-1.2500000000000004,1.25l2.5000000000000004,2.5l-2.5000000000000004,2.5c-0.6250000000000001,0.6250000000000002,0.6250000000000007,1.8750000000000004,1.2500000000000004,1.25l3.725,-3.725ZM18.13278313350006,0.23358499507252972l-3.7250000000000005,-3.725c-0.6250000000000002,-0.6250000000000007,-1.8749999999999996,0.6250000000000002,-1.2499999999999996,1.25l2.5,2.5l-2.5,2.5c-0.6250000000000002,0.6250000000000002,0.6250000000000002,1.8750000000000004,1.25,1.25l3.725,-3.725Z" stroke="black" id="e43_shape" style="vector-effect: non-scaling-stroke; stroke-width: 1px;" transform="matrix(11.4764 0 0 11.4764 -190.273 228.87)" fill="white"/><path d="M30.688109206829598,0.19750847944978034l-3.725,-3.725c-0.6250000000000008,-0.6250000000000008,-1.875,0.6250000000000003,-1.2500000000000004,1.25l2.5000000000000004,2.5l-2.5000000000000004,2.5c-0.6250000000000002,0.6250000000000003,0.6250000000000008,1.8750000000000004,1.2500000000000004,1.25l3.725,-3.725ZM26.96310920682959,0.19750847944978034l-3.7250000000000005,-3.725c-0.6250000000000003,-0.6250000000000008,-1.8749999999999996,0.6250000000000003,-1.2499999999999996,1.25l2.5,2.5l-2.5,2.5c-0.6250000000000003,0.6250000000000003,0.6250000000000003,1.8750000000000004,1.25,1.25l3.725,-3.725Z" stroke="black" id="e44_shape" style="vector-effect: non-scaling-stroke; stroke-width: 1px;" transform="matrix(11.4764 0 0 11.4764 -190.273 228.87)" fill="white"/><path d="M74.2197005701732,35.932780345954214l-3.725,-3.725c-0.6250000000000009,-0.6250000000000009,-1.875,0.6250000000000004,-1.2500000000000004,1.25l2.5000000000000004,2.5l-2.5000000000000004,2.5c-0.6250000000000003,0.6250000000000004,0.6250000000000009,1.8750000000000004,1.2500000000000004,1.25l3.725,-3.725ZM70.49470057017318,35.932780345954214l-3.7250000000000005,-3.725c-0.6250000000000004,-0.6250000000000009,-1.8749999999999996,0.6250000000000004,-1.2499999999999996,1.25l2.5,2.5l-2.5,2.5c-0.6250000000000004,0.6250000000000004,0.6250000000000004,1.8750000000000004,1.25,1.25l3.725,-3.725Z" stroke="black" id="e45_shape" style="vector-effect: non-scaling-stroke; stroke-width: 1px;" transform="matrix(-0.200965 -11.4746 11.4746 -0.200965 209.369 1446.91)" fill="white"/><path d="M82.28925606460989,35.72801323972266l-3.725,-3.725c-0.625000000000001,-0.625000000000001,-1.875,0.6250000000000006,-1.2500000000000004,1.25l2.5000000000000004,2.5l-2.5000000000000004,2.5c-0.6250000000000004,0.6250000000000006,0.625000000000001,1.8750000000000004,1.2500000000000004,1.25l3.725,-3.725ZM78.56425606460986,35.72801323972266l-3.7250000000000005,-3.725c-0.6250000000000006,-0.625000000000001,-1.8749999999999996,0.6250000000000006,-1.2499999999999996,1.25l2.5,2.5l-2.5,2.5c-0.6250000000000006,0.6250000000000006,0.6250000000000006,1.8750000000000004,1.25,1.25l3.725,-3.725Z" stroke="black" id="e46_shape" style="vector-effect: non-scaling-stroke; stroke-width: 1px;" transform="matrix(-0.200965 -11.4746 11.4746 -0.200965 209.369 1446.91)" fill="white"/><path d="M89.90027320780462,35.51521533774324l-3.725,-3.725c-0.6250000000000011,-0.6250000000000011,-1.875,0.6250000000000007,-1.2500000000000004,1.25l2.5000000000000004,2.5l-2.5000000000000004,2.5c-0.6250000000000006,0.6250000000000007,0.6250000000000011,1.8750000000000004,1.2500000000000004,1.25l3.725,-3.725ZM86.1752732078046,35.51521533774324l-3.7250000000000005,-3.725c-0.6250000000000007,-0.6250000000000011,-1.8749999999999996,0.6250000000000007,-1.2499999999999996,1.25l2.5,2.5l-2.5,2.5c-0.6250000000000007,0.6250000000000007,0.6250000000000007,1.8750000000000004,1.25,1.25l3.725,-3.725Z" stroke="black" id="e47_shape" style="vector-effect: non-scaling-stroke; stroke-width: 1px;" transform="matrix(-0.200965 -11.4746 11.4746 -0.200965 209.369 1446.91)" fill="white"/><path d="M97.66145953616397,35.45794048476045l-3.725,-3.725c-0.6250000000000012,-0.6250000000000012,-1.875,0.6250000000000008,-1.2500000000000004,1.25l2.5000000000000004,2.5l-2.5000000000000004,2.5c-0.6250000000000007,0.6250000000000008,0.6250000000000012,1.8750000000000004,1.2500000000000004,1.25l3.725,-3.725ZM93.93645953616395,35.45794048476045l-3.7250000000000005,-3.725c-0.6250000000000008,-0.6250000000000012,-1.8749999999999996,0.6250000000000008,-1.2499999999999996,1.25l2.5,2.5l-2.5,2.5c-0.6250000000000008,0.6250000000000008,0.6250000000000008,1.8750000000000004,1.25,1.25l3.725,-3.725Z" stroke="black" id="e48_shape" style="vector-effect: non-scaling-stroke; stroke-width: 1px;" transform="matrix(-0.200965 -11.4746 11.4746 -0.200965 209.369 1446.91)" fill="white"/><path d="M115.20531918528678,53.00180013388326l-3.725,-3.725c-0.6250000000000013,-0.6250000000000013,-1.875,0.6250000000000009,-1.2500000000000004,1.25l2.5000000000000004,2.5l-2.5000000000000004,2.5c-0.6250000000000008,0.6250000000000009,0.6250000000000013,1.8750000000000004,1.2500000000000004,1.25l3.725,-3.725ZM111.48031918528676,53.00180013388326l-3.7250000000000005,-3.725c-0.6250000000000009,-0.6250000000000013,-1.8749999999999996,0.6250000000000009,-1.2499999999999996,1.25l2.5,2.5l-2.5,2.5c-0.6250000000000009,0.6250000000000009,0.6250000000000009,1.8750000000000004,1.25,1.25l3.725,-3.725Z" stroke="black" id="e49_shape" style="vector-effect: non-scaling-stroke; stroke-width: 1px;" transform="matrix(-11.465 0.51095 -0.51095 -11.465 2395.34 728.06)" fill="white"/><path d="M123.11303835978333,53.283903215569026l-3.725,-3.725c-0.6250000000000014,-0.6250000000000014,-1.875,0.625000000000001,-1.2500000000000004,1.25l2.5000000000000004,2.5l-2.5000000000000004,2.5c-0.6250000000000009,0.625000000000001,0.6250000000000014,1.8750000000000004,1.2500000000000004,1.25l3.725,-3.725ZM119.38803835978331,53.283903215569026l-3.7250000000000005,-3.725c-0.625000000000001,-0.6250000000000014,-1.8749999999999996,0.625000000000001,-1.2499999999999996,1.25l2.5,2.5l-2.5,2.5c-0.625000000000001,0.625000000000001,0.625000000000001,1.8750000000000004,1.25,1.25l3.725,-3.725Z" stroke="black" id="e50_shape" style="vector-effect: non-scaling-stroke; stroke-width: 1px;" transform="matrix(-11.465 0.51095 -0.51095 -11.465 2395.34 728.06)" fill="white"/><path d="M131.0275635616143,53.41328859666696l-3.725,-3.725c-0.6250000000000016,-0.6250000000000016,-1.875,0.6250000000000011,-1.2500000000000004,1.25l2.5000000000000004,2.5l-2.5000000000000004,2.5c-0.625000000000001,0.6250000000000011,0.6250000000000016,1.8750000000000004,1.2500000000000004,1.25l3.725,-3.725ZM127.30256356161428,53.41328859666696l-3.7250000000000005,-3.725c-0.6250000000000011,-0.6250000000000016,-1.8749999999999996,0.6250000000000011,-1.2499999999999996,1.25l2.5,2.5l-2.5,2.5c-0.6250000000000011,0.6250000000000011,0.6250000000000011,1.8750000000000004,1.25,1.25l3.725,-3.725Z" stroke="black" id="e51_shape" style="vector-effect: non-scaling-stroke; stroke-width: 1px;" transform="matrix(-11.465 0.51095 -0.51095 -11.465 2395.34 728.06)" fill="white"/><path d="M139.09480646403307,53.54948000509914l-3.725,-3.725c-0.6250000000000017,-0.6250000000000017,-1.875,0.6250000000000012,-1.2500000000000004,1.25l2.5000000000000004,2.5l-2.5000000000000004,2.5c-0.6250000000000011,0.6250000000000012,0.6250000000000017,1.8750000000000004,1.2500000000000004,1.25l3.725,-3.725ZM135.36980646403305,53.54948000509914l-3.7250000000000005,-3.725c-0.6250000000000012,-0.6250000000000017,-1.8749999999999996,0.6250000000000012,-1.2499999999999996,1.25l2.5,2.5l-2.5,2.5c-0.6250000000000012,0.6250000000000012,0.6250000000000012,1.8750000000000004,1.25,1.25l3.725,-3.725Z" stroke="black" id="e52_shape" style="vector-effect: non-scaling-stroke; stroke-width: 1px;" transform="matrix(-11.465 0.51095 -0.51095 -11.465 2395.34 728.06)" fill="white"/><path d="M89.52551811337811,-2.062714941317573l-3.725,-3.725c-0.625000000000001,-0.625000000000001,-1.875,0.6250000000000006,-1.2500000000000004,1.25l2.5000000000000004,2.5l-2.5000000000000004,2.5c-0.6250000000000004,0.6250000000000006,0.625000000000001,1.8750000000000004,1.2500000000000004,1.25l3.725,-3.725ZM85.80051811337809,-2.062714941317573l-3.7250000000000005,-3.725c-0.6250000000000006,-0.625000000000001,-1.8749999999999996,0.6250000000000006,-1.2499999999999996,1.25l2.5,2.5l-2.5,2.5c-0.6250000000000006,0.6250000000000006,0.6250000000000006,1.8750000000000004,1.25,1.25l3.725,-3.725Z" stroke="black" id="e53_shape" style="vector-effect: non-scaling-stroke; stroke-width: 1px;" transform="matrix(-0.163131 11.4752 -11.4752 -0.163131 159.393 -500.602)" fill="white"/><path d="M97.18750431776411,-2.1130354725477005l-3.725,-3.725c-0.6250000000000011,-0.6250000000000011,-1.875,0.6250000000000007,-1.2500000000000004,1.25l2.5000000000000004,2.5l-2.5000000000000004,2.5c-0.6250000000000006,0.6250000000000007,0.6250000000000011,1.8750000000000004,1.2500000000000004,1.25l3.725,-3.725ZM93.46250431776409,-2.1130354725477005l-3.7250000000000005,-3.725c-0.6250000000000007,-0.6250000000000011,-1.8749999999999996,0.6250000000000007,-1.2499999999999996,1.25l2.5,2.5l-2.5,2.5c-0.6250000000000007,0.6250000000000007,0.6250000000000007,1.8750000000000004,1.25,1.25l3.725,-3.725Z" stroke="black" id="e54_shape" style="vector-effect: non-scaling-stroke; stroke-width: 1px;" transform="matrix(-0.163131 11.4752 -11.4752 -0.163131 159.393 -500.602)" fill="white"/><path d="M105.00234455113899,-2.165529057933222l-3.725,-3.725c-0.6250000000000012,-0.6250000000000012,-1.875,0.6250000000000008,-1.2500000000000004,1.25l2.5000000000000004,2.5l-2.5000000000000004,2.5c-0.6250000000000007,0.6250000000000008,0.6250000000000012,1.8750000000000004,1.2500000000000004,1.25l3.725,-3.725ZM101.27734455113897,-2.165529057933222l-3.7250000000000005,-3.725c-0.6250000000000008,-0.6250000000000012,-1.8749999999999996,0.6250000000000008,-1.2499999999999996,1.25l2.5,2.5l-2.5,2.5c-0.6250000000000008,0.6250000000000008,0.6250000000000008,1.8750000000000004,1.25,1.25l3.725,-3.725Z" stroke="black" id="e55_shape" style="vector-effect: non-scaling-stroke; stroke-width: 1px;" transform="matrix(-0.163131 11.4752 -11.4752 -0.163131 159.393 -500.602)" fill="white"/><path d="M112.8215307210481,-1.9123144086101043l-3.725,-3.725c-0.6250000000000013,-0.6250000000000013,-1.875,0.6250000000000009,-1.2500000000000004,1.25l2.5000000000000004,2.5l-2.5000000000000004,2.5c-0.6250000000000008,0.6250000000000009,0.6250000000000013,1.8750000000000004,1.2500000000000004,1.25l3.725,-3.725ZM109.09653072104808,-1.9123144086101043l-3.7250000000000005,-3.725c-0.6250000000000009,-0.6250000000000013,-1.8749999999999996,0.6250000000000009,-1.2499999999999996,1.25l2.5,2.5l-2.5,2.5c-0.6250000000000009,0.6250000000000009,0.6250000000000009,1.8750000000000004,1.25,1.25l3.725,-3.725Z" stroke="black" id="e56_shape" style="vector-effect: non-scaling-stroke; stroke-width: 1px;" transform="matrix(-0.163131 11.4752 -11.4752 -0.163131 159.393 -500.602)" fill="white"/><path d="M3.1518989984885053,6.227848247314917h0a5,5,0,0,1,2,-4a5,5,0,0,1,-2,-4a4.61,4.61,0,0,0,1,4a4.61,4.61,0,0,0,-1,4Z" stroke="black" id="e57_shape" style="vector-effect: non-scaling-stroke; stroke-width: 1px;" transform="matrix(17.3246 0 0 17.3246 8.74187 444.737)" fill="white"/><path d="M3.278076151457144,16.480584961538984h0a5,5,0,0,1,2,-4a5,5,0,0,1,-2,-4a4.61,4.61,0,0,0,1,4a4.61,4.61,0,0,0,-1,4Z" stroke="black" id="e58_shape" style="vector-effect: non-scaling-stroke; stroke-width: 1px;" transform="matrix(17.3246 0 0 17.3246 8.74187 444.737)" fill="white"/><path d="M19.910545419287253,10.935888746351434h0a5,5,0,0,1,2,-4a5,5,0,0,1,-2,-4a4.61,4.61,0,0,0,1,4a4.61,4.61,0,0,0,-1,4Z" stroke="black" id="e59_shape" style="vector-effect: non-scaling-stroke; stroke-width: 1px;" transform="matrix(-17.3206 -0.371402 0.371402 -17.3206 623.41 617.302)" fill="white"/><path d="M19.84650291513595,0.9015524351693642h0a5,5,0,0,1,2,-4a5,5,0,0,1,-2,-4a4.61,4.61,0,0,0,1,4a4.61,4.61,0,0,0,-1,4Z" stroke="black" id="e60_shape" style="vector-effect: non-scaling-stroke; stroke-width: 1px;" transform="matrix(-17.3206 -0.371402 0.371402 -17.3206 623.41 617.302)" fill="white"/><path d="M27.480553592902996,3.0122607265984094h0a5,5,0,0,1,2,-4a5,5,0,0,1,-2,-4a4.61,4.61,0,0,0,1,4a4.61,4.61,0,0,0,-1,4Z" stroke="black" id="e61_shape" style="vector-effect: non-scaling-stroke; stroke-width: 1px;" transform="matrix(17.3246 0 0 17.3246 8.74187 444.737)" fill="white"/><path d="M27.80926194171446,13.264997440822466h0a5,5,0,0,1,2,-4a5,5,0,0,1,-2,-4a4.61,4.61,0,0,0,1,4a4.61,4.61,0,0,0,-1,4Z" stroke="black" id="e62_shape" style="vector-effect: non-scaling-stroke; stroke-width: 1px;" transform="matrix(17.3246 0 0 17.3246 8.74187 444.737)" fill="white"/><path d="M-4.8673030042239915,15.10549765611643h0a5,5,0,0,1,2,-4a5,5,0,0,1,-2,-4a4.61,4.61,0,0,0,1,4a4.61,4.61,0,0,0,-1,4Z" stroke="black" id="e63_shape" style="vector-effect: non-scaling-stroke; stroke-width: 1px;" transform="matrix(-17.3206 -0.371402 0.371402 -17.3206 623.41 617.302)" fill="white"/><path d="M-5.543141942039988,4.881701886994755h0a5,5,0,0,1,2,-4a5,5,0,0,1,-2,-4a4.61,4.61,0,0,0,1,4a4.61,4.61,0,0,0,-1,4Z" stroke="black" id="e64_shape" style="vector-effect: non-scaling-stroke; stroke-width: 1px;" transform="matrix(-17.3206 -0.371402 0.371402 -17.3206 623.41 617.302)" fill="white"/><path d="M12.00071770708282,22.425561536117563h0a5,5,0,0,1,2,-4a5,5,0,0,1,-2,-4a4.61,4.61,0,0,0,1,4a4.61,4.61,0,0,0,-1,4Z" stroke="black" id="e65_shape" style="vector-effect: non-scaling-stroke; stroke-width: 1px;" transform="matrix(0.382123 -17.3204 17.3204 0.382123 750.42 475.468)" fill="white"/><path d="M11.822869166708653,12.606896364878054h0a5,5,0,0,1,2,-4a5,5,0,0,1,-2,-4a4.61,4.61,0,0,0,1,4a4.61,4.61,0,0,0,-1,4Z" stroke="black" id="e66_shape" style="vector-effect: non-scaling-stroke; stroke-width: 1px;" transform="matrix(0.382123 -17.3204 17.3204 0.382123 750.42 475.468)" fill="white"/><path d="M29.36672881583146,30.150756014000862h0a5,5,0,0,1,2,-4a5,5,0,0,1,-2,-4a4.61,4.61,0,0,0,1,4a4.61,4.61,0,0,0,-1,4Z" stroke="black" id="e67_shape" style="vector-effect: non-scaling-stroke; stroke-width: 1px;" transform="matrix(0.382123 -17.3204 17.3204 0.382123 750.42 475.468)" fill="white"/><path d="M-7.342152280732215,20.82905711764287h0a5,5,0,0,1,2,-4a5,5,0,0,1,-2,-4a4.61,4.61,0,0,0,1,4a4.61,4.61,0,0,0,-1,4Z" stroke="black" id="e68_shape" style="vector-effect: non-scaling-stroke; stroke-width: 1px;" transform="matrix(-0.139911 17.324 -17.324 -0.139911 1373.92 202.408)" fill="white"/><path d="M-6.972991399937474,30.916438919426547h0a5,5,0,0,1,2,-4a5,5,0,0,1,-2,-4a4.61,4.61,0,0,0,1,4a4.61,4.61,0,0,0,-1,4Z" stroke="black" id="e69_shape" style="vector-effect: non-scaling-stroke; stroke-width: 1px;" transform="matrix(-0.139911 17.324 -17.324 -0.139911 1373.92 202.408)" fill="white"/><path d="M-2.9424042477446495,80.5704717111412h0a5,5,0,0,1,2,-4a5,5,0,0,1,-2,-4a4.61,4.61,0,0,0,1,4a4.61,4.61,0,0,0,-1,4Z" stroke="black" id="e70_shape" style="vector-effect: non-scaling-stroke; stroke-width: 1px;" transform="matrix(-0.139911 17.324 -17.324 -0.139911 1373.92 202.408)" fill="white"/><path d="M-2.970115289274082,91.67374974650113h0a5,5,0,0,1,2,-4a5,5,0,0,1,-2,-4a4.61,4.61,0,0,0,1,4a4.61,4.61,0,0,0,-1,4Z" stroke="black" id="e71_shape" style="vector-effect: non-scaling-stroke; stroke-width: 1px;" transform="matrix(-0.139911 17.324 -17.324 -0.139911 1373.92 202.408)" fill="white"/><path d="M7.8936713550489905,-36.938591853448585h0a5,5,0,0,1,2,-4a5,5,0,0,1,-2,-4a4.61,4.61,0,0,0,1,4a4.61,4.61,0,0,0,-1,4Z" stroke="black" id="e72_shape" style="vector-effect: non-scaling-stroke; stroke-width: 1px;" transform="matrix(0.382123 -17.3204 17.3204 0.382123 750.42 475.468)" fill="white"/><path d="M7.495472436718327,-47.562716929358885h0a5,5,0,0,1,2,-4a5,5,0,0,1,-2,-4a4.61,4.61,0,0,0,1,4a4.61,4.61,0,0,0,-1,4Z" stroke="black" id="e73_shape" style="vector-effect: non-scaling-stroke; stroke-width: 1px;" transform="matrix(0.382123 -17.3204 17.3204 0.382123 750.42 475.468)" fill="white"/><path d="M610.5263160000001,285.964912a113.737332,113.737332,0,0,1,47.36842100000001,-80.70175399999997" stroke="black" id="e75_circleArc" style="fill: none; stroke-width: 1px; vector-effect: non-scaling-stroke;"/><path d="M366.6666666491228,261.40350764912284a113.737332,113.737332,0,0,1,47.36842100000001,-80.70175399999997" stroke="black" id="e76_circleArc" style="fill: none; stroke-width: 1px; vector-effect: non-scaling-stroke;" transform="matrix(-0.627836 0.778346 -0.778346 -0.627836 986.43 77.0621)"/><path d="M238.59649064912287,917.5438586491227a113.737332,113.737332,0,0,1,47.36842100000001,-80.70175399999997" stroke="black" id="e77_circleArc" style="fill: none; stroke-width: 1px; vector-effect: non-scaling-stroke;" transform="matrix(-0.999828 0.0185698 -0.0185698 -0.999828 407.472 1728.31)"/><path d="M1045.8680347537106,135.1762637851146a113.737332,113.737332,0,0,1,47.36842100000001,-80.70175399999997" stroke="black" id="e78_circleArc" style="fill: none; stroke-width: 1px; vector-effect: non-scaling-stroke;" transform="matrix(0.626975 -0.77904 0.77904 0.626975 -554.213 1627.29)"/><path d="M131.77159957294242,1477.6989008826297a113.737332,113.737332,0,0,1,47.36842100000001,-80.70175399999997" stroke="black" id="e79_circleArc" style="fill: none; stroke-width: 1px; vector-effect: non-scaling-stroke;" transform="matrix(-0.0594051 0.998234 -0.998234 -0.0594051 1667.41 197.198)"/><path d="M1602.7510714197733,-264.25497242938843a113.737332,113.737332,0,0,1,47.36842100000001,-80.70175399999997" stroke="black" id="e80_circleArc" style="fill: none; stroke-width: 1px; vector-effect: non-scaling-stroke;" transform="matrix(-0.857824 -0.513944 0.513944 -0.857824 1777.18 767.555)"/><path d="M1194.9963370892506,6.050805614888503a113.737332,113.737332,0,0,1,47.36842100000001,-80.70175399999997" stroke="black" id="e81_circleArc" style="fill: none; stroke-width: 1px; vector-effect: non-scaling-stroke;" transform="matrix(0.762021 0.647552 -0.647552 0.762021 -240.242 -548.518)"/><path d="M1096.386903984504,-48.06904111499169a113.737332,113.737332,0,0,1,47.36842100000001,-80.70175399999997" stroke="black" id="e82_circleArc" style="fill: none; stroke-width: 1px; vector-effect: non-scaling-stroke;" transform="matrix(-0.103897 -0.994588 0.994588 -0.103897 916.951 1263.35)"/><path d="M4.375,0.6250000000000004c0.25,-0.6250000000000004,0.25,-0.6250000000000004,0,-1.2500000000000004l-1.25,-2.5a0.7500000000000004,1,0,0,0,-1.25,0.20000000000000018v1.3250000000000002a0.3000000000000002,0.3000000000000002,0,0,1,-1.25,0l-0.40000000000000013,-2a0.6000000000000004,0.6000000000000004,0,0,0,-0.40000000000000024,-0.3999999999999999h-3.75a0.6000000000000004,0.8,0,0,0,-0.5000000000000004,1.1l1.7999999999999998,2.25c0.25,0.6250000000000007,0.25,0.6250000000000007,0,1.2500000000000009l-1.7999999999999998,2.25a0.6000000000000004,0.8,0,0,0,0.5,1.1h3.75a0.6000000000000004,0.6000000000000004,0,0,0,0.40000000000000024,-0.3999999999999999l0.40000000000000024,-2a0.3000000000000002,0.3000000000000002,0,0,1,1.2499999999999998,0v1.3250000000000002a0.7500000000000004,1,0,0,0,1.2499999999999996,0.20000000000000018l1.25,-2.5Z" stroke="black" id="e83_shape" style="vector-effect: non-scaling-stroke; stroke-width: 1px;" transform="matrix(-0.131066 8.26243 -8.26243 -0.131066 604.94 738.693)" fill="white"/><path d="M-37.81963999399518,53.726751451282894c0.25,-0.6250000000000006,0.25,-0.6250000000000006,0,-1.2500000000000004l-1.25,-2.5a0.7500000000000006,1,0,0,0,-1.25,0.2000000000000002v1.3250000000000002a0.30000000000000027,0.30000000000000027,0,0,1,-1.25,0l-0.4000000000000002,-2a0.6000000000000005,0.6000000000000005,0,0,0,-0.4000000000000003,-0.4h-3.75a0.6000000000000005,0.8,0,0,0,-0.5000000000000004,1.1l1.7999999999999998,2.25c0.25,0.6250000000000008,0.25,0.6250000000000008,0,1.2500000000000009l-1.7999999999999998,2.25a0.6000000000000005,0.8,0,0,0,0.5,1.1h3.75a0.6000000000000005,0.6000000000000005,0,0,0,0.4000000000000003,-0.4l0.4000000000000003,-2a0.30000000000000027,0.30000000000000027,0,0,1,1.2499999999999998,0v1.3250000000000002a0.7500000000000006,1,0,0,0,1.2499999999999996,0.2000000000000002l1.25,-2.5Z" stroke="black" id="e84_shape" style="vector-effect: non-scaling-stroke; stroke-width: 1px;" transform="matrix(0.0680181 -8.26319 8.26319 0.0680181 -263.799 31.8901)" fill="white"/><path d="M-20.275780344872373,71.2706111004057c0.25,-0.6250000000000007,0.25,-0.6250000000000007,0,-1.2500000000000004l-1.25,-2.5a0.7500000000000007,1,0,0,0,-1.25,0.2000000000000002v1.3250000000000002a0.3000000000000003,0.3000000000000003,0,0,1,-1.25,0l-0.40000000000000024,-2a0.6000000000000006,0.6000000000000006,0,0,0,-0.4000000000000003,-0.4h-3.75a0.6000000000000006,0.8,0,0,0,-0.5000000000000004,1.1l1.7999999999999998,2.25c0.25,0.6250000000000009,0.25,0.6250000000000009,0,1.2500000000000009l-1.7999999999999998,2.25a0.6000000000000006,0.8,0,0,0,0.5,1.1h3.75a0.6000000000000006,0.6000000000000006,0,0,0,0.4000000000000003,-0.4l0.4000000000000003,-2a0.3000000000000003,0.3000000000000003,0,0,1,1.2499999999999998,0v1.3250000000000002a0.7500000000000007,1,0,0,0,1.2499999999999996,0.2000000000000002l1.25,-2.5Z" stroke="black" id="e85_shape" style="vector-effect: non-scaling-stroke; stroke-width: 1px;" transform="matrix(-8.26135 0.187015 -0.187015 -8.26135 -480.605 817.353)" fill="white"/><path d="M-199.46146820761135,73.74300149538331c0.25,-0.6250000000000008,0.25,-0.6250000000000008,0,-1.2500000000000004l-1.25,-2.5a0.7500000000000008,1,0,0,0,-1.25,0.2000000000000002v1.3250000000000002a0.3000000000000003,0.3000000000000003,0,0,1,-1.25,0l-0.4000000000000003,-2a0.6000000000000006,0.6000000000000006,0,0,0,-0.4000000000000003,-0.4h-3.75a0.6000000000000006,0.8,0,0,0,-0.5000000000000004,1.1l1.7999999999999998,2.25c0.25,0.625000000000001,0.25,0.625000000000001,0,1.2500000000000009l-1.7999999999999998,2.25a0.6000000000000006,0.8,0,0,0,0.5,1.1h3.75a0.6000000000000006,0.6000000000000006,0,0,0,0.4000000000000003,-0.4l0.4000000000000003,-2a0.3000000000000003,0.3000000000000003,0,0,1,1.2499999999999998,0v1.3250000000000002a0.7500000000000008,1,0,0,0,1.2499999999999996,0.2000000000000002l1.25,-2.5Z" stroke="black" id="e86_shape" style="vector-effect: non-scaling-stroke; stroke-width: 1px;" transform="matrix(8.26277 0.107547 -0.107547 8.26277 2880.75 -406.637)" fill="white"/></svg>
