<svg id="svg5636" xmlns:inkscape="http://www.inkscape.org/namespaces/inkscape" xmlns:rdf="http://www.w3.org/1999/02/22-rdf-syntax-ns#" xmlns="http://www.w3.org/2000/svg" sodipodi:docname="circles.svg"  version="1.1" xmlns:cc="http://creativecommons.org/ns#" xmlns:dc="http://purl.org/dc/elements/1.1/" inkscape:version="0.91 r13725" viewBox="0 0 999.99999 1000" xmlns:sodipodi="http://sodipodi.sourceforge.net/DTD/sodipodi-0.dtd">
 <g id="layer1" inkscape:label="Layer 1" inkscape:groupmode="layer" transform="translate(0 -52.362)">
  <ellipse id="path5644" style="color-rendering:auto;fill-opacity:0;color:#000000;shape-rendering:auto;solid-color:#000000;stroke:#000;stroke-width:3;mix-blend-mode:normal;image-rendering:auto;isolation:auto" rx="74.286" ry="67.143" cy="196.65" cx="197.14"/>
  <circle id="path6186" r="38.571" style="color-rendering:auto;fill-opacity:0;color:#000000;shape-rendering:auto;solid-color:#000000;stroke:#000;stroke-width:3;mix-blend-mode:normal;image-rendering:auto;isolation:auto" cx="367.14" cy="128.08"/>
  <ellipse id="path6188" style="color-rendering:auto;fill-opacity:0;color:#000000;shape-rendering:auto;solid-color:#000000;stroke:#000;stroke-width:3;mix-blend-mode:normal;image-rendering:auto;isolation:auto" rx="64.286" ry="71.429" cy="229.51" cx="578.57"/>
  <circle id="path6190" r="74.286" style="fill-opacity:0;stroke:#000;stroke-width:3" cx="308.57" cy="503.79"/>
  <ellipse id="path6192" style="fill-opacity:0;stroke:#000;stroke-width:3" rx="40" ry="44.286" cy="316.65" cx="397.14"/>
  <ellipse id="path6194" style="fill-opacity:0;stroke:#000;stroke-width:3" rx="32.857" ry="31.429" cy="126.65" cx="795.71"/>
  <ellipse id="path6196" style="fill-opacity:0;stroke:#000;stroke-width:3" rx="84.286" ry="71.429" cy="435.22" cx="618.57"/>
  <ellipse id="path6198" style="fill-opacity:0;stroke:#000;stroke-width:3" rx="58.571" ry="57.143" cy="278.08" cx="730"/>
  <ellipse id="path6200" style="fill-opacity:0;stroke:#000;stroke-width:3" rx="77.143" ry="54.286" cy="395.22" cx="114.29"/>
  <ellipse id="path6202" style="fill-opacity:0;stroke:#000;stroke-width:3" rx="21.429" ry="25.714" cy="115.22" cx="44.286"/>
  <ellipse id="path6204" style="fill-opacity:0;stroke:#000;stroke-width:3" rx="47.143" ry="37.143" cy="343.79" cx="261.43"/>
  <ellipse id="path6206" style="fill-opacity:0;stroke:#000;stroke-width:3" rx="25.714" ry="87.143" cy="513.79" cx="465.71"/>
  <ellipse id="path6208" style="fill-opacity:0;stroke:#000;stroke-width:3" rx="50" ry="40" cy="123.79" cx="515.71"/>
  <ellipse id="path6210" style="fill-opacity:0;stroke:#000;stroke-width:3" rx="18.571" ry="20" cy="123.79" cx="647.14"/>
  <ellipse id="path6212" style="fill-opacity:0;stroke:#000;stroke-width:3" rx="70" ry="95.714" cy="279.51" cx="884.29"/>
  <ellipse id="path6214" style="fill-opacity:0;stroke:#000;stroke-width:3" rx="64.286" ry="110" cy="496.65" cx="827.14"/>
  <circle id="path6216" r="81.429" style="fill-opacity:0;stroke:#000;stroke-width:3" cx="632.86" cy="662.36"/>
  <ellipse id="path6218" style="fill-opacity:0;stroke:#000;stroke-width:3" rx="104.29" ry="97.143" cy="755.22" cx="315.71"/>
  <ellipse id="path6220" style="fill-opacity:0;stroke:#000;stroke-width:3" rx="45.714" ry="41.429" cy="559.51" cx="71.429"/>
  <ellipse id="path6222" style="fill-opacity:0;stroke:#000;stroke-width:3" rx="41.429" ry="34.286" cy="709.51" cx="75.714"/>
  <ellipse id="path6224" style="fill-opacity:0;stroke:#000;stroke-width:3" rx="81.429" ry="82.857" cy="929.51" cx="150"/>
  <ellipse id="path6226" style="fill-opacity:0;stroke:#000;stroke-width:3" rx="85.714" ry="74.286" cy="869.51" cx="554.29"/>
  <ellipse id="path6228" style="fill-opacity:0;stroke:#000;stroke-width:3" rx="70" ry="50" cy="956.65" cx="367.14"/>
  <ellipse id="path6230" style="fill-opacity:0;stroke:#000;stroke-width:3" rx="82.857" ry="85.714" cy="740.93" cx="842.86"/>
  <circle id="path6232" r="67.143" style="fill-opacity:0;stroke:#000;stroke-width:3" cx="747.14" cy="948.08"/>
  <ellipse id="path6234" style="fill-opacity:0;stroke:#000;stroke-width:3" rx="41.429" ry="31.429" cy="938.08" cx="915.71"/>
  <ellipse id="path6236" style="fill-opacity:0;stroke:#000;stroke-width:3" rx="17.143" ry="91.429" cy="515.22" cx="945.71"/>
  <ellipse id="path6238" style="fill-opacity:0;stroke:#000;stroke-width:3" rx="18.571" ry="17.143" cy="538.08" cx="710"/>
  <ellipse id="path6240" style="fill-opacity:0;stroke:#000;stroke-width:3" rx="21.429" ry="30" cy="693.79" cx="484.29"/>
  <ellipse id="path6242" style="fill-opacity:0;stroke:#000;stroke-width:3" rx="21.429" ry="8.5714" cy="618.08" cx="327.14"/>
  <ellipse id="path6244" style="fill-opacity:0;stroke:#000;stroke-width:3" rx="10" ry="25.714" cy="626.65" cx="192.86"/>
  <ellipse id="path6246" style="fill-opacity:0;stroke:#000;stroke-width:3" rx="10" ry="25.714" cy="340.93" cx="490"/>
  <ellipse id="path6248" style="fill-opacity:0;stroke:#000;stroke-width:3" rx="40" ry="27.143" cy="228.08" cx="400"/>
  <ellipse id="path6250" style="fill-opacity:0;stroke:#000;stroke-width:3" rx="34.286" ry="40" cy="120.93" cx="928.57"/>
  <ellipse id="path6252" style="fill-opacity:0;stroke:#000;stroke-width:3" rx="37.143" ry="20" cy="106.65" cx="262.86"/>
  <ellipse id="path6254" style="fill-opacity:0;stroke:#000;stroke-width:3" rx="25.714" ry="27.143" cy="233.79" cx="51.429"/>
  <ellipse id="path6256" style="fill-opacity:0;stroke:#000;stroke-width:3" rx="25.714" ry="20" cy="309.51" cx="154.29"/>
  <ellipse id="path6258" style="fill-opacity:0;stroke:#000;stroke-width:3" rx="31.429" ry="30" cy="516.65" cx="177.14"/>
  <ellipse id="path6260" style="fill-opacity:0;stroke:#000;stroke-width:3" rx="32.857" ry="21.429" cy="802.36" cx="147.14"/>
  <ellipse id="path6262" style="fill-opacity:0;stroke:#000;stroke-width:3" rx="34.286" ry="35.714" cy="816.65" cx="697.14"/>
  <ellipse id="path6264" style="fill-opacity:0;stroke:#000;stroke-width:3" rx="21.429" ry="25.714" cy="546.65" cx="555.71"/>
  <ellipse id="path6266" style="fill-opacity:0;stroke:#000;stroke-width:3" rx="50" ry="30" cy="996.65" cx="555.71"/>
 </g>
</svg>
