<svg id="svg7780" xmlns:inkscape="http://www.inkscape.org/namespaces/inkscape" xmlns:rdf="http://www.w3.org/1999/02/22-rdf-syntax-ns#" xmlns="http://www.w3.org/2000/svg" sodipodi:docname="flowers.svg" version="1.1" xmlns:cc="http://creativecommons.org/ns#" xmlns:dc="http://purl.org/dc/elements/1.1/" inkscape:version="0.91 r13725" viewBox="0 0 1000 1000" xmlns:sodipodi="http://sodipodi.sourceforge.net/DTD/sodipodi-0.dtd">
 <sodipodi:namedview id="base" bordercolor="#666666" inkscape:pageshadow="2" inkscape:window-y="1" pagecolor="#ffffff" inkscape:window-height="795" inkscape:window-maximized="1" inkscape:zoom="0.35" inkscape:window-x="0" showgrid="false" borderopacity="1.0" inkscape:current-layer="layer1" inkscape:cx="543.30275" inkscape:cy="409.53741" units="px" inkscape:window-width="1440" inkscape:pageopacity="0.0" inkscape:document-units="px"/>
 <g id="layer1" inkscape:label="Layer 1" inkscape:groupmode="layer" transform="translate(0 -52.362)">
  <ellipse id="path7788" style="fill-opacity:0;stroke:#000;stroke-width:3" rx="125.71" ry="135.71" cy="408.08" cx="505.71"/>
  <ellipse id="path7819" style="fill-opacity:0;stroke:#000;stroke-width:3" rx="125.71" ry="38.571" transform="matrix(.80986 .58662 -.58662 .80986 0 0)" cy="29.548" cx="391.84"/>
  <ellipse id="path7819-9" style="fill-opacity:0;stroke:#000;stroke-width:3" rx="125.71" ry="38.571" transform="rotate(22.128)" cy="201.92" cx="378.2"/>
  <ellipse id="path7819-4" style="fill-opacity:0;stroke:#000;stroke-width:3" rx="125.71" ry="38.571" transform="rotate(-46.089)" cy="641.44" cx="-200.78"/>
  <ellipse id="path7819-7" style="fill-opacity:0;stroke:#000;stroke-width:3" rx="125.71" ry="38.571" transform="rotate(108.84)" cy="-590.06" cx="481.96"/>
  <ellipse id="path7819-6" style="fill-opacity:0;stroke:#000;stroke-width:3" rx="125.71" ry="38.571" transform="rotate(89.638)" cy="-486.77" cx="678.58"/>
  <ellipse id="path7819-46" style="fill-opacity:0;stroke:#000;stroke-width:3" rx="125.71" ry="38.571" transform="matrix(.99835 .057366 -.057366 .99835 0 0)" cy="393.92" cx="283.06"/>
  <ellipse id="path7819-0" style="fill-opacity:0;stroke:#000;stroke-width:3" rx="125.71" ry="38.571" transform="rotate(-31.292)" cy="584.22" cx="-30.775"/>
  <ellipse id="path7819-76" style="fill-opacity:0;stroke:#000;stroke-width:3" inkscape:transform-center-x="-2.8571429" inkscape:transform-center-y="-2.8571429" rx="125.71" ry="38.571" transform="rotate(70.548)" cy="-326.79" cx="816.36"/>
  <ellipse id="path7819-1" style="fill-opacity:0;stroke:#000;stroke-width:3" rx="125.71" ry="38.571" transform="rotate(46.665)" cy="-61.997" cx="904.34"/>
  <ellipse id="path7819-2" style="fill-opacity:0;stroke:#000;stroke-width:3" rx="125.71" ry="38.571" transform="rotate(3.9086)" cy="336.99" cx="781.93"/>
  <ellipse id="path7819-98" style="fill-opacity:0;stroke:#000;stroke-width:3" rx="125.71" ry="38.571" transform="rotate(21.636)" cy="166.79" cx="868.39"/>
  <ellipse id="path7819-75" style="fill-opacity:0;stroke:#000;stroke-width:3" rx="125.71" ry="38.571" transform="matrix(.80986 .58662 -.58662 .80986 0 0)" cy="28.958" cx="906.49"/>
  <ellipse id="path7819-3" style="fill-opacity:0;stroke:#000;stroke-width:3" rx="125.71" ry="38.571" transform="rotate(-13.623)" cy="465.41" cx="642.75"/>
  <ellipse id="path7819-8" style="fill-opacity:0;stroke:#000;stroke-width:3" rx="125.71" ry="38.571" transform="rotate(-38.506)" cy="596.71" cx="390.56"/>
  <ellipse id="path7819-88" style="fill-opacity:0;stroke:#000;stroke-width:3" rx="125.71" ry="38.571" transform="matrix(.57085 .82105 -.82105 .57085 0 0)" cy="-184.14" cx="365.79"/>
  <ellipse id="path7819-06" style="fill-opacity:0;stroke:#000;stroke-width:2.8266" rx="111.88" ry="38.475" transform="matrix(.22567 .97420 -.98406 .17783 0 0)" cy="-393" cx="248.67"/>
  <ellipse id="path7819-32" style="fill-opacity:0;stroke:#000;stroke-width:2.5074" rx="103.82" ry="32.625" transform="matrix(-.070282 .99753 -.99707 -.076535 0 0)" cy="-532.16" cx="130.53"/>
  <ellipse id="path7819-82" style="fill-opacity:0;stroke:#000;stroke-width:2.6389" inkscape:transform-center-x="-510.0246" inkscape:transform-center-y="378.08215" rx="116.31" ry="32.258" transform="matrix(-.51926 .85461 -.58284 -.81259 0 0)" cy="-660.72" cx="-424.87"/>
  <ellipse id="path7932" style="fill-opacity:0;stroke:#000;stroke-width:2.916" rx="13.737" ry="238.61" transform="matrix(.91203 -.41013 .38892 .92127 0 0)" cy="1044.5" cx="323.68"/>
  <path id="path7934" style="stroke:#000;stroke-width:3;fill:none" inkscape:connector-curvature="0" d="m720 915.22c-185.71 94.28-251.43-14.29-251.43-14.29l-11.429-60 82.86 14.29 177.14 48.57z"/>
  <path id="path7934-1" style="stroke:#000;stroke-width:3;fill:none" inkscape:connector-curvature="0" d="m749.28 912.57c208.25-3.28 215.7-129.97 215.7-129.97l-17.893-58.399-66.614 51.302-134 125.63z"/>
  <ellipse id="path8507" style="fill-opacity:0;stroke:#000;stroke-width:2.455" rx="84.558" ry="85.987" cy="963.79" cx="87.143"/>
  <ellipse id="path8511" style="fill-opacity:0;stroke:#000;stroke-width:3" rx="30" ry="77.143" cy="803.79" cx="115.71"/>
  <ellipse id="path8511-6" style="fill-opacity:0;stroke:#000;stroke-width:3" rx="30" ry="77.143" transform="rotate(20.755)" cy="714.55" cx="463.29"/>
  <ellipse id="path8511-2" style="fill-opacity:0;stroke:#000;stroke-width:3" rx="30" ry="77.143" transform="rotate(53.558)" cy="346.8" cx="849.64"/>
  <ellipse id="path8511-0" style="fill-opacity:0;stroke:#000;stroke-width:3" inkscape:transform-center-x="-11.428571" inkscape:transform-center-y="-20" rx="30" ry="77.143" transform="matrix(-.015851 .99987 -.99987 -.015851 0 0)" cy="-253.3" cx="1017"/>
  <ellipse id="path8511-1" style="fill-opacity:0;stroke:#000;stroke-width:3" rx="30" ry="77.143" transform="matrix(.091728 .99578 -.99578 .091728 0 0)" cy="-159.64" cx="976.84"/>
  <ellipse id="path8511-9" style="fill-opacity:0;stroke:#000;stroke-width:2.4265" rx="19.449" ry="77.848" transform="matrix(.96218 -.27242 .10935 0.994 0 0)" cy="799.79" cx="-27.051"/>
  <ellipse id="path8511-69" style="fill-opacity:0;stroke:#000;stroke-width:2.21" rx="14.979" ry="83.846" transform="matrix(.99990 -.014110 .12605 .99202 0 0)" cy="817.73" cx="-81.651"/>
 </g>
</svg>
