<svg id="svg7039" xmlns:inkscape="http://www.inkscape.org/namespaces/inkscape" xmlns:rdf="http://www.w3.org/1999/02/22-rdf-syntax-ns#" xmlns="http://www.w3.org/2000/svg" sodipodi:docname="peacock.svg" version="1.1" xmlns:cc="http://creativecommons.org/ns#" xmlns:dc="http://purl.org/dc/elements/1.1/" inkscape:version="0.91 r13725" viewBox="0 0 1000 1000" xmlns:sodipodi="http://sodipodi.sourceforge.net/DTD/sodipodi-0.dtd">
 <sodipodi:namedview id="base" bordercolor="#666666" inkscape:pageshadow="2" inkscape:window-y="1" pagecolor="#ffffff" inkscape:window-height="795" inkscape:window-maximized="1" inkscape:zoom="0.35" inkscape:window-x="0" showgrid="false" borderopacity="1.0" inkscape:current-layer="layer1" inkscape:cx="46.428571" inkscape:cy="520" units="px" inkscape:window-width="1440" inkscape:pageopacity="0.0" inkscape:document-units="px"/>
 <g id="layer1" inkscape:label="Layer 1" inkscape:groupmode="layer" transform="translate(0 -52.362)">
  <g id="g7405" transform="matrix(2.0312 0 0 1.7504 -530.91 -109.87)">
   <g id="layer6" inkscape:label="Corps">
    <path id="path10622" d="m454.26 131.61c16.168-3.962 22.336-24.931 46.082-14.14 11.084 6.1542 10.689 19.452 6.2211 30.285-9.0037 26.294-43.047 48.762-29.828 77.43 28.197-6.9684 82.169 2.6103 99.357 14.792 5.4571-0.1789 16.343 3.8464 18.361 8.352 4.3073 0.24836 11.033 5.0289 12.702 9.3857 5.4551 1.7211 8.363 3.6301 9.6178 7.8556 5.1978 1.9435 9.3724 6.5736 11.583 10.946 4.1119 0.96397 7.0102 3.805 9.2874 7.5572 4.4373 2.336 4.5077 5.7914 4.901 8.9214-32.129 1.4689-41.614 14.873-60.524 37.825-0.8342 2.1569-32.228 5.4138-61.489-8.3661-26.07 5.08-58.464-16.112-75.872-47.971-14.021-33.534-11.523-43.511-9.6797-58.885 7.3407-41.099 49.849-45.141 55.061-66.009 0.27679-12.348-21.713-14.324-35.78-17.978z" sodipodi:nodetypes="ccccccccccccccccc" style="stroke:#000;stroke-width:2;fill:#fff" inkscape:connector-curvature="0"/>
    <path id="path4344" d="m561 333.12c6.9583-0.0833 13.917-0.41667 20.875-2.125 4.5417 9.375 8.3333 22.375 0.5 25.125-10.875-5.6667-17.625-12.708-21.375-23z" sodipodi:nodetypes="cccc" style="stroke-linejoin:round;stroke:#000;stroke-width:2;fill:#fff" inkscape:connector-curvature="0"/>
    <path id="path4346" d="m571.62 333c4.0417 4.3333 9.5833 6.4167 14.375 7" sodipodi:nodetypes="cc" style="stroke:#000;stroke-linecap:round;stroke-width:2;fill:none" inkscape:connector-curvature="0"/>
    <path id="path4348" d="m565.12 333.38c5.7917 7.9583 13.083 12.417 21.875 16" sodipodi:nodetypes="cc" style="stroke:#000;stroke-linecap:round;stroke-width:2;fill:none" inkscape:connector-curvature="0"/>
   </g>
   <g id="layer14" inkscape:label="Plume corp 6">
    <path id="path12191" d="m476.3 286.8c7.701 9.8762 19.987 18.457 32.899 25.202 4.0259 3.8799 8.1399 7.4649 12.401 10.398-14.2 2.4333-29-1.3333-44.2-11.5-2.5667-8.2-6.7333-18.6-1.1-24.1z" sodipodi:nodetypes="ccccc" style="stroke:#000;stroke-width:2;fill:#fff" inkscape:connector-curvature="0"/>
   </g>
   <g id="layer7" inkscape:label="Pattes">
    <path id="path11431" d="m491.07 319.08c1.9141 6.4266 7.4051 12.132 8.8684 16.624-5.3048 12.312-14.667 27.195-19.129 31.728 0.42586 4.1978 8.3398 5.3153 12.781 6.7754-7.6656 2.4944-13.689 0.79089-21.354 0.36502-5.5363 1.886-10.342 4.3195-15.514 8.3957-0.0494-2.0545 0.44869-3.9035 1.8252-7.1181-2.0077-1.521-5.658-1.3993-9.3082-1.2776 5.8405-6.388 16.974-2.9202 24.092-6.388 8.8698-8.8775 11.962-16.86 18.477-30.405-2.6279-8.5656-10.411-16.326-12.966-25.817 3.8328 3.0419 8.0306 6.0838 12.228 7.1181z" sodipodi:nodetypes="cccccccccccc" style="stroke:#000;stroke-width:1.8251px;fill:#fff" inkscape:connector-curvature="0"/>
    <path id="path11433" d="m458.92 295.16c1.8217 9.9999 3.0084 22.555 1.7077 28.407-1.4482 5.8454-19.063 36.955-35.025 46.236-7.1181 3.5895-16.244 1.3384-23.179 5.2929 0 0 7.8481 0.54754 8.5782 1.4601-2.1902 1.8252-0.91257 5.1104-1.8252 8.5782 1.6426 0 15.067-10.226 19.529-11.316 3.1028 1.8252 16.974-1.4601 16.974-1.4601s-9.9647-4.3412-8.2132-4.7454c11.038-11.498 19.234-22.99 27.907-35.468 2.616-7.1789 2.9818-20.793 2.1902-28.837-3.2144-1.7922-5.2461-4.4434-8.6432-8.1481z" sodipodi:nodetypes="cccccccccccc" style="stroke:#000;stroke-width:1.8251px;fill:#fff" inkscape:connector-curvature="0"/>
   </g>
   <g id="layer8" inkscape:label="Crète">
    <path id="path12025" d="m506.96 121.96 33.926-4.3732c0.93967 1.8768 1.3065 1.5807 3.1729 3.2547z" sodipodi:nodetypes="cccc" style="stroke-linejoin:round;stroke:#000;stroke-width:1px;fill:#fff" inkscape:connector-curvature="0"/>
    <path id="path12027" d="m546.88 112.99c-3.1183 0.32126-4.8457 1.7462-5.9334 4.245 0 0 2.1056 2.1952 2.848 3.4715 1.511 0.83217 4.4759 1.399 8.1823 1.0734-5.1618-3.3164-5.7941-4.4435-5.097-8.7898z" sodipodi:nodetypes="ccccc" style="stroke:#000;stroke-width:1px;fill:#fff" inkscape:connector-curvature="0"/>
    <path id="use12029" sodipodi:nodetypes="cccc" style="stroke-linejoin:round;stroke:#000;fill:#fff" inkscape:connector-curvature="0" d="m507.58 123.44 37.532 1.126c0.68313 2.0187 1.1329 1.7939 2.8554 3.7815z"/>
    <path id="use12031" sodipodi:nodetypes="ccccc" style="stroke:#000;fill:#fff" inkscape:connector-curvature="0" d="m552.41 121.13c-3.4329-0.25109-5.5566 0.83742-7.179 3.0995 0 0 1.8887 2.5443 2.4652 3.9358 1.4876 1.0942 4.5964 2.1916 8.6667 2.5455-4.9976-4.2041-5.4814-5.4288-3.953-9.5808z"/>
    <path id="path12045" sodipodi:nodetypes="cccc" style="stroke-linejoin:round;stroke:#000;stroke-width:1px;fill:#fff" inkscape:connector-curvature="0" d="m508 124.53 41.72 9.7381c0.0516 2.0983 0.50953 1.9864 1.4861 4.2955z"/>
    <path id="path12047" sodipodi:nodetypes="ccccc" style="stroke:#000;stroke-width:1px;fill:#fff" inkscape:connector-curvature="0" d="m557.44 133.91c-2.7241-1.5512-4.958-1.3958-7.2956 0.005 0 0 0.43732 3.0102 0.29963 4.4802 0.0571 1.7693 2.7455 2.2558 5.9915 2.5934-1.4957-3.3846-1.451-4.6976 1.0044-7.0789z"/>
    <path id="use12051" d="m508.62 125.82 42.052 17.324c-0.28207 2.0799-0.8025 2.8416-0.20476 5.2764z" sodipodi:nodetypes="cccc" style="stroke-linejoin:round;stroke:#000;stroke-width:1px;fill:#fff" inkscape:connector-curvature="0"/>
    <path id="use12053" d="m559.56 144.91c-2.6687-2.6946-5.322-3.2413-8.5018-2.3702 0 0-0.47094 3.6497-1.1103 5.3176-0.50974 2.0801 2.464 3.5225 6.136 4.9732-0.64021-4.4306-0.16039-5.9458 3.4761-7.9206z" sodipodi:nodetypes="cccccc" style="stroke:#000;fill:#fff" inkscape:connector-curvature="0"/>
    <path id="use12059" sodipodi:nodetypes="cccc" style="stroke-linejoin:round;stroke:#000;stroke-width:1px;fill:#fff" inkscape:connector-curvature="0" d="m508.84 127.92c14.463 7.0977 28.775 14.75 41.993 25.034-0.85679 1.9161-1.5708 2.5003-1.6835 5.0049-10.82-13.16-26.31-21.26-40.31-30.04z"/>
    <path id="use12061" sodipodi:nodetypes="cccccc" style="stroke:#000;fill:#fff" inkscape:connector-curvature="0" d="m551.17 152.57s-1.4804 3.369-2.5639 4.7891c-1.0753 1.8522 0.57744 6.8054 3.6917 9.2321 0.038-2.4365 0.90374-4.3038 1.9344-7.7409 2.3733 0.32029 4.3823-0.55303 6.8387-0.64916-1.544-4.0082-6.4223-5.5163-9.9009-5.6312z"/>
    <path id="use12067" d="m509.48 130.27c14.877 8.7867 31.506 22.247 39.305 36.916-1.2018 1.7327-2.0153 2.1769-2.5917 4.6288-5.4388-15.716-23.367-31.204-36.713-41.545z" sodipodi:nodetypes="cccc" style="stroke-linejoin:round;stroke:#000;stroke-width:1.0047px;fill:#fff" inkscape:connector-curvature="0"/>
    <path id="use12069" d="m548.86 166.09s-2.0777 3.0373-3.405 4.2326c-1.3991 1.6214-0.69058 6.7948 1.9214 9.7554 0.4877-2.3875 1.6838-4.0626 3.332-7.2499 2.2732 0.75351 4.409 0.26663 6.8408 0.62626-0.77638-4.2246-5.2918-6.6085-8.6893-7.3645z" sodipodi:nodetypes="cccccc" style="stroke:#000;fill:#fff" inkscape:connector-curvature="0"/>
   </g>
   <g id="layer9" inkscape:label="Plumes Corps">
    <path id="path12076" d="m463.8 221.8c-1.3333 2.6667-0.86667 4.9333 0.2 6.8" sodipodi:nodetypes="cc" style="stroke:#000;stroke-linecap:round;stroke-width:2;fill:#fff" inkscape:connector-curvature="0"/>
    <path id="path12078" d="m459 214.4c-4.2063 6.9439-1.7811 12.957 0.2 18.4" sodipodi:nodetypes="cc" style="stroke:#000;stroke-linecap:round;stroke-width:2;fill:none" inkscape:connector-curvature="0"/>
    <path id="path12080" d="m451.8 220.4c-1.6667 4.7333-0.73333 10.067 0.6 15.6" sodipodi:nodetypes="cc" style="stroke:#000;stroke-linecap:round;stroke-width:2;fill:none" inkscape:connector-curvature="0"/>
    <path id="path12082" d="m446.2 216c-1.4 6.2-0.8 12-0.2 19.8" sodipodi:nodetypes="cc" style="stroke:#000;stroke-linecap:round;stroke-width:2;fill:none" inkscape:connector-curvature="0"/>
    <path id="path12084" d="m440.6 219.2c-0.73333 5.2667-1.4667 10.933-0.2 16.2" sodipodi:nodetypes="cc" style="stroke:#000;stroke-linecap:round;stroke-width:2;fill:none" inkscape:connector-curvature="0"/>
   </g>
   <g id="layer17" inkscape:label="Plume Corps 9">
    <path id="path12200" d="m501.8 281 33.5-4.6c13.078 11.512 38.114 28.251 31.7 40.2l-3.6 8.1-43.6-11.3z" sodipodi:nodetypes="cccccc" style="stroke:#000;stroke-width:2;fill:#fff" inkscape:connector-curvature="0"/>
    <path id="path12202" d="m507.8 282.3c11.859 16.011 53.85 38.552 51.6 19.3" sodipodi:nodetypes="cc" style="stroke:#000;stroke-linecap:round;stroke-width:2;fill:none" inkscape:connector-curvature="0"/>
    <path id="path12204" d="m513 283.1c16.467 10.349 33.124 21.073 40.5 13.5" sodipodi:nodetypes="cc" style="stroke:#000;stroke-linecap:round;stroke-width:2;fill:none" inkscape:connector-curvature="0"/>
    <path id="path12206" d="m519 282.1c8.3333 2.6506 16.667 10.795 25 5.6" sodipodi:nodetypes="cc" style="stroke:#000;stroke-linecap:round;stroke-width:2;fill:none" inkscape:connector-curvature="0"/>
    <path id="path12208" d="m528.3 280.3c3.8918 2.6512 8.1464 4.3823 11.9 2.1" sodipodi:nodetypes="cc" style="stroke:#000;stroke-linecap:round;stroke-width:2;fill:none" inkscape:connector-curvature="0"/>
   </g>
   <g id="layer15" inkscape:label="Plume Corps 7">
    <path id="path12194" d="m473.8 286.1l3.6-16.4c8.4333 4.3 16.867 8.6 25.3 12.9 12.243 20.309 30.973 29.606 40.5 32.9-27.8 6.8333-52.2-13.133-69.4-29.4z" sodipodi:nodetypes="ccccc" style="stroke-linejoin:round;stroke:#000;stroke-width:2;fill:#fff" inkscape:connector-curvature="0"/>
   </g>
   <g id="layer11" inkscape:label="Plume corps 3 ">
    <path id="path12120" d="m475.6 225.8c-7.8667 2.0667-16.133 3.9333-20 14 3.4333 29.3 14.667 37.2 27 38.2 6.6667 5 20.133 6 20 2.4 5.2 3.6 16.6 3.9 17.8 0.7 4.3333 1 8.9667-0.4 10.7-3.4 5.1306 1.4697 13.036 0.25791 13-3 4 1.5667 9 1.4333 9.1-3.3-16.867-29.2-46.133-34.8-77.6-45.6z" sodipodi:nodetypes="ccccccccc" style="stroke:#000;stroke-width:2;fill:#fff" inkscape:connector-curvature="0"/>
    <path id="path12122" d="m464.1 248.2c7.9667 9.5333 16.033 11.567 28.1 11.5" sodipodi:nodetypes="cc" style="stroke:#000;stroke-linecap:round;stroke-width:2;fill:none" inkscape:connector-curvature="0"/>
    <path id="path12124" d="m483.4 251.5c4.1868 9.5046 21.301 12.694 24.8 7.9" sodipodi:nodetypes="cc" style="stroke:#000;stroke-linecap:round;stroke-width:2;fill:none" inkscape:connector-curvature="0"/>
    <path id="path12126" d="m497.4 252c6.6 8.6667 22.6 11.233 27.3 6.8" sodipodi:nodetypes="cc" style="stroke:#000;stroke-linecap:round;stroke-width:2;fill:none" inkscape:connector-curvature="0"/>
    <path id="path12128" d="m482 259.1c3.6 6.3333 14.6 11.967 21.7 10.2" sodipodi:nodetypes="cc" style="stroke:#000;stroke-linecap:round;stroke-width:2;fill:none" inkscape:connector-curvature="0"/>
    <path id="path12130" d="m501.8 261.7c5.8667 8.3333 17.933 11.267 24.3 5.2" sodipodi:nodetypes="cc" style="stroke:#000;stroke-linecap:round;stroke-width:2;fill:none" inkscape:connector-curvature="0"/>
    <path id="path12132" d="m515.9 261c6.0333 6.8333 17.867 7.8667 25.3 4.6" sodipodi:nodetypes="cc" style="stroke:#000;stroke-linecap:round;stroke-width:2;fill:none" inkscape:connector-curvature="0"/>
    <path id="path12134" d="m477.3 268.4c0.73333 3.2667 2.8667 6.0333 5.5 9.4" sodipodi:nodetypes="cc" style="stroke:#000;stroke-linecap:round;stroke-width:2;fill:none" inkscape:connector-curvature="0"/>
    <path id="path12136" d="m493.3 272.3c2.8258 4.5001 5.9099 6.1763 9.3 8.1" sodipodi:nodetypes="cc" style="stroke:#000;stroke-linecap:round;stroke-width:2;fill:none" inkscape:connector-curvature="0"/>
    <path id="path12138" d="m508.2 272.6c2.3755 3.9697 5.9296 6.859 11.5 7.9" sodipodi:nodetypes="cc" style="stroke:#000;stroke-linecap:round;stroke-width:2;fill:none" inkscape:connector-curvature="0"/>
    <path id="path12140" d="m517.2 270.2c2.4855 3.122 8.3848 6.0558 14 7.4" sodipodi:nodetypes="cc" style="stroke:#000;stroke-linecap:round;stroke-width:2;fill:none" inkscape:connector-curvature="0"/>
    <path id="path12142" d="m533.2 267.3c2.2725 3.3608 6.4288 6.1379 11.1 7.1" sodipodi:nodetypes="cc" style="stroke:#000;stroke-linecap:round;stroke-width:2;fill:none" inkscape:connector-curvature="0"/>
   </g>
   <g id="g12145" inkscape:label="Plume corps 4">
    <path id="path12147" sodipodi:nodetypes="ccccccccccc" style="stroke:#000;stroke-width:2;fill:#fff" inkscape:connector-curvature="0" d="m476.23 225.69c28.197-6.9684 82.669 2.1103 99.857 14.292 5.4571-0.1789 16.343 3.8464 18.361 8.352 4.3073 0.24836 11.033 5.0289 12.702 9.3857 5.4551 1.7211 8.363 3.6301 9.6178 7.8556 5.1978 1.9435 9.3724 6.5736 11.583 10.946 4.1119 0.96397 7.0102 3.805 9.2874 7.5572 4.4373 2.336 4.5077 5.7914 4.901 8.9214-27.796-0.53107-27.947-2.4605-47.524-4.1752-36.032-10.213-58.814-23.369-76.028-44.67-26.475-0.35696-44.567-3.7062-42.757-18.464z"/>
    <path id="path12149" d="m522.8 237.9c11.033 9.7667 30.167 16.433 36.3 6.6" sodipodi:nodetypes="cc" style="stroke:#000;stroke-linecap:round;stroke-width:2;fill:none" inkscape:connector-curvature="0"/>
    <path id="path12151" d="m534.5 235.7c14.9 8.5333 33.4 12.967 41.3 4.8" sodipodi:nodetypes="cc" style="stroke:#000;stroke-linecap:round;stroke-width:2;fill:none" inkscape:connector-curvature="0"/>
    <path id="path12153" d="m574.6 247.2c2.3465 4.5201 10.68 6.8532 19.3 1.3" sodipodi:nodetypes="cc" style="stroke:#000;stroke-linecap:round;stroke-width:2;fill:none" inkscape:connector-curvature="0"/>
    <path id="path12155" d="m561 250.5c5.2183 3.5085 10.403 7.186 17.7 0.3" sodipodi:nodetypes="cc" style="stroke:#000;stroke-linecap:round;stroke-width:2;fill:none" inkscape:connector-curvature="0"/>
    <path id="path12157" d="m547.9 253.7c7.922 6.1824 16.754 9.3856 27.6 6" sodipodi:nodetypes="cc" style="stroke:#000;stroke-linecap:round;stroke-width:2;fill:none" inkscape:connector-curvature="0"/>
    <path id="path12159" d="m570.9 255c7.2147 9.5201 17.842 8.961 22.9 4.7" sodipodi:nodetypes="cc" style="stroke:#000;stroke-linecap:round;stroke-width:2;fill:none" inkscape:connector-curvature="0"/>
    <path id="path12161" d="m585.7 254.6c3.2894 3.6786 8.2995 8.168 21.1 3.8" sodipodi:nodetypes="cc" style="stroke:#000;stroke-linecap:round;stroke-width:2;fill:none" inkscape:connector-curvature="0"/>
    <path id="path12163" d="m563.2 264.2c1.5727 2.2308 12.937 9.8542 23.2-1.5" sodipodi:nodetypes="cc" style="stroke:#000;stroke-linecap:round;stroke-width:2;fill:none" inkscape:connector-curvature="0"/>
    <path id="path12165" d="m591.5 261.5c8.5599 8.6837 17.09 6.9815 25.1 4.6" sodipodi:nodetypes="cc" style="stroke-linejoin:round;stroke:#000;stroke-linecap:round;stroke-width:2;fill:none" inkscape:connector-curvature="0"/>
    <path id="path12167" d="m580.4 267.5c7.4653 5.7222 16.893 4.642 22.9 0.5" sodipodi:nodetypes="cc" style="stroke-linejoin:round;stroke:#000;stroke-linecap:round;stroke-width:2;fill:none" inkscape:connector-curvature="0"/>
    <path id="path12169" d="m574 271.6c8.2231 8.2718 16.506 6.9511 25.2 5.3" sodipodi:nodetypes="cc" style="stroke-linejoin:round;stroke:#000;stroke-linecap:round;stroke-width:2;fill:none" inkscape:connector-curvature="0"/>
    <path id="path12171" d="m592.4 272c5.2179 6.3474 17.327 8.4276 22.3 4.6" sodipodi:nodetypes="cc" style="stroke:#000;stroke-linecap:round;stroke-width:2;fill:none" inkscape:connector-curvature="0"/>
    <path id="path12173" d="m603.2 268c7.9939 12.661 17.064 7.7467 25.3 8.8" sodipodi:nodetypes="cc" style="stroke:#000;stroke-linecap:round;stroke-width:2;fill:none" inkscape:connector-curvature="0"/>
    <path id="path12175" d="m592.3 281.7c-2.2087 2.6104 7.1185 2.5981 13.5 1.7" sodipodi:nodetypes="cc" style="stroke:#000;stroke-linecap:round;stroke-width:2;fill:none" inkscape:connector-curvature="0"/>
    <path id="path12177" d="m602.4 277.8c2.714 8.3882 9.7374 9.3117 20.4 7.1" sodipodi:nodetypes="cc" style="stroke:#000;stroke-linecap:round;stroke-width:2;fill:none" inkscape:connector-curvature="0"/>
    <path id="path12179" d="m613.7 276.9c5.0006 8.6699 14.434 10.194 23.5 7.3" sodipodi:nodetypes="cc" style="stroke:#000;stroke-linecap:round;stroke-width:2;fill:none" inkscape:connector-curvature="0"/>
   </g>
   <g id="layer13" inkscape:label="Plume corps 5">
    <path id="path12182" d="m444.4 275.2c1.9-13.4 4.35-24.125 14.15-19.125 8.6667 4.4667 13.583 9.8083 17.25 20.525 3.3333 4.5667 2.6667 8.6333 0.9 10.2 1.4333 2.7667 0.76667 5.2333-1.2 6.1 1.3667 3.9 0.93333 7.3-0.5 8.4 2.2667 2.9667 2.8333 5.9333 2.6 8.9-12.167-7.8667-23.933-19.733-33.2-35z" sodipodi:nodetypes="cccccccc" style="stroke:#000;stroke-width:2;fill:#fff" inkscape:connector-curvature="0"/>
    <path id="path12184" d="m464.8 291.2c4.0824 2.3326 7.1018 4.9534 10.2 10" sodipodi:nodetypes="cc" style="stroke:#000;stroke-linecap:round;stroke-width:2;fill:none" inkscape:connector-curvature="0"/>
    <path id="path12186" d="m461 279c6.972 3.2742 10.681 8.6908 14.6 14" sodipodi:nodetypes="cc" style="stroke:#000;stroke-linecap:round;stroke-width:2;fill:none" inkscape:connector-curvature="0"/>
    <path id="path12188" d="m465.8 275.4c4.7667 3.1667 7.7333 6.2333 10.6 11.2" sodipodi:nodetypes="cc" style="stroke:#000;stroke-linecap:round;stroke-width:2;fill:none" inkscape:connector-curvature="0"/>
   </g>
   <g id="layer10" inkscape:label="Plumes Corps 2">
    <path id="path12098" d="m434.84 242.16c1.5667-3.2333 2.8333-5.0667 5.4-6.1 2.8549 1.4422 3.751 1.1842 6.2-0.2 2.7724 1.5572 3.4813 0.88214 6 0.2 1.7018 1.1279 2.3484 1.8214 3.5 3.5 2.3333 3.9333 2.4667 11.967 2.4 16.7-1.0667-0.0333-2.2333-2.1667-2.8-3.5 1.2292 6.737 0.74065 10.683-3 8.4 0.51375 3.8798-2.2785 9.5016-5 6.1-0.3 3.1-0.1 7.9-2.4 6.7-5.2333-9.0667-8.4667-19.233-10.3-31.8z" sodipodi:nodetypes="ccccccccccc" style="stroke:#000;stroke-width:2;fill:#fff" inkscape:connector-curvature="0"/>
    <path id="path12210" d="m441.4 246.1c-0.93333 7.6667 2.7333 14.633 5.9 20.7" sodipodi:nodetypes="cc" style="stroke:#000;stroke-linecap:round;stroke-width:2;fill:none" inkscape:connector-curvature="0"/>
    <path id="path12212" d="m447 244.6c0.33333 6.1 2.4667 11.6 5.2 16.1" sodipodi:nodetypes="cc" style="stroke:#000;stroke-linecap:round;stroke-width:2;fill:none" inkscape:connector-curvature="0"/>
    <path id="path12214" d="m451.6 242.4c1.6 7.1259 2.6 8.6284 4.6 11.5" sodipodi:nodetypes="cc" style="stroke:#000;stroke-linecap:round;stroke-width:2;fill:none" inkscape:connector-curvature="0"/>
   </g>
   <g id="layer16" inkscape:label="Plume Corps 8">
    <path id="path12197" d="m509.2 311.7c24.684-0.0696 56.843 13.74 61.2 1.3 2.2667 6.4333 6.6333 12.467 10.7 18.1-24.767 5.6333-59.133-3.4333-71.9-19.4z" sodipodi:nodetypes="cccc" style="stroke-linejoin:round;stroke:#000;stroke-width:2;fill:#fff" inkscape:connector-curvature="0"/>
   </g>
   <g id="layer1-7" inkscape:label="Détails tête">
    <path id="path3924" d="m469.5 123.6c-4.3333 3.3667-8.5667 6.0333-13.3 8 4.3667 1.3 9.1333 1.9 13.5 3 1.1667-3.6667-2.6667-7.5333-0.2-11z" sodipodi:nodetypes="cccc" style="stroke-linejoin:round;stroke:#000;stroke-width:1px;fill:#fff" inkscape:connector-curvature="0"/>
    <path id="path3926" d="m469.29 129.13c1.7571-6.8857 15.528-14.998 24.564-8.4789-2.3768 3.2033-6.2702 9.8645-11.616 6.0477-5.3157-3.795-11.357 3.4297-12.218 6.6328-0.0953-1.0258-0.269-2.2844-0.72967-4.2016z" sodipodi:nodetypes="ccscc" style="stroke-linejoin:round;stroke:#000;stroke-width:1px;fill:#fff" inkscape:connector-curvature="0"/>
    <path id="path3948" d="m475.27 134.22c3.8099-6.0376 19.873 3.6176 22.543-14.324 1.8852 6.5056 1.0378 11.796-2.863 13.973-5.6584 3.0063-14.092-2.1051-19.68 0.35069z" sodipodi:nodetypes="cccc" style="stroke-linejoin:round;stroke:#000;stroke-width:1.0212px;fill:#fff" inkscape:connector-curvature="0"/>
    <path id="path3950" d="m487.98 122.93c-3.6917 4.3363-3.4883 3.98-9.242 2.5429 1.8995-4.9973 5.2464-4.9563 9.242-2.5429z" sodipodi:nodetypes="ccc" style="stroke:#000;stroke-width:1px" inkscape:connector-curvature="0"/>
   </g>
   <g id="layer2" inkscape:label="Plume Queue basse">
    <path id="path3953" d="m555.5 498.5c-31.6 17.5-105.2 28-126-16.5-2.8667-9.6667 6.4667-11.333 19 1-0.13333-1.7-0.46667-4.6-0.4-6.9-12.6-11.1-18.8-23.2-36.6-26.1-14.733-2.3-30.467 3.2-30.8 16.1-0.23333 16.3 32.333 47 73.9 56.9 15.533 3.9667 55.867 5.7333 83.4-3.5l17.5-21z" sodipodi:nodetypes="ccccccccc" style="stroke-linejoin:round;stroke:#000;stroke-width:2;fill:#fff" inkscape:connector-curvature="0"/>
    <path id="path3955" d="m540.5 522c3.3333 2.6667 6.6667 5.3333 10 8-61.967 30.367-156.13 14.733-202.9-26.5-28.1-25.8-40-42.6-23.7-62.4 16.033-18.5 68.267-7.4 87.1 8.5-5.0667-0.5-9.7333-0.2-15-0.1-22.067-9.9-32.133 8.8-32 19.5 8.3667 38.467 53.733 51.933 66.5 56 40.867 10.8 81.733 10.2 110-3z" sodipodi:nodetypes="ccccccccc" style="stroke-linejoin:round;stroke:#000;stroke-width:2;fill:#fff" inkscape:connector-curvature="0"/>
    <path id="path3957" d="m522.5 547c-44.867 6.9667-88.133 7.1333-133.4-8.1-38.133-15.533-70.067-40.667-82.6-64.4-21.367 12.567-6.9333 46.933 2.5 57.5 12.3 21.067 82.2 31.933 124.5 33 27.533 2.2667 62.867-5.0667 86.8-13.8 0.33333-2.3333 1.8667-1.8667 2.2-4.2z" sodipodi:nodetypes="ccccccc" style="stroke-linejoin:round;stroke:#000;stroke-width:2;fill:#fff" inkscape:connector-curvature="0"/>
    <path id="path5071" d="m506 561.4c-38.6 14.933-110.6 12.467-160 1.4-10.933-1.8667-37.867-7.7333-38 5-0.13333 25.067 44.133 44.133 69.4 43.2-0.93333-1.6-1.0667-2.2-2.6-4.2-19.867-2.6-32.333-15-4.2-20.4 27.267-6 92.733 1.2 139.4-16-2-4.3333-2-4.6667-4-9z" sodipodi:nodetypes="cccccccc" style="stroke-linejoin:round;stroke:#000;stroke-width:2;fill:#fff" inkscape:connector-curvature="0"/>
    <path id="path5073" d="m589.9 534.1c-3.6667 38.867-157.83 59.433-194.3 59.1-13.867-0.46667-21.533 6.6667-20.2 11.6 0.33333 11.6 20.867 22.2 34.6 26.8 15.933 4.1333 44.867 0.86667 50.2-3.4-0.33333-0.36667-2.3667-0.63333-2.5-1.9-9.1333 1.8667-25.567 2.4333-14.9-13.1 6.6667-11.5 149.53-45.7 160.6-77.5-4.1333-1.3333-9.3667-0.26667-13.5-1.6z" sodipodi:nodetypes="ccccccccc" style="stroke-linejoin:round;stroke:#000;stroke-width:2;fill:#fff" inkscape:connector-curvature="0"/>
    <path id="path5075" d="m635 488.5c-0.7 34.633-27.4 58.667-49.7 74.1-40.2 28.2-129 37.6-127.2 62.8 11.267 11.267 23.133 11.933 39.2 11 16.8-0.26667 31.6-7.7333 45.8-13.6-2.6-0.43333-4.6-1.4667-5.4-3.3-7.3333 3.1333-17.667 8.0667-18.8-3-0.26667-15 56.267-32 73.6-46 35.167-26.767 47.133-51.133 47.9-85.1z" sodipodi:nodetypes="cccccccccc" style="stroke-linejoin:round;stroke:#000;stroke-width:2;fill:#fff" inkscape:connector-curvature="0"/>
    <path id="path5077" d="m647 481.6c-2.1333 34.333-13.867 60.467-33.4 80.2-21.067 19.4-47.333 33.4-75.6 48.2-6.2667 12.467 6.2667 13.133 10.4 13.2 32 0.66667 58-20.067 74.6-35.2 3.6667-4.2-0.46667-11.2-6-7.8 1.6667 9.4-4.4667 9-8.2 4.2 15.779-13.267 32.342-29.733 42.6-46.4 5.2667-21.267 7.7333-43.933 9.2-67.4-4.5333 3.6667-9.0667 7.3333-13.6 11z" sodipodi:nodetypes="cccccccccc" style="stroke-linejoin:round;stroke:#000;stroke-width:2;fill:#fff" inkscape:connector-curvature="0"/>
    <path id="path5079" d="m394.8 462c21.6-4.3333 28 19.733 27 31.4-12.857 6.2589-36.274-19.814-27-31.4z" sodipodi:nodetypes="ccc" style="stroke-linejoin:round;stroke:#000;stroke-width:2;fill:#fff" inkscape:connector-curvature="0"/>
    <path id="path5081" d="m408 477.6c-4.1819 6.8487 4.8231 14.864 10.2 13 0.7333-5.0667-1.9333-14.533-10.2-13z" sodipodi:nodetypes="ccc" style="stroke:#000;stroke-width:2;fill:#fff" inkscape:connector-curvature="0"/>
    <path id="path5083" d="m332.2 447c16.134-4.7942 21.878 22.018 18.4 35.2-9.7333 4.2-36.267-23.2-18.4-35.2z" sodipodi:nodetypes="ccc" style="stroke-linejoin:round;stroke:#000;stroke-width:2;fill:#fff" inkscape:connector-curvature="0"/>
    <path id="path5085" d="m338.8 464.2c9.0395 0.0822 12.547 9.0092 7.8 14.4-5.8667-0.8-12.533-7-7.8-14.4z" sodipodi:nodetypes="ccc" style="stroke-linejoin:round;stroke:#000;stroke-width:2;fill:#fff" inkscape:connector-curvature="0"/>
    <path id="path5087" d="m310.6 503.8c16.267-3.2078 29.045 14.78 26.4 29.2-13.867 3.4667-39.133-16.867-26.4-29.2z" sodipodi:nodetypes="ccc" style="stroke-linejoin:round;stroke:#000;stroke-width:2;fill:#fff" inkscape:connector-curvature="0"/>
    <path id="path5089" d="m321.6 517.2c7.5333-0.46667 10.667 3.8667 11.8 11-3.1856 5.909-17.038-5.0277-11.8-11z" sodipodi:nodetypes="ccc" style="stroke-linejoin:round;stroke:#000;stroke-width:2;fill:#fff" inkscape:connector-curvature="0"/>
    <path id="path5091" d="m322 574.4c1.1926-12.795 38.784-8.5186 38.8 4.6-6 9.7333-39.2 11.867-38.8-4.6z" sodipodi:nodetypes="ccc" style="stroke-linejoin:round;stroke:#000;stroke-width:2;fill:#fff" inkscape:connector-curvature="0"/>
    <path id="path5093" d="m341 575.6c5.6667-5.4 14.333-2.8 16.4 2-3.3016 7.8331-16.183 3.5439-16.4-2z" sodipodi:nodetypes="ccc" style="stroke-linejoin:round;stroke:#000;stroke-width:2;fill:#fff" inkscape:connector-curvature="0"/>
    <path id="path5095" d="m396.4 614.4c-2.8667-18.667 31.267-16.933 39.6-12.6 3.6232 13.143-29.247 25.255-39.6 12.6z" sodipodi:nodetypes="ccc" style="stroke-linejoin:round;stroke:#000;stroke-width:2;fill:#fff" inkscape:connector-curvature="0"/>
    <path id="path5097" d="m416.8 608.6c1.4-6.6667 9.6-8.7333 16.2-4.4-1.95 6.2059-10.628 10.191-16.2 4.4z" sodipodi:nodetypes="ccc" style="stroke-linejoin:round;stroke:#000;stroke-width:2;fill:#fff" inkscape:connector-curvature="0"/>
    <path id="path5099" d="m476.6 625c-2.707-13.53 19.878-21.509 32.6-20 6.086 16.202-22.294 28.004-32.6 20z" sodipodi:nodetypes="ccc" style="stroke-linejoin:round;stroke:#000;stroke-width:2;fill:#fff" inkscape:connector-curvature="0"/>
    <path id="path5101" d="m507 607.4c-7.5333 1.6667-14.667 2.9333-14.2 11.6 9.3719 1.5906 13.75-5.4004 14.2-11.6z" sodipodi:nodetypes="ccc" style="stroke-linejoin:round;stroke:#000;stroke-width:2;fill:#fff" inkscape:connector-curvature="0"/>
    <path id="path5103" d="m568.4 620.2c-2.2-17.133 16-21.867 31-20.6 0.13333 3 0.86667 3.8 1 6.8-9.3333 5.7333-21.267 13.067-32 13.8z" sodipodi:nodetypes="cccc" style="stroke-linejoin:round;stroke:#000;stroke-width:2;fill:#fff" inkscape:connector-curvature="0"/>
    <path id="path5105" d="m581.8 615.6c-4.3799-13.964 16.356-15.508 14.6-7.6-4.4667 3.8-8.7333 5.6-14.6 7.6z" sodipodi:nodetypes="ccc" style="stroke-linejoin:round;stroke:#000;stroke-width:2;fill:#fff" inkscape:connector-curvature="0"/>
   </g>
   <g id="layer3" inkscape:label="Plume queue haute">
    <path id="path3974" d="m583.1 516.1c-19.4 25.3-64 24.6-79.6 42.3-5.3333 8.8667-3.2667 21.733 14.2 24 20.8-1.1 36.8-9 54.8-20.7 2.6667-2.5333 3.7333-5.0667 3.6-8.4-3.7667-4.8-12.333-1.6-8.1 4.6-2.9733 3.3023-12.973-0.96375-5.8-6.8 10.733-7.2 17.267-10.4 26.8-12.6-1.5-5.3333-4.4-17.067-5.9-22.4z" sodipodi:nodetypes="ccccccccc" style="stroke-linejoin:round;stroke:#000;stroke-width:2;fill:#fff" inkscape:connector-curvature="0"/>
    <path id="path3976" d="m511.4 566.2c3.5333 12 33.867 6 35.8-9.6-5.3333-9.8-36.467-3-35.8 9.6z" sodipodi:nodetypes="ccc" style="stroke-linejoin:round;stroke:#000;stroke-width:2;fill:#fff" inkscape:connector-curvature="0"/>
    <path id="path3978" d="m529 560.4c-1.0667-5.8667 13.867-6.1333 15.4-2.6-1.3333 5.6667-14.467 8.7333-15.4 2.6z" sodipodi:nodetypes="ccc" style="stroke-linejoin:round;stroke:#000;stroke-width:2;fill:#fff" inkscape:connector-curvature="0"/>
    <path id="path3980" d="m594.2 461.6c-14.133 26-52.067 38-54.6 45.4-12.133 15.2 9.5333 29.4 22 25.4 23.667-11 36.733-33.4 49.8-57.2-9.9133-4.7764-8.124-11.331-17.2-13.6z" sodipodi:nodetypes="ccccc" style="stroke-linejoin:round;stroke:#000;stroke-width:2;fill:#fff" inkscape:connector-curvature="0"/>
    <path id="path3982" d="m578.6 500.2c-10.067-5.2-36.333 7.2-29 20.2 10.884 10.23 32.083-7.5052 29-20.2z" sodipodi:nodetypes="ccc" style="stroke-linejoin:round;stroke:#000;stroke-width:2;fill:#fff" inkscape:connector-curvature="0"/>
    <path id="use3984" sodipodi:nodetypes="ccc" style="stroke-linejoin:round;stroke:#000;stroke-width:2;fill:#fff" inkscape:connector-curvature="0" d="m575.77 501.53c-4.6516-2.017-16.003 4.3134-12.336 9.8955 5.1686 4.238 14.097-4.3211 12.336-9.8955z"/>
    <path id="path3988" d="m613.8 468.2c-4.9333 15.467-21.067 38.733-34.4 54.8-7.2 19.467 10.8 27.533 22.6 19.6 13.667-11.667 22.933-25.533 27.4-44.2-8.3333-2.1333-3.4667-11.467 3.8-7.6 1.4-4.7333 2.8-9.4667 4.2-14.2-8.8-2-14.8-6.4-23.6-8.4z" sodipodi:nodetypes="ccccccc" style="stroke-linejoin:round;stroke:#000;stroke-width:2;fill:#fff" inkscape:connector-curvature="0"/>
    <path id="use3990" sodipodi:nodetypes="ccc" style="stroke-linejoin:round;stroke:#000;stroke-width:1.8737;fill:#fff" inkscape:connector-curvature="0" d="m608.72 508.57c-9.6648-2.6693-29.488 15.596-20.533 26.491 11.407 7.3629 25.8-14.886 20.533-26.491z"/>
    <path id="use3992" d="m606.59 510.53c-4.3857-0.85864-12.751 7.979-8.4638 12.534 5.2881 2.8941 11.123-7.5352 8.4638-12.534z" sodipodi:nodetypes="ccc" style="stroke-linejoin:round;stroke:#000;stroke-width:1.8737;fill:#fff" inkscape:connector-curvature="0"/>
    <path id="path4012" d="m653 567.6c-16.6-27.6-2.2-51.4 14.8-73.2 4.8 5.7333 5.8 9.6667 10.6 15.4 3.6 26.867-12.2 45.133-25.4 57.8z" sodipodi:nodetypes="cccc" style="stroke-linejoin:round;stroke:#000;stroke-width:2;fill:#fff" inkscape:connector-curvature="0"/>
    <path id="use4014" d="m664.56 511.51c-9.5819 2.9532-16.455 29.017-3.0439 33.378 13.577 0.0645 13.729-26.434 3.0439-33.378z" sodipodi:nodetypes="ccc" style="stroke-linejoin:round;stroke:#000;stroke-width:1.8737;fill:#fff" inkscape:connector-curvature="0"/>
    <path id="use4016" sodipodi:nodetypes="ccc" style="stroke-linejoin:round;stroke:#000;stroke-width:1.8737;fill:#fff" inkscape:connector-curvature="0" d="m663.82 514.31c-4.1582 1.6373-6.4504 13.588-0.38536 15.119 6.0144-0.40769 5.3178-12.338 0.38536-15.119z"/>
    <path id="path4080" d="m640.2 387.8c-5.2667 25.8-10.533 51.6-15.8 77.4-1.4667 32 26.267 32 35.4 10.8 2.2-9.8667 1.8-20.333-2-32-12.467 0.13333-3.1333-12.533 2.2-5.6 8.2667 13.333 4.1333 40.267 5 60.4 4.8 10 15.4 18.6 21.6 17.2-3.4667-14.867 6.2667-27.933 0.4-49.2-19.467-26.067-23.933-66.733-41.2-81.8-2.9333 0.73333-2.6667 2.0667-5.6 2.8z" sodipodi:nodetypes="cccccccccc" style="stroke-linejoin:round;stroke:#000;stroke-width:2;fill:#fff" inkscape:connector-curvature="0"/>
    <path id="path4026" d="m607.72 358.86c29.533 15 13.067 48.8 21.4 73.8 0.46667 23.933-2.6667 41.667-13.4 52.8-21.534 17.151-29.457-8.6892-24.8-23.4 14.8-32.8 16.8-69.6 16.8-103.2z" sodipodi:nodetypes="ccccc" style="stroke-linejoin:round;stroke:#000;stroke-width:2;fill:#fff" inkscape:connector-curvature="0"/>
    <path id="use4028" sodipodi:nodetypes="ccc" style="stroke-linejoin:round;stroke:#000;stroke-width:1.7817;fill:#fff" inkscape:connector-curvature="0" d="m613.04 452.94c-9.9529 0.55918-22.697 22.119-10.755 28.842 13.108 2.962 19.458-20.42 10.755-28.842z"/>
    <path id="use4030" d="m611.67 455.26c-4.4025 0.55696-9.4154 10.626-3.9114 13.277 5.9088 0.9267 8.028-9.7641 3.9114-13.277z" sodipodi:nodetypes="ccc" style="stroke-linejoin:round;stroke:#000;stroke-width:1.7817;fill:#fff" inkscape:connector-curvature="0"/>
    <g id="g4048" style="fill:#fff" transform="translate(.70278 -.14478)">
     <path id="path3998" style="stroke-linejoin:round;stroke:#000;stroke-width:2;fill:#fff" inkscape:connector-curvature="0" d="m594.5 361.5c1.0983 20.926 8.3905 39.009-5.4062 64.688-10.306 14.635-11.692 4.1055-11.906 1-12.038-0.22014-12.909 13.68-8.0938 17 5.7637 5.2306 18.113 3.2219 24.812-9.7812-2.0317 9.7918-6.5849 16.075-20.312 23.688-12.635 5.3576-10.419-4.6755-5-6.4062-7.5333-5.294-18.067-1.8296-21 3.9062-5.5432 15.833 12.828 14.819 22.906 14.219-11.334 6.7346-8.8324 10.214-34.094 12.5-29.565 2.331-37.303-10.764-36.719-16.812 0.3208-8.0416 15.009-8.3926 9.8125 3 21.435 6.6828 14.366-26.801-1.5-27.188-16.3-0.38777-27.022 9.1912-23.812 25.594-48.269-26.248-43.139 31.733-10.688 36.594 17.602 4.2168 30.906 5.611 51-0.0937 64.5-23.17 95.5-56.74 84-141.91h-14zm-119.75 109.25c2.6772-0.0804 6.2182 0.71926 10.75 2.9375 8.7808 14.56 20.497 18.064 53.5 17.312-21.388 4.9372-46.349 9.511-70.5-10.5-1.8488-3.4872-0.59185-9.5447 6.25-9.75z"/>
     <path id="path4022" sodipodi:nodetypes="cc" style="stroke:#000;stroke-linecap:round;stroke-width:2;fill:#fff" inkscape:connector-curvature="0" d="m570.2 470c5.8667-3.6 10.933-7.8 14.6-13.2"/>
     <path id="path4024" sodipodi:nodetypes="cc" style="stroke:#000;stroke-linecap:round;stroke-width:2;fill:#fff" inkscape:connector-curvature="0" d="m603.8 387.8c1.9333 21-2.3333 36.6-9.8 46.8"/>
    </g>
    <path id="path3976-1" d="m676.82 492.05c10.956-0.40893 12.359-26.129-0.48391-30.869-9.4719 2.3108-10.367 28.84 0.48391 30.869z" sodipodi:nodetypes="ccc" style="stroke-linejoin:round;stroke:#000;stroke-width:1.7088;fill:#fff" inkscape:connector-curvature="0"/>
    <path id="path3978-7" d="m675.66 476.66c-5.2145-0.33371-2.2397-12.449 1.0918-12.967 4.53 2.2313 4.3207 13.463-1.0918 12.967z" sodipodi:nodetypes="ccc" style="stroke-linejoin:round;stroke:#000;stroke-width:1.7088;fill:#fff" inkscape:connector-curvature="0"/>
    <path id="use4154" sodipodi:nodetypes="ccc" style="stroke-linejoin:round;stroke:#000;stroke-width:1.6976;fill:#fff" inkscape:connector-curvature="0" d="m639.85 481.68c10.923 0.9094 15.607-24.108 3.4706-30.284-9.6939 1.1303-13.978 27.001-3.4706 30.284z"/>
    <path id="use4156" sodipodi:nodetypes="ccc" style="stroke-linejoin:round;stroke:#000;stroke-width:1.6976;fill:#fff" inkscape:connector-curvature="0" d="m640.67 466.47c-5.1312-0.95018-0.62907-12.457 2.7429-12.567 4.2092 2.7264 2.564 13.699-2.7429 12.567z"/>
    <path id="path4162" d="m610 355.2c8.3333 19.133 9.4667 44.667 7.4 69.6 1.0667 20.467 27.533 19.333 31.2 1.6 2.4-15.667-4.2-31.933-11-43.2-9.2-9.3333-18.4-18.667-27.6-28z" sodipodi:nodetypes="ccccc" style="opacity:0.98;stroke-linejoin:round;stroke:#000;stroke-width:2;fill:#fff" inkscape:connector-curvature="0"/>
    <path id="path3982-4" d="m632.64 402.03c-8.9833 4.5429-12.317 27.496 1.36 28.124 13.28-2.9423 9.9876-24.77-1.36-28.124z" sodipodi:nodetypes="ccc" style="stroke-linejoin:round;stroke:#000;stroke-width:1.7098;fill:#fff" inkscape:connector-curvature="0"/>
    <path id="use3984-0" sodipodi:nodetypes="ccc" style="stroke-linejoin:round;stroke:#000;stroke-width:1.7098;fill:#fff" inkscape:connector-curvature="0" d="m632.28 404.5c-3.8523 2.264-4.5406 12.599 1.5872 12.52 5.8265-1.6623 3.5958-11.321-1.5872-12.52z"/>
    <path id="path4185" d="m693.4 468.2c-17.4-34.4-13.8-75.4-45-114.6-4.2667 7.7333-8.5333 15.467-12.8 23.2 25.761 11.256 20.444 87.955 57.8 91.4z" sodipodi:nodetypes="cccc" style="stroke-linejoin:round;stroke:#000;stroke-width:2;fill:#fff" inkscape:connector-curvature="0"/>
    <path id="path5103-9" d="m685.1 448.13c-13.215-1.9214-21.575-29.838-9.1195-33.84 2.4706 10.787 6.9333 23.501 9.1195 33.84z" sodipodi:nodetypes="ccc" style="stroke-linejoin:round;stroke:#000;stroke-width:1.7947;fill:#fff" inkscape:connector-curvature="0"/>
    <path id="path5105-4" d="m680.5 434.4c-10.025-0.0747-8.4874-12.233-4.377-15.389 2.8954 4.7769 2.9858 9.3787 4.377 15.389z" sodipodi:nodetypes="ccc" style="stroke-linejoin:round;stroke:#000;stroke-width:1.7947;fill:#fff" inkscape:connector-curvature="0"/>
    <path id="path4208" d="m701.65 416.15c4.8462 0.93004 6.9606-0.64685 10.579-3.3745 4.9445 4.4935 2.3928 11.132-5.4539 13.824-29.558 10.767-35.867-76.842-72.3-86.825-3.525 0.19167-4.675 3.5083-2.2 6.825 15.392-2.95 24.408 17.225 21.8 34.275-1.1917 8.8917-14.508 17.158-25.075 5.05-13.7-17.642-17.4-36.658-25.6-55.925 16.333-3.9333 32.667-7.8667 49-11.8 17.983 34.45 33.342 50.775 40.95 87.725 2.6 4.1167 4.95 9.4833 8.3 10.225z" sodipodi:nodetypes="ccccccccccc" style="stroke-linejoin:round;stroke:#000;stroke-width:2;fill:#fff" inkscape:connector-curvature="0"/>
    <path id="path5103-9-8" d="m693.95 406.43c-15.411-0.51385-21.489-25.149-9.2467-28.66 2.5176 9.1398 7.0128 19.898 9.2467 28.66z" sodipodi:nodetypes="ccc" style="stroke-linejoin:round;stroke:#000;stroke-width:1.6419;fill:#fff" inkscape:connector-curvature="0"/>
    <path id="path5105-4-8" d="m689.31 394.81c-9.8786 0.0262-8.4574-10.314-4.4315-13.032 2.8899 4.0313 3.0143 7.939 4.4315 13.032z" sodipodi:nodetypes="ccc" style="stroke-linejoin:round;stroke:#000;stroke-width:1.6419;fill:#fff" inkscape:connector-curvature="0"/>
    <path id="path3982-2" d="m629.3 357.45c-6.5498 6.7709-0.16686 28.405 12.931 24.879 11.247-6.6169-0.8898-25.257-12.931-24.879z" sodipodi:nodetypes="ccc" style="stroke-linejoin:round;stroke:#000;stroke-width:1.6821;fill:#fff" inkscape:connector-curvature="0"/>
    <path id="use3984-4" sodipodi:nodetypes="ccc" style="stroke-linejoin:round;stroke:#000;stroke-width:1.6821;fill:#fff" inkscape:connector-curvature="0" d="m629.99 359.78c-2.6778 3.1876 0.95888 12.685 6.6783 10.782 4.7804-3.2369-1.3161-11.254-6.6783-10.782z"/>
    <path id="path4252" d="m591.6 290.4c72.067-2.1667 70.733 62.867 88.4 62.1 0.9 7.5667-16 5.7333-19.5 3.5-17.801-10.507-15.072-48.412-62.722-55.165 0.20329-2.0323-1.7702-8.3872-6.1785-10.435z" sodipodi:nodetypes="ccccc" style="stroke-linejoin:round;stroke:#000;stroke-width:2;fill:#fff" inkscape:connector-curvature="0"/>
    <path id="path5103-9-5" d="m671.33 347.56c-16.524 3.6508-27.88-20.54-17.298-28.28 5.1431 9.1527 12.523 19.451 17.298 28.28z" sodipodi:nodetypes="ccc" style="stroke-linejoin:round;stroke:#000;stroke-width:1.6755;fill:#fff" inkscape:connector-curvature="0"/>
    <path id="path5105-4-5" d="m662.09 334.14c-9.7097 2.4945-11.337-9.652-8.1713-13.756 4.022 3.8764 5.2875 8.3016 8.1713 13.756z" sodipodi:nodetypes="ccc" style="stroke-linejoin:round;stroke:#000;stroke-width:1.7947;fill:#fff" inkscape:connector-curvature="0"/>
    <path id="path4275" d="m566.88 305.5c7 0.66667 13.125 3.3333 20.125 4 18.7 13.457 29.638 27.592 29.375 43.375-2.125 22.083-29.125 17.542-34.5 3 4.2917 0.0417 5.4583-5.5417 5.125-10.125-0.79167-6.3333-3.4583-10.792-6-14.75-7.2083-9.8333-12.667-20.792-14.125-25.5z" sodipodi:nodetypes="ccccccc" style="stroke-linejoin:round;stroke:#000;stroke-width:2;fill:#fff" inkscape:connector-curvature="0"/>
    <path id="path3982-2-1" d="m591.54 334.29c-5.1288 6.8822 1.8278 26.782 12.779 22.458 9.1542-7.0962-2.5126-23.735-12.779-22.458z" sodipodi:nodetypes="ccc" style="stroke-linejoin:round;stroke:#000;stroke-width:1.5147;fill:#fff" inkscape:connector-curvature="0"/>
    <path id="use3984-4-7" sodipodi:nodetypes="ccc" style="stroke-linejoin:round;stroke:#000;stroke-width:1.5147;fill:#fff" inkscape:connector-curvature="0" d="m591.65 334.78c-2.0678 3.2089 1.6996 11.882 6.4563 9.6507 3.8615-3.4162-1.9056-10.505-6.4563-9.6507z"/>
    <path id="path4298" d="m597.12 298.5c15.667 2.8333 32.583 5.1667 41.75 18.625 8.4167 16.75-5.4167 22.625-18 19.25-14.375-5.9167-19-17.083-35.5-27.625l11.75-10.25z" sodipodi:nodetypes="ccccc" style="stroke-linejoin:round;stroke:#000;stroke-width:2;fill:#fff" inkscape:connector-curvature="0"/>
    <path id="path3982-2-1-1" d="m611.84 313.31c-1.7661 8.5586 12.988 23.969 21.143 15.279 5.3451-10.482-12.324-20.86-21.143-15.279z" sodipodi:nodetypes="ccc" style="stroke-linejoin:round;stroke:#000;stroke-width:1.5325;fill:#fff" inkscape:connector-curvature="0"/>
    <path id="use3984-4-7-1" sodipodi:nodetypes="ccc" style="stroke-linejoin:round;stroke:#000;stroke-width:1.5325;fill:#fff" inkscape:connector-curvature="0" d="m612.14 313.72c-0.52845 3.8519 6.5722 10.253 9.9651 6.1522 2.076-4.8123-6.1781-8.8924-9.9651-6.1522z"/>
    <path id="path4321" d="m539 278.12c3.125-0.45833 4.625-1.4167 5.875-3.5 3.1667 1.7083 6.7083 1.0417 8.75-1.625 14.5 6.3333 29 13.292 41.625 15.625 18.042 24.792-8.0417 31.708-29.125 17.75-4.83-10.87-20.54-18.87-27.12-28.25z" sodipodi:nodetypes="cccccc" style="stroke-linejoin:round;stroke:#000;stroke-width:2;fill:#fff" inkscape:connector-curvature="0"/>
    <path id="path3982-2-1-1-5" d="m573.03 291.93c-1.9499 7.5076 12.342 21.25 20.637 13.706 5.5469-9.1547-11.755-18.506-20.637-13.706z" sodipodi:nodetypes="ccc" style="stroke-linejoin:round;stroke:#000;stroke-width:1.4324;fill:#fff" inkscape:connector-curvature="0"/>
    <path id="use3984-4-7-1-2" sodipodi:nodetypes="ccc" style="stroke-linejoin:round;stroke:#000;stroke-width:1.4324;fill:#fff" inkscape:connector-curvature="0" d="m573.32 292.29c-0.61311 3.3822 6.2884 9.1024 9.7509 5.5371 2.1714-4.2078-5.9285-7.9005-9.7509-5.5371z"/>
   </g>
  </g>
 </g>
</svg>
