<svg id="svg2" xmlns:inkscape="http://www.inkscape.org/namespaces/inkscape" xmlns:rdf="http://www.w3.org/1999/02/22-rdf-syntax-ns#" xmlns="http://www.w3.org/2000/svg" sodipodi:docname="randomabstract.svg" version="1.1" xmlns:cc="http://creativecommons.org/ns#" xmlns:dc="http://purl.org/dc/elements/1.1/" inkscape:version="0.91 r13725" viewBox="0 0 1000 1000" xmlns:sodipodi="http://sodipodi.sourceforge.net/DTD/sodipodi-0.dtd">
 <sodipodi:namedview id="base" bordercolor="#666666" inkscape:pageshadow="2" inkscape:window-y="1" pagecolor="#ffffff" inkscape:window-height="795" inkscape:window-maximized="1" inkscape:zoom="0.35" inkscape:window-x="0" showgrid="false" borderopacity="1.0" inkscape:current-layer="layer1" inkscape:cx="529.28571" inkscape:cy="177.14286" units="px" inkscape:window-width="1440" inkscape:pageopacity="0.0" inkscape:document-units="px"/>
 <g id="layer1" inkscape:label="Layer 1" inkscape:groupmode="layer" transform="translate(0 -52.362)">
  <path id="path4300" style="fill-opacity:0;stroke:#000;stroke-width:1.843" sodipodi:type="star" sodipodi:sides="5" inkscape:transform-center-x="-1.7214054" sodipodi:r1="483.59201" sodipodi:r2="391.23416" inkscape:transform-center-y="-49.569819" sodipodi:arg1="0.95329409" sodipodi:arg2="1.5816126" transform="matrix(1.065 0 0 1.1105 -40.319 -54.997)" inkscape:randomized="0" sodipodi:cy="594.36212" sodipodi:cx="508.57144" inkscape:rounded="0" inkscape:flatsided="true" d="m788.57 988.65-568.46-6.15-169.82-542.54 463.51-329.16 456.28 339.11z"/>
  <path id="path4302" style="fill-opacity:0;stroke:#000;stroke-width:1.843" sodipodi:type="star" sodipodi:sides="5" inkscape:transform-center-x="-12.05757" sodipodi:r1="411.42856" sodipodi:r2="332.85272" inkscape:transform-center-y="21.151597" sodipodi:arg1="-1.5707963" sodipodi:arg2="-0.9424778" transform="matrix(.83887 .46824 -.49225 .90271 335.83 -101.21)" inkscape:randomized="0" sodipodi:cy="523.79077" sodipodi:cx="505.71432" inkscape:rounded="0" inkscape:flatsided="true" d="m505.71 112.36 391.29 284.29-149.46 459.99-483.66-0.00001-149.46-459.99z"/>
  <path id="path4306" style="fill-opacity:0;stroke:#000;stroke-width:1.843" sodipodi:type="star" sodipodi:sides="5" inkscape:transform-center-x="7.3317581" sodipodi:r1="305.28674" sodipodi:r2="246.98216" inkscape:transform-center-y="-22.642973" sodipodi:arg1="2.1224513" sodipodi:arg2="2.7507698" transform="matrix(1.0147 0 0 1.0202 -3.0194 -6.0232)" inkscape:randomized="0" sodipodi:cy="603.79071" sodipodi:cx="502.85715" inkscape:rounded="0" inkscape:flatsided="true" d="m342.86 863.79-136.72-331.82 273.34-232.57 305.64 188.09-84.43 348.81z"/>
  <path id="path4310" style="fill-opacity:0;stroke:#000;stroke-width:1.843" sodipodi:type="star" sodipodi:sides="5" inkscape:transform-center-x="-15.350493" sodipodi:r1="234.11143" sodipodi:r2="189.40013" inkscape:transform-center-y="-7.2474113" sodipodi:arg1="1.1562895" sodipodi:arg2="1.784608" inkscape:randomized="0" sodipodi:cy="615.21933" sodipodi:cx="514.28571" inkscape:rounded="0" inkscape:flatsided="true" d="m608.57 829.51-268.95-58.397-27.571-273.83 251.91-110.84 183.26 205.33z"/>
  <path id="path4312" style="fill-opacity:0;stroke:#000;stroke-width:1.843" sodipodi:type="star" sodipodi:sides="5" inkscape:transform-center-x="14.126491" sodipodi:r1="163.65718" sodipodi:r2="132.40144" inkscape:transform-center-y="-1.5707161" sodipodi:arg1="-1.8538921" sodipodi:arg2="-1.2255736" inkscape:randomized="0" sodipodi:cy="618.07649" sodipodi:cx="517.14288" inkscape:rounded="0" inkscape:flatsided="true" d="m471.43 460.93 181.04 65.11-5.98 192.3-184.73 53.74-108.2-159.09z"/>
  <path id="path4314" style="fill-opacity:0;stroke:#000;stroke-width:1.843" sodipodi:type="star" sodipodi:sides="5" inkscape:transform-center-x="-10.055262" sodipodi:r1="96.001701" sodipodi:r2="77.667007" inkscape:transform-center-y="0.34174589" sodipodi:arg1="-2.5040439" sodipodi:arg2="-1.8757253" transform="matrix(1.129 0 0 1.2483 -71.457 -150.66)" inkscape:randomized="0" sodipodi:cy="618.07648" sodipodi:cx="522.85712" inkscape:rounded="0" inkscape:flatsided="true" d="m445.71 560.93 107.65-33.882 65.49 91.911-67.175 90.687-107.01-35.864z"/>
  <path id="path4318" style="fill-opacity:0;stroke:#000;stroke-width:1.843" sodipodi:type="star" sodipodi:sides="5" inkscape:transform-center-x="-1.3730246" sodipodi:r1="66.945" sodipodi:r2="54.159641" inkscape:transform-center-y="-5.0727586" sodipodi:arg1="2.2655346" sodipodi:arg2="2.8938531" inkscape:randomized="0" sodipodi:cy="618.07644" sodipodi:cx="520.00001" inkscape:rounded="0" inkscape:flatsided="true" d="m477.14 669.5-19.298-76.296 66.598-41.93 60.458 50.382-29.233 73.068z"/>
  <path id="path4320" style="fill-opacity:0;stroke:#000;stroke-width:1.843" sodipodi:type="star" sodipodi:sides="5" inkscape:transform-center-x="3.8196601" sodipodi:r1="40" sodipodi:r2="32.36068" sodipodi:arg1="3.1415927" sodipodi:arg2="3.7699112" inkscape:randomized="0" sodipodi:cy="623.79077" sodipodi:cx="522.85713" inkscape:rounded="0" inkscape:flatsided="true" d="m482.86 623.79 27.639-38.042 44.721 14.531v47.023l-44.721 14.531z"/>
  <rect id="rect4322" style="fill-opacity:0;stroke:#000;stroke-width:1.843" height="345.71" width="42.857" y="58.076" x="5.7143"/>
  <rect id="rect4322-2" style="fill-opacity:0;stroke:#000;stroke-width:1.7592" height="314.37" width="42.941" y="53.749" x="52.815"/>
  <rect id="rect4322-8" style="fill-opacity:0;stroke:#000;stroke-width:1.6709" height="283.03" width="43.029" y="56.562" x="98.485"/>
  <rect id="rect4322-0" style="fill-opacity:0;stroke:#000;stroke-width:1.5419" height="240.3" width="43.158" y="56.497" x="146.99"/>
  <rect id="rect4322-26" style="fill-opacity:0;stroke:#000;stroke-width:1.4492" height="211.82" width="43.251" y="56.451" x="192.66"/>
  <rect id="rect4322-26-6" style="fill-opacity:0;stroke:#000;stroke-width:1.3395" height="180.5" width="43.361" y="52.11" x="241.18"/>
  <rect id="rect4322-26-7" style="fill-opacity:0;stroke:#000;stroke-width:1.1846" height="140.66" width="43.516" y="54.89" x="286.81"/>
  <rect id="rect4322-4" style="fill-opacity:0;stroke:#000;stroke-width:1.843" transform="scale(-1,1)" height="345.71" width="42.857" y="59.505" x="-993.57"/>
  <rect id="rect4322-2-5" style="fill-opacity:0;stroke:#000;stroke-width:1.7592" transform="scale(-1,1)" height="314.37" width="42.941" y="55.177" x="-946.47"/>
  <rect id="rect4322-8-1" style="fill-opacity:0;stroke:#000;stroke-width:1.6709" transform="scale(-1,1)" height="283.03" width="43.029" y="57.99" x="-900.8"/>
  <rect id="rect4322-0-0" style="fill-opacity:0;stroke:#000;stroke-width:1.5419" transform="scale(-1,1)" height="240.3" width="43.158" y="57.926" x="-852.29"/>
  <rect id="rect4322-26-0" style="fill-opacity:0;stroke:#000;stroke-width:1.4492" transform="scale(-1,1)" height="211.82" width="43.251" y="57.88" x="-806.63"/>
  <rect id="rect4322-26-6-5" style="fill-opacity:0;stroke:#000;stroke-width:1.3395" transform="scale(-1,1)" height="180.5" width="43.361" y="53.539" x="-758.11"/>
  <rect id="rect4322-26-7-3" style="fill-opacity:0;stroke:#000;stroke-width:1.1846" transform="scale(-1,1)" height="140.66" width="43.516" y="56.319" x="-712.47"/>
  <rect id="rect4322-26-7-3-5" style="fill-opacity:0;stroke:#000;stroke-width:1.005" transform="scale(-1,1)" height="100.84" width="43.695" y="56.229" x="-664.7"/>
  <rect id="rect4322-26-7-3-3" style="fill-opacity:0;stroke:#000;stroke-width:.80191" transform="scale(-1,1)" height="63.898" width="43.898" y="53.27" x="-616.23"/>
  <rect id="rect4322-26-7-3-36" style="fill-opacity:0;stroke:#000;stroke-width:1.0327" transform="scale(-1,1)" height="106.52" width="43.667" y="56.243" x="-376.12"/>
  <rect id="rect4322-26-7-3-1" style="fill-opacity:0;stroke:#000;stroke-width:.83646" transform="scale(-1,1)" height="69.578" width="43.864" y="56.145" x="-421.93"/>
  <rect id="rect4322-26-7-3-7" style="fill-opacity:0;stroke:#000;stroke-width:.62262" transform="scale(-1,1)" height="38.363" width="44.078" y="53.181" x="-470.61"/>
  <rect id="rect4322-26-7-3-8" style="fill-opacity:0;stroke:#000;stroke-width:.57511" transform="scale(-1,1)" height="32.696" width="44.125" y="53.157" x="-567.78"/>
  <rect id="rect4322-26-7-3-72" style="fill-opacity:0;stroke:#000;stroke-width:2.1939" transform="scale(-1,1)" height="493.93" width="42.506" y="553.97" x="-49.825"/>
  <rect id="rect4322-26-7-3-31" style="fill-opacity:0;stroke:#000;stroke-width:1.7825" transform="scale(-1,1)" height="322.92" width="42.918" y="725.19" x="-92.887"/>
  <rect id="rect4322-26-7-3-2" style="fill-opacity:0;stroke:#000;stroke-width:1.3291" transform="scale(-1,1)" height="177.66" width="43.371" y="870.68" x="-141.69"/>
  <rect id="rect4322-26-7-3-0" style="fill-opacity:0;stroke:#000;stroke-width:.81937" transform="scale(-1,1)" height="66.738" width="43.881" y="978.99" x="-181.94"/>
  <rect id="rect4322-26-7-3-72-5" style="fill-opacity:0;stroke:#000;stroke-width:2.1939" height="493.93" width="42.506" y="559.68" x="958.75"/>
  <rect id="rect4322-26-7-3-31-4" style="fill-opacity:0;stroke:#000;stroke-width:1.7825" height="322.92" width="42.918" y="730.9" x="915.68"/>
  <rect id="rect4322-26-7-3-2-2" style="fill-opacity:0;stroke:#000;stroke-width:1.3291" height="177.66" width="43.371" y="876.39" x="866.89"/>
  <rect id="rect4322-26-7-3-0-3" style="fill-opacity:0;stroke:#000;stroke-width:.81937" height="66.738" width="43.881" y="984.71" x="826.63"/>
  <circle id="path4518" r="47.143" style="fill-opacity:0;stroke:#000;stroke-width:1.843" cx="118.57" cy="479.5"/>
  <ellipse id="path4520" style="fill-opacity:0;stroke:#000;stroke-width:1.843" rx="50" ry="37.143" cy="969.51" cx="281.43"/>
  <circle id="path4522" r="41.429" style="fill-opacity:0;stroke:#000;stroke-width:1.843" cx="752.86" cy="959.51"/>
  <ellipse id="path4524" style="fill-opacity:0;stroke:#000;stroke-width:1.843" rx="44.286" ry="61.429" cy="473.79" cx="890"/>
  <ellipse id="path4526" style="fill-opacity:0;stroke:#000;stroke-width:1.843" rx="47.143" ry="38.571" cy="193.79" cx="492.86"/>
 </g>
</svg>
