<svg id="svg8856" xmlns:inkscape="http://www.inkscape.org/namespaces/inkscape" xmlns:rdf="http://www.w3.org/1999/02/22-rdf-syntax-ns#" xmlns="http://www.w3.org/2000/svg" sodipodi:docname="randomshapes.svg" version="1.1" xmlns:cc="http://creativecommons.org/ns#" xmlns:dc="http://purl.org/dc/elements/1.1/" inkscape:version="0.91 r13725" viewBox="0 0 1000 1000" xmlns:sodipodi="http://sodipodi.sourceforge.net/DTD/sodipodi-0.dtd">
 <sodipodi:namedview id="base" bordercolor="#666666" inkscape:pageshadow="2" inkscape:window-y="1" pagecolor="#ffffff" inkscape:window-height="795" inkscape:window-maximized="1" inkscape:zoom="0.35" inkscape:window-x="0" showgrid="false" borderopacity="1.0" inkscape:current-layer="layer1" inkscape:cx="46.428571" inkscape:cy="520" units="px" inkscape:window-width="1440" inkscape:pageopacity="0.0" inkscape:document-units="px"/>
 <g id="layer1" inkscape:label="Layer 1" inkscape:groupmode="layer" transform="translate(0 -52.362)">
  <g id="g8940" transform="matrix(1.1962 0 0 1.1714 -37.143 184.51)">
   <rect id="svgEditorBackground" style="fill:none" height="650" width="990" y="0" x="0"/>
   <polygon id="e1_polygon" style="stroke:#000;stroke-width:1px;fill:#fff" points="116 317 178 226 294 241 273 455"/>
   <polygon id="e2_polygon" style="stroke:#000;stroke-width:1px;fill:#fff" points="249 180 342 380 397 109 300 76"/>
   <polygon id="e3_polygon" style="stroke:#000;stroke-width:1px;fill:#fff" points="585.5 98.5 544 15 494 175 664 395 635 50"/>
   <polygon id="e4_polygon" style="stroke:#000;stroke-width:1px;fill:#fff" points="491 400 346 245 586 240"/>
   <polygon id="e6_polygon" style="stroke:#000;stroke-width:1px;fill:#fff" points="381.5 498.5 353.5 451.5 403.5 451.5"/>
   <polygon id="e7_polygon" style="stroke:#000;stroke-width:1px;fill:#fff" points="431.75 498.5 403.75 451.5 453.75 451.5"/>
   <polygon id="e8_polygon" style="stroke:#000;stroke-width:1px;fill:#fff" points="509 504 481 457 531 457"/>
   <polygon id="e9_polygon" style="stroke:#000;stroke-width:1px;fill:#fff" points="560 503 532 456 582 456"/>
   <polygon id="e10_polygon" style="stroke:#000;stroke-width:1px;fill:#fff" points="610 503 582 456 632 456"/>
   <polygon id="e11_polygon" style="stroke:#000;stroke-width:1px;fill:#fff" points="402.75 453.25 381.75 498.25 429.75 498.25" transform="matrix(1.0359 0 0 1.0359 -13.608 -17.718)"/>
   <polygon id="e12_polygon" style="stroke:#000;stroke-width:1px;fill:#fff" points="452.75 453 431.75 498 479.75 498" transform="matrix(1.0342 0 0 1.0342 -14.695 -17.134)"/>
   <polygon id="e13_polygon" style="stroke:#000;stroke-width:1px;fill:#fff" points="532 456 511 501 559 501"/>
   <polygon id="e14_polygon" style="stroke:#000;stroke-width:1px;fill:#fff" points="582 457 561 502 609 502"/>
  </g>
 </g>
</svg>
