<svg id="svg4547" xmlns:inkscape="http://www.inkscape.org/namespaces/inkscape" xmlns:rdf="http://www.w3.org/1999/02/22-rdf-syntax-ns#" xmlns="http://www.w3.org/2000/svg" sodipodi:docname="squares.svg" version="1.1" xmlns:cc="http://creativecommons.org/ns#" xmlns:dc="http://purl.org/dc/elements/1.1/" inkscape:version="0.91 r13725" viewBox="0 0 1000 1000" xmlns:sodipodi="http://sodipodi.sourceforge.net/DTD/sodipodi-0.dtd">
 <sodipodi:namedview id="base" bordercolor="#666666" inkscape:pageshadow="2" inkscape:window-y="1" pagecolor="#ffffff" inkscape:window-height="795" inkscape:window-maximized="1" inkscape:zoom="0.42002143" inkscape:window-x="0" showgrid="false" borderopacity="1.0" inkscape:current-layer="layer1" inkscape:cx="308.3654" inkscape:cy="443.56215" units="px" inkscape:window-width="1440" inkscape:pageopacity="0.0" inkscape:document-units="px"/>
 <g id="layer1" inkscape:label="Layer 1" inkscape:groupmode="layer" transform="translate(0 -52.362)">
  <rect id="rect5097-5" style="fill-opacity:0;stroke:#000;stroke-width:3" height="69.044" width="73.806" y="77.793" x="201.18"/>
  <rect id="rect5097-7" style="fill-opacity:0;stroke:#000;stroke-width:3" height="69.044" width="73.806" y="77.793" x="894"/>
  <rect id="rect5097-9" style="fill-opacity:0;stroke:#000;stroke-width:3" height="69.044" width="73.806" y="77.793" x="286.89"/>
  <rect id="rect5097-72" style="fill-opacity:0;stroke:#000;stroke-width:3" height="69.044" width="73.806" y="77.412" x="803.53"/>
  <rect id="rect5097-1" style="fill-opacity:0;stroke:#000;stroke-width:3" height="69.044" width="73.806" y="77.412" x="27.38"/>
  <rect id="rect5097-3" style="fill-opacity:0;stroke:#000;stroke-width:3" height="69.044" width="73.806" y="77.412" x="377.36"/>
  <rect id="rect5097-66" style="fill-opacity:0;stroke:#000;stroke-width:3" height="69.044" width="73.806" y="77.793" x="548.78"/>
  <rect id="rect5097-2" style="fill-opacity:0;stroke:#000;stroke-width:3" height="69.044" width="73.806" y="77.412" x="717.82"/>
  <rect id="rect5097-97" style="fill-opacity:0;stroke:#000;stroke-width:3" height="69.044" width="73.806" y="77.793" x="632.11"/>
  <rect id="rect5097-96" style="fill-opacity:0;stroke:#000;stroke-width:3" height="69.044" width="73.806" y="77.793" x="463.07"/>
  <rect id="rect5097-23" style="fill-opacity:0;stroke:#000;stroke-width:3" height="69.044" width="73.806" y="77.412" x="113.09"/>
  <rect id="rect5097-5-0" style="fill-opacity:0;stroke:#000;stroke-width:3" height="69.044" width="73.806" y="160.93" x="201.18"/>
  <rect id="rect5097-7-5" style="fill-opacity:0;stroke:#000;stroke-width:3" height="69.044" width="73.806" y="160.93" x="894"/>
  <rect id="rect5097-9-2" style="fill-opacity:0;stroke:#000;stroke-width:3" height="69.044" width="73.806" y="160.93" x="286.89"/>
  <rect id="rect5097-72-1" style="fill-opacity:0;stroke:#000;stroke-width:3" height="69.044" width="73.806" y="160.55" x="803.53"/>
  <rect id="rect5097-1-4" style="fill-opacity:0;stroke:#000;stroke-width:3" height="69.044" width="73.806" y="160.55" x="27.38"/>
  <rect id="rect5097-3-3" style="fill-opacity:0;stroke:#000;stroke-width:3" height="69.044" width="73.806" y="160.55" x="377.36"/>
  <rect id="rect5097-66-2" style="fill-opacity:0;stroke:#000;stroke-width:3" height="69.044" width="73.806" y="160.93" x="548.78"/>
  <rect id="rect5097-2-0" style="fill-opacity:0;stroke:#000;stroke-width:3" height="69.044" width="73.806" y="160.55" x="717.82"/>
  <rect id="rect5097-97-9" style="fill-opacity:0;stroke:#000;stroke-width:3" height="69.044" width="73.806" y="160.93" x="632.11"/>
  <rect id="rect5097-96-6" style="fill-opacity:0;stroke:#000;stroke-width:3" height="69.044" width="73.806" y="160.93" x="463.07"/>
  <rect id="rect5097-23-9" style="fill-opacity:0;stroke:#000;stroke-width:3" height="69.044" width="73.806" y="160.55" x="113.09"/>
  <rect id="rect5097-5-5" style="fill-opacity:0;stroke:#000;stroke-width:3" height="69.044" width="73.806" y="241.88" x="201.18"/>
  <rect id="rect5097-7-4" style="fill-opacity:0;stroke:#000;stroke-width:3" height="69.044" width="73.806" y="241.88" x="894"/>
  <rect id="rect5097-9-7" style="fill-opacity:0;stroke:#000;stroke-width:3" height="69.044" width="73.806" y="241.88" x="286.89"/>
  <rect id="rect5097-72-9" style="fill-opacity:0;stroke:#000;stroke-width:3" height="69.044" width="73.806" y="241.5" x="803.53"/>
  <rect id="rect5097-1-1" style="fill-opacity:0;stroke:#000;stroke-width:3" height="69.044" width="73.806" y="241.5" x="27.38"/>
  <rect id="rect5097-3-7" style="fill-opacity:0;stroke:#000;stroke-width:3" height="69.044" width="73.806" y="241.5" x="377.36"/>
  <rect id="rect5097-66-9" style="fill-opacity:0;stroke:#000;stroke-width:3" height="69.044" width="73.806" y="241.88" x="548.78"/>
  <rect id="rect5097-2-7" style="fill-opacity:0;stroke:#000;stroke-width:3" height="69.044" width="73.806" y="241.5" x="717.82"/>
  <rect id="rect5097-97-8" style="fill-opacity:0;stroke:#000;stroke-width:3" height="69.044" width="73.806" y="241.88" x="632.11"/>
  <rect id="rect5097-96-63" style="fill-opacity:0;stroke:#000;stroke-width:3" height="69.044" width="73.806" y="241.88" x="463.07"/>
  <rect id="rect5097-23-0" style="fill-opacity:0;stroke:#000;stroke-width:3" height="69.044" width="73.806" y="241.5" x="113.09"/>
  <rect id="rect5097-5-2" style="fill-opacity:0;stroke:#000;stroke-width:3" height="69.044" width="73.806" y="321.21" x="200.42"/>
  <rect id="rect5097-7-3" style="fill-opacity:0;stroke:#000;stroke-width:3" height="69.044" width="73.806" y="321.21" x="893.24"/>
  <rect id="rect5097-9-1" style="fill-opacity:0;stroke:#000;stroke-width:3" height="69.044" width="73.806" y="321.21" x="286.13"/>
  <rect id="rect5097-72-6" style="fill-opacity:0;stroke:#000;stroke-width:3" height="69.044" width="73.806" y="320.83" x="802.77"/>
  <rect id="rect5097-1-7" style="fill-opacity:0;stroke:#000;stroke-width:3" height="69.044" width="73.806" y="320.83" x="26.618"/>
  <rect id="rect5097-3-30" style="fill-opacity:0;stroke:#000;stroke-width:3" height="69.044" width="73.806" y="320.83" x="376.6"/>
  <rect id="rect5097-66-1" style="fill-opacity:0;stroke:#000;stroke-width:3" height="69.044" width="73.806" y="321.21" x="548.02"/>
  <rect id="rect5097-2-9" style="fill-opacity:0;stroke:#000;stroke-width:3" height="69.044" width="73.806" y="320.83" x="717.06"/>
  <rect id="rect5097-97-1" style="fill-opacity:0;stroke:#000;stroke-width:3" height="69.044" width="73.806" y="321.21" x="631.35"/>
  <rect id="rect5097-96-9" style="fill-opacity:0;stroke:#000;stroke-width:3" height="69.044" width="73.806" y="321.21" x="462.31"/>
  <rect id="rect5097-23-96" style="fill-opacity:0;stroke:#000;stroke-width:3" height="69.044" width="73.806" y="320.83" x="112.33"/>
  <rect id="rect5097-5-55" style="fill-opacity:0;stroke:#000;stroke-width:3" height="69.044" width="73.806" y="399.4" x="203.18"/>
  <rect id="rect5097-7-2" style="fill-opacity:0;stroke:#000;stroke-width:3" height="69.044" width="73.806" y="399.4" x="896"/>
  <rect id="rect5097-9-0" style="fill-opacity:0;stroke:#000;stroke-width:3" height="69.044" width="73.806" y="399.4" x="288.89"/>
  <rect id="rect5097-72-2" style="fill-opacity:0;stroke:#000;stroke-width:3" height="69.044" width="73.806" y="399.01" x="805.53"/>
  <rect id="rect5097-1-0" style="fill-opacity:0;stroke:#000;stroke-width:3" height="69.044" width="73.806" y="399.01" x="29.38"/>
  <rect id="rect5097-3-9" style="fill-opacity:0;stroke:#000;stroke-width:3" height="69.044" width="73.806" y="399.01" x="379.36"/>
  <rect id="rect5097-66-7" style="fill-opacity:0;stroke:#000;stroke-width:3" height="69.044" width="73.806" y="399.4" x="550.78"/>
  <rect id="rect5097-2-93" style="fill-opacity:0;stroke:#000;stroke-width:3" height="69.044" width="73.806" y="399.01" x="719.82"/>
  <rect id="rect5097-97-4" style="fill-opacity:0;stroke:#000;stroke-width:3" height="69.044" width="73.806" y="399.4" x="634.11"/>
  <rect id="rect5097-96-8" style="fill-opacity:0;stroke:#000;stroke-width:3" height="69.044" width="73.806" y="399.4" x="465.07"/>
  <rect id="rect5097-23-91" style="fill-opacity:0;stroke:#000;stroke-width:3" height="69.044" width="73.806" y="399.01" x="115.09"/>
  <rect id="rect5097-5-23" style="fill-opacity:0;stroke:#000;stroke-width:3" height="69.044" width="73.806" y="478.68" x="202.94"/>
  <rect id="rect5097-7-6" style="fill-opacity:0;stroke:#000;stroke-width:3" height="69.044" width="73.806" y="478.68" x="895.76"/>
  <rect id="rect5097-9-28" style="fill-opacity:0;stroke:#000;stroke-width:3" height="69.044" width="73.806" y="478.68" x="288.65"/>
  <rect id="rect5097-72-7" style="fill-opacity:0;stroke:#000;stroke-width:3" height="69.044" width="73.806" y="478.3" x="805.29"/>
  <rect id="rect5097-1-2" style="fill-opacity:0;stroke:#000;stroke-width:3" height="69.044" width="73.806" y="478.3" x="29.141"/>
  <rect id="rect5097-3-1" style="fill-opacity:0;stroke:#000;stroke-width:3" height="69.044" width="73.806" y="478.3" x="379.12"/>
  <rect id="rect5097-66-72" style="fill-opacity:0;stroke:#000;stroke-width:3" height="69.044" width="73.806" y="478.68" x="550.54"/>
  <rect id="rect5097-2-73" style="fill-opacity:0;stroke:#000;stroke-width:3" height="69.044" width="73.806" y="478.3" x="719.58"/>
  <rect id="rect5097-97-84" style="fill-opacity:0;stroke:#000;stroke-width:3" height="69.044" width="73.806" y="478.68" x="633.87"/>
  <rect id="rect5097-96-2" style="fill-opacity:0;stroke:#000;stroke-width:3" height="69.044" width="73.806" y="478.68" x="464.83"/>
  <rect id="rect5097-23-95" style="fill-opacity:0;stroke:#000;stroke-width:3" height="69.044" width="73.806" y="478.3" x="114.85"/>
  <rect id="rect5097-5-0-1" style="fill-opacity:0;stroke:#000;stroke-width:3" height="69.044" width="73.806" y="561.82" x="202.94"/>
  <rect id="rect5097-7-5-3" style="fill-opacity:0;stroke:#000;stroke-width:3" height="69.044" width="73.806" y="561.82" x="895.76"/>
  <rect id="rect5097-9-2-1" style="fill-opacity:0;stroke:#000;stroke-width:3" height="69.044" width="73.806" y="561.82" x="288.65"/>
  <rect id="rect5097-72-1-9" style="fill-opacity:0;stroke:#000;stroke-width:3" height="69.044" width="73.806" y="561.43" x="805.29"/>
  <rect id="rect5097-1-4-9" style="fill-opacity:0;stroke:#000;stroke-width:3" height="69.044" width="73.806" y="561.43" x="29.141"/>
  <rect id="rect5097-3-3-3" style="fill-opacity:0;stroke:#000;stroke-width:3" height="69.044" width="73.806" y="561.43" x="379.12"/>
  <rect id="rect5097-66-2-0" style="fill-opacity:0;stroke:#000;stroke-width:3" height="69.044" width="73.806" y="561.82" x="550.54"/>
  <rect id="rect5097-2-0-7" style="fill-opacity:0;stroke:#000;stroke-width:3" height="69.044" width="73.806" y="561.43" x="719.58"/>
  <rect id="rect5097-97-9-1" style="fill-opacity:0;stroke:#000;stroke-width:3" height="69.044" width="73.806" y="561.82" x="633.87"/>
  <rect id="rect5097-96-6-4" style="fill-opacity:0;stroke:#000;stroke-width:3" height="69.044" width="73.806" y="561.82" x="464.83"/>
  <rect id="rect5097-23-9-3" style="fill-opacity:0;stroke:#000;stroke-width:3" height="69.044" width="73.806" y="561.44" x="114.85"/>
  <rect id="rect5097-5-5-0" style="fill-opacity:0;stroke:#000;stroke-width:3" height="69.044" width="73.806" y="642.76" x="202.94"/>
  <rect id="rect5097-7-4-4" style="fill-opacity:0;stroke:#000;stroke-width:3" height="69.044" width="73.806" y="642.76" x="895.76"/>
  <rect id="rect5097-9-7-4" style="fill-opacity:0;stroke:#000;stroke-width:3" height="69.044" width="73.806" y="642.76" x="288.65"/>
  <rect id="rect5097-72-9-6" style="fill-opacity:0;stroke:#000;stroke-width:3" height="69.044" width="73.806" y="642.38" x="805.29"/>
  <rect id="rect5097-1-1-0" style="fill-opacity:0;stroke:#000;stroke-width:3" height="69.044" width="73.806" y="642.38" x="29.141"/>
  <rect id="rect5097-3-7-9" style="fill-opacity:0;stroke:#000;stroke-width:3" height="69.044" width="73.806" y="642.38" x="379.12"/>
  <rect id="rect5097-66-9-5" style="fill-opacity:0;stroke:#000;stroke-width:3" height="69.044" width="73.806" y="642.76" x="550.54"/>
  <rect id="rect5097-2-7-8" style="fill-opacity:0;stroke:#000;stroke-width:3" height="69.044" width="73.806" y="642.38" x="719.58"/>
  <rect id="rect5097-97-8-5" style="fill-opacity:0;stroke:#000;stroke-width:3" height="69.044" width="73.806" y="642.76" x="633.87"/>
  <rect id="rect5097-96-63-8" style="fill-opacity:0;stroke:#000;stroke-width:3" height="69.044" width="73.806" y="642.76" x="464.83"/>
  <rect id="rect5097-23-0-6" style="fill-opacity:0;stroke:#000;stroke-width:3" height="69.044" width="73.806" y="642.38" x="114.85"/>
  <rect id="rect5097-5-2-9" style="fill-opacity:0;stroke:#000;stroke-width:3" height="69.044" width="73.806" y="722.09" x="202.18"/>
  <rect id="rect5097-7-3-0" style="fill-opacity:0;stroke:#000;stroke-width:3" height="69.044" width="73.806" y="722.09" x="895"/>
  <rect id="rect5097-9-1-6" style="fill-opacity:0;stroke:#000;stroke-width:3" height="69.044" width="73.806" y="722.09" x="287.89"/>
  <rect id="rect5097-72-6-7" style="fill-opacity:0;stroke:#000;stroke-width:3" height="69.044" width="73.806" y="721.71" x="804.53"/>
  <rect id="rect5097-1-7-6" style="fill-opacity:0;stroke:#000;stroke-width:3" height="69.044" width="73.806" y="721.71" x="28.38"/>
  <rect id="rect5097-3-30-8" style="fill-opacity:0;stroke:#000;stroke-width:3" height="69.044" width="73.806" y="721.71" x="378.36"/>
  <rect id="rect5097-66-1-0" style="fill-opacity:0;stroke:#000;stroke-width:3" height="69.044" width="73.806" y="722.09" x="549.78"/>
  <rect id="rect5097-2-9-4" style="fill-opacity:0;stroke:#000;stroke-width:3" height="69.044" width="73.806" y="721.71" x="718.82"/>
  <rect id="rect5097-97-1-6" style="fill-opacity:0;stroke:#000;stroke-width:3" height="69.044" width="73.806" y="722.09" x="633.11"/>
  <rect id="rect5097-96-9-0" style="fill-opacity:0;stroke:#000;stroke-width:3" height="69.044" width="73.806" y="722.09" x="464.07"/>
  <rect id="rect5097-23-96-2" style="fill-opacity:0;stroke:#000;stroke-width:3" height="69.044" width="73.806" y="721.71" x="114.09"/>
  <rect id="rect5097-5-55-5" style="fill-opacity:0;stroke:#000;stroke-width:3" height="69.044" width="73.806" y="800.28" x="204.94"/>
  <rect id="rect5097-7-2-9" style="fill-opacity:0;stroke:#000;stroke-width:3" height="69.044" width="73.806" y="800.28" x="897.76"/>
  <rect id="rect5097-9-0-3" style="fill-opacity:0;stroke:#000;stroke-width:3" height="69.044" width="73.806" y="800.28" x="290.65"/>
  <rect id="rect5097-72-2-4" style="fill-opacity:0;stroke:#000;stroke-width:3" height="69.044" width="73.806" y="799.9" x="807.29"/>
  <rect id="rect5097-1-0-6" style="fill-opacity:0;stroke:#000;stroke-width:3" height="69.044" width="73.806" y="799.9" x="31.141"/>
  <rect id="rect5097-3-9-0" style="fill-opacity:0;stroke:#000;stroke-width:3" height="69.044" width="73.806" y="799.9" x="381.12"/>
  <rect id="rect5097-66-7-4" style="fill-opacity:0;stroke:#000;stroke-width:3" height="69.044" width="73.806" y="800.28" x="552.54"/>
  <rect id="rect5097-2-93-5" style="fill-opacity:0;stroke:#000;stroke-width:3" height="69.044" width="73.806" y="799.9" x="721.58"/>
  <rect id="rect5097-97-4-2" style="fill-opacity:0;stroke:#000;stroke-width:3" height="69.044" width="73.806" y="800.28" x="635.87"/>
  <rect id="rect5097-96-8-7" style="fill-opacity:0;stroke:#000;stroke-width:3" height="69.044" width="73.806" y="800.28" x="466.83"/>
  <rect id="rect5097-23-91-6" style="fill-opacity:0;stroke:#000;stroke-width:3" height="69.044" width="73.806" y="799.9" x="116.85"/>
  <rect id="rect5097-5-55-5-2" style="fill-opacity:0;stroke:#000;stroke-width:3" height="69.044" width="73.806" y="882.7" x="203.18"/>
  <rect id="rect5097-7-2-9-0" style="fill-opacity:0;stroke:#000;stroke-width:3" height="69.044" width="73.806" y="882.7" x="896"/>
  <rect id="rect5097-9-0-3-3" style="fill-opacity:0;stroke:#000;stroke-width:3" height="69.044" width="73.806" y="882.7" x="288.89"/>
  <rect id="rect5097-72-2-4-3" style="fill-opacity:0;stroke:#000;stroke-width:3" height="69.044" width="73.806" y="882.32" x="805.53"/>
  <rect id="rect5097-1-0-6-9" style="fill-opacity:0;stroke:#000;stroke-width:3" height="69.044" width="73.806" y="882.32" x="29.38"/>
  <rect id="rect5097-3-9-0-7" style="fill-opacity:0;stroke:#000;stroke-width:3" height="69.044" width="73.806" y="882.32" x="379.36"/>
  <rect id="rect5097-66-7-4-0" style="fill-opacity:0;stroke:#000;stroke-width:3" height="69.044" width="73.806" y="882.7" x="550.78"/>
  <rect id="rect5097-2-93-5-9" style="fill-opacity:0;stroke:#000;stroke-width:3" height="69.044" width="73.806" y="882.32" x="719.82"/>
  <rect id="rect5097-97-4-2-2" style="fill-opacity:0;stroke:#000;stroke-width:3" height="69.044" width="73.806" y="882.7" x="634.11"/>
  <rect id="rect5097-96-8-7-1" style="fill-opacity:0;stroke:#000;stroke-width:3" height="69.044" width="73.806" y="882.7" x="465.07"/>
  <rect id="rect5097-23-91-6-7" style="fill-opacity:0;stroke:#000;stroke-width:3" height="69.044" width="73.806" y="882.32" x="115.09"/>
  <rect id="rect5097-5-55-5-8" style="fill-opacity:0;stroke:#000;stroke-width:3" height="69.044" width="73.806" y="966.03" x="203.18"/>
  <rect id="rect5097-7-2-9-5" style="fill-opacity:0;stroke:#000;stroke-width:3" height="69.044" width="73.806" y="966.03" x="896"/>
  <rect id="rect5097-9-0-3-5" style="fill-opacity:0;stroke:#000;stroke-width:3" height="69.044" width="73.806" y="966.03" x="288.89"/>
  <rect id="rect5097-72-2-4-38" style="fill-opacity:0;stroke:#000;stroke-width:3" height="69.044" width="73.806" y="965.65" x="805.53"/>
  <rect id="rect5097-1-0-6-7" style="fill-opacity:0;stroke:#000;stroke-width:3" height="69.044" width="73.806" y="965.65" x="29.38"/>
  <rect id="rect5097-3-9-0-0" style="fill-opacity:0;stroke:#000;stroke-width:3" height="69.044" width="73.806" y="965.65" x="379.36"/>
  <rect id="rect5097-66-7-4-7" style="fill-opacity:0;stroke:#000;stroke-width:3" height="69.044" width="73.806" y="966.03" x="550.78"/>
  <rect id="rect5097-2-93-5-5" style="fill-opacity:0;stroke:#000;stroke-width:3" height="69.044" width="73.806" y="965.65" x="719.82"/>
  <rect id="rect5097-97-4-2-1" style="fill-opacity:0;stroke:#000;stroke-width:3" height="69.044" width="73.806" y="966.03" x="634.11"/>
  <rect id="rect5097-96-8-7-9" style="fill-opacity:0;stroke:#000;stroke-width:3" height="69.044" width="73.806" y="966.03" x="465.07"/>
  <rect id="rect5097-23-91-6-0" style="fill-opacity:0;stroke:#000;stroke-width:3" height="69.044" width="73.806" y="965.65" x="115.09"/>
 </g>
</svg>
