<svg xmlns="http://www.w3.org/2000/svg" xmlns:xlink="http://www.w3.org/1999/xlink" viewBox="0 0 1000 1000" preserveAspectRatio="xMidYMid meet"  ><defs id="svgEditorDefs"><path id="svgEditorClosePathDefs" stroke="black" fill="white" style="stroke-width: 1px; vector-effect: non-scaling-stroke;"/></defs><rect id="svgEditorBackground" x="0" y="0" width="1000" height="1000" style="fill: none; stroke: none;"/><ellipse id="e1_ellipse" cx="115.789474" cy="431.578947" stroke="black" style="stroke-width: 1px; vector-effect: non-scaling-stroke;" rx="347.368421" ry="296.49122800000004" fill="white"/><polygon stroke="black" id="e2_polygon" style="stroke-width: 1px; vector-effect: non-scaling-stroke;" points="185.965 133.333 354.386 28.0702 347.368 203.509" fill="white"/><circle id="e3_circle" cx="-29.824561" cy="328.070175" stroke="black" style="stroke-width: 1px; vector-effect: non-scaling-stroke;" r="55.838002" fill="white"/><circle id="e4_circle" cx="184.21041915731215" cy="329.82452380297417" stroke="black" style="stroke-width: 1px; vector-effect: non-scaling-stroke;" r="53.47281" fill="white"/><path d="M-36.842105000000004,529.824561a82.167781,82.167781,0,1,1,135.087719,78.94736899999998" stroke="black" id="e5_circleArc" style="fill: none; stroke-width: 1px; vector-effect: non-scaling-stroke;"/><polygon stroke="black" id="e6_polygon" style="stroke-width: 1px; vector-effect: non-scaling-stroke;" points="-198.246 949.123 21.0526 721.053 250.877 743.86 350.877 987.719" fill="white"/><path d="M280.701752,812.280701c1.1450510000000236,-67.26586600000007,140.685027,-183.154986,207.01754699999998,-171.92980999999997s85.60816299999999,36.65829999999994,105.26318400000002,59.64910899999995s-313.69279,195.231857,-312.280731,112.28070100000002Z" stroke="black" id="e8_areaS3" fill="white" style="stroke-width: 1px; vector-effect: non-scaling-stroke;"/><path d="M-61.403507,800c-6.677314000000003,-1.3318729999999732,-19.861916,-4.847752000000014,-26.31579200000001,-7.017516999999998s-83.467882,-222.45335599999999,-145.614029,-208.771973s-76.576999,43.96507299999996,-91.228073,68.42108199999996s336.46831499999996,165.00862900000004,263.157894,147.36840800000004Z" stroke="black" id="e10_areaS3" fill="white" style="stroke-width: 1px; vector-effect: non-scaling-stroke;"/><ellipse id="e11_ellipse" cx="419080.3124970508" cy="4078.9460163789045" stroke="black" style="stroke-width: 1px; vector-effect: non-scaling-stroke;" rx="122.80701699999986" ry="29.824562000000014" fill="white"/><polygon stroke="black" id="e12_polygon" style="stroke-width: 1px; vector-effect: non-scaling-stroke;" points="785.965 247.368 782.456 396.491 1028.07 396.491 1026.32 238.596 982.456 217.544 912.281 214.035 861.403 215.789 807.017 228.07 791.228 235.088" fill="white" /><ellipse id="e13_ellipse" cx="907.0176390703502" cy="249.1228176675088" stroke="black" style="stroke-width: 1px; vector-effect: non-scaling-stroke;" rx="117.54386199999999" ry="35.08771999999999" fill="white"/><rect x="847.368437" y="196.491218" stroke="black" id="e14_rectangle" style="stroke-width: 1px; vector-effect: non-scaling-stroke;" width="17.54386" height="56.140352" fill="white"/><rect x="891.228087" y="189.473674" stroke="black" id="e15_rectangle" style="stroke-width: 1px; vector-effect: non-scaling-stroke;" width="17.54386" height="59.649124" fill="white"/><rect x="940.350895" y="201.754376" stroke="black" id="e16_rectangle" style="stroke-width: 1px; vector-effect: non-scaling-stroke;" width="14.035088" height="64.912282" fill="white"/><rect x="968.421071" y="194.736832" stroke="black" id="e17_rectangle" style="stroke-width: 1px; vector-effect: non-scaling-stroke;" width="17.54386" height="61.40351" fill="white"/><path d="M842.1052520000001,156.140335c-6.280903999999964,1.2561829999999932,4.562917999999968,32.938248000000016,10.526366999999937,29.824569999999994c5.963448000000085,-3.113677999999993,9.272197000000006,-16.338290999999998,7.017516999999998,-21.052628c-2.254681000000005,-4.714336000000003,-11.26297999999997,-10.028124999999989,-17.543883999999935,-8.771941999999996Z" stroke="black" id="e19_area3" fill="white" style="stroke-width: 1px; vector-effect: non-scaling-stroke;"/><path d="M894.736843,149.12279800000002c-1.0288479999999254,1.8074880000000064,1.3687290000000303,5.647255000000001,0,8.771927000000005c-1.3687290000000303,3.124672000000004,0.1493320000000722,19.563488000000007,5.263184000000024,19.298248c5.113851999999952,-0.2652400000000057,6.053316999999993,-21.379237999999987,3.508788999999979,-24.56140099999999c-2.5445290000000114,-3.1821630000000027,-7.743123999999966,-5.316263000000021,-8.771973000000003,-3.5087740000000167Z" stroke="black" id="e23_area3" fill="white" style="stroke-width: 1px; vector-effect: non-scaling-stroke;"/><path d="M997.9557394206884,121.80359790125546c-1.3092619999999897,7.598019000000022,3.3423080000000027,8.874839000000065,0,10.526337000000012c-3.342309,1.6514979999999468,-7.474395999999956,28.388608999999974,0,29.824523999999997c7.47439600000007,1.4359140000000252,17.41509700000006,-22.23206600000003,17.543884000000048,-28.07012999999995c0.1287869999999884,-5.838064000000031,-16.234621999999945,-19.878749000000028,-17.543884000000048,-12.28073100000006Z" stroke="black" id="e27_area3" fill="white" style="stroke-width: 1px; vector-effect: non-scaling-stroke;" transform="matrix(0.691744 0.0449107 -0.0449107 0.691744 294.119 23.5936)"/><path d="M917.8536145906429,-54.36071757000974c-6.67694999999992,2.9360580000000027,-5.591852999999901,34.76515900000004,3.5087890000000925,36.84210200000001c9.100641999999993,2.0769430000000284,22.96824499999991,-28.33463899999998,17.543823999999972,-33.33334300000001c-5.424421000000052,-4.998703999999975,-14.375662000000034,-6.444816000000003,-21.052613000000065,-3.5087589999999977Z" stroke="black" id="e30_area3" fill="white" style="stroke-width: 1px; vector-effect: non-scaling-stroke;" transform="matrix(0.657173 0 0 0.657173 337.801 193.934)"/><polygon stroke="black" id="e33_polygon" style="stroke-width: 1px; vector-effect: non-scaling-stroke;" points="798.246 524.561 900 522.807 850.877 843.86" fill="white"/><polygon stroke="black" id="e35_polygon" style="stroke-width: 1px; vector-effect: non-scaling-stroke;" points="936.843 526.315 1038.6 524.561 989.474 845.614" fill="white"/><polygon stroke="black" id="e36_polygon" style="stroke-width: 1px; vector-effect: non-scaling-stroke;" points="1094.74 522.806 1196.5 521.052 1147.37 842.105" fill="white" /><circle id="e37_circle" cx="856.1404417901623" cy="910.5263064947709" stroke="black" style="stroke-width: 1px; vector-effect: non-scaling-stroke;" r="33.101689" fill="white"/><circle id="e38_circle" cx="998.2455444748558" cy="905.2630618385588" stroke="black" style="stroke-width: 1px; vector-effect: non-scaling-stroke;" r="33.101689" fill="white"/><circle id="e39_circle" cx="1150.8771974634403" cy="907.0173953473954" stroke="black" style="stroke-width: 1px; vector-effect: non-scaling-stroke;" r="33.101689" fill="white"/></svg>
